M48
; DRILL file {KiCad (6.0.5-0)} date 2022 June 12, Sunday 16:17:49
; FORMAT={-:-/ absolute / inch / decimal}
; #@! TF.CreationDate,2022-06-12T16:17:49+02:00
; #@! TF.GenerationSoftware,Kicad,Pcbnew,(6.0.5-0)
; #@! TF.FileFunction,Plated,1,2,PTH
FMAT,2
INCH
; #@! TA.AperFunction,Plated,PTH,ViaDrill
T1C0.0157
; #@! TA.AperFunction,Plated,PTH,ComponentDrill
T2C0.0157
; #@! TA.AperFunction,Plated,PTH,ComponentDrill
T3C0.0197
; #@! TA.AperFunction,Plated,PTH,ComponentDrill
T4C0.0295
; #@! TA.AperFunction,Plated,PTH,ComponentDrill
T5C0.0299
; #@! TA.AperFunction,Plated,PTH,ComponentDrill
T6C0.0374
%
G90
G05
T1
X6.0142Y-3.072
X6.0154Y-3.1
X6.0461Y-3.0331
X6.0764Y-2.3087
X6.0764Y-2.3945
X6.0764Y-2.4803
X6.1531Y-2.7209
X6.1929Y-2.4925
X6.2224Y-2.4122
X6.224Y-3.115
X6.248Y-2.7386
X6.276Y-3.0157
X6.2925Y-2.9557
X6.3157Y-2.7961
X6.3394Y-3.1437
X6.3587Y-2.9344
X6.3697Y-2.7268
X6.6382Y-2.1744
X6.7083Y-3.061
X7.1289Y-2.1959
X7.1289Y-2.4554
X7.1289Y-2.7149
X7.1289Y-2.9744
T2
X6.0827Y-2.8661
X6.0827Y-2.8976
X6.0827Y-2.9291
X6.0827Y-2.9921
X6.0827Y-3.0236
X6.0827Y-3.0551
X6.1102Y-2.8504
X6.1102Y-2.9134
X6.1102Y-2.9449
X6.1102Y-2.9764
X6.1102Y-3.0079
X6.1102Y-3.0709
T4
X6.8563Y-2.1493
X6.8563Y-2.2281
X6.8563Y-2.3068
X6.8563Y-2.3855
X6.8563Y-2.4643
X6.8563Y-2.543
X6.8563Y-2.6218
X6.8563Y-2.7005
X6.8563Y-2.7792
X6.8563Y-2.858
X6.8563Y-2.9367
X6.8563Y-3.0155
X6.8563Y-3.0942
X6.935Y-2.1493
X6.935Y-2.2281
X6.935Y-2.3068
X6.935Y-2.3855
X6.935Y-2.4643
X6.935Y-2.543
X6.935Y-2.6218
X6.935Y-2.7005
X6.935Y-2.7792
X6.935Y-2.858
X6.935Y-2.9367
X6.935Y-3.0155
X6.935Y-3.0942
T5
X6.311Y-2.2149
X6.311Y-2.3149
X6.311Y-2.4149
X6.311Y-2.5149
X6.411Y-2.2649
X6.411Y-2.3649
X6.411Y-2.4649
X6.411Y-2.5649
T6
X6.5344Y-2.535
X6.5344Y-2.661
X6.5344Y-2.7476
X6.5344Y-2.8343
X6.7344Y-2.535
X6.7344Y-2.661
X6.7344Y-2.7476
X6.7344Y-2.8343
T3
G00X5.8642Y-2.7839
M15
G01X5.8406Y-2.7839
M16
G05
G00X5.8642Y-3.1374
M15
G01X5.8406Y-3.1374
M16
G05
G00X6.0984Y-2.798
M15
G01X6.0748Y-2.798
M16
G05
G00X6.0984Y-3.1232
M15
G01X6.0748Y-3.1232
M16
G05
T0
M30
