%TF.GenerationSoftware,KiCad,Pcbnew,(6.0.5-0)*%
%TF.CreationDate,2022-06-12T16:17:49+02:00*%
%TF.ProjectId,Relay,52656c61-792e-46b6-9963-61645f706362,rev?*%
%TF.SameCoordinates,Original*%
%TF.FileFunction,Soldermask,Top*%
%TF.FilePolarity,Negative*%
%FSLAX46Y46*%
G04 Gerber Fmt 4.6, Leading zero omitted, Abs format (unit mm)*
G04 Created by KiCad (PCBNEW (6.0.5-0)) date 2022-06-12 16:17:49*
%MOMM*%
%LPD*%
G01*
G04 APERTURE LIST*
G04 Aperture macros list*
%AMRoundRect*
0 Rectangle with rounded corners*
0 $1 Rounding radius*
0 $2 $3 $4 $5 $6 $7 $8 $9 X,Y pos of 4 corners*
0 Add a 4 corners polygon primitive as box body*
4,1,4,$2,$3,$4,$5,$6,$7,$8,$9,$2,$3,0*
0 Add four circle primitives for the rounded corners*
1,1,$1+$1,$2,$3*
1,1,$1+$1,$4,$5*
1,1,$1+$1,$6,$7*
1,1,$1+$1,$8,$9*
0 Add four rect primitives between the rounded corners*
20,1,$1+$1,$2,$3,$4,$5,0*
20,1,$1+$1,$4,$5,$6,$7,0*
20,1,$1+$1,$6,$7,$8,$9,0*
20,1,$1+$1,$8,$9,$2,$3,0*%
G04 Aperture macros list end*
%ADD10R,1.800000X1.340000*%
%ADD11RoundRect,0.249999X-1.075001X0.450001X-1.075001X-0.450001X1.075001X-0.450001X1.075001X0.450001X0*%
%ADD12RoundRect,0.200000X0.200000X0.275000X-0.200000X0.275000X-0.200000X-0.275000X0.200000X-0.275000X0*%
%ADD13C,3.200000*%
%ADD14R,1.500000X1.500000*%
%ADD15C,1.500000*%
%ADD16RoundRect,0.150000X-0.150000X0.587500X-0.150000X-0.587500X0.150000X-0.587500X0.150000X0.587500X0*%
%ADD17R,1.200000X1.500000*%
%ADD18R,4.650000X4.150000*%
%ADD19RoundRect,0.250000X-0.350000X0.350000X-0.350000X-0.350000X0.350000X-0.350000X0.350000X0.350000X0*%
%ADD20C,1.200000*%
%ADD21O,0.650000X0.950000*%
%ADD22C,0.650000*%
%ADD23R,0.700000X0.300000*%
%ADD24O,1.400000X0.800000*%
%ADD25R,1.458000X1.458000*%
%ADD26C,1.458000*%
%ADD27RoundRect,0.249999X0.450001X1.075001X-0.450001X1.075001X-0.450001X-1.075001X0.450001X-1.075001X0*%
G04 APERTURE END LIST*
D10*
%TO.C,D1*%
X163150000Y-79462500D03*
X163150000Y-76602500D03*
%TD*%
D11*
%TO.C,R8*%
X170410000Y-74650000D03*
X170410000Y-79450000D03*
%TD*%
%TO.C,R7*%
X167020000Y-74680000D03*
X167020000Y-79480000D03*
%TD*%
D12*
%TO.C,R6*%
X170125000Y-56570000D03*
X168475000Y-56570000D03*
%TD*%
D13*
%TO.C,J3*%
X153950000Y-54987500D03*
X153950000Y-66417500D03*
D14*
X160300000Y-56257500D03*
D15*
X162840000Y-57527500D03*
X160300000Y-58797500D03*
X162840000Y-60067500D03*
X160300000Y-61337500D03*
X162840000Y-62607500D03*
X160300000Y-63877500D03*
X162840000Y-65147500D03*
%TD*%
D16*
%TO.C,Q1*%
X163790000Y-70652500D03*
X161890000Y-70652500D03*
X162840000Y-72527500D03*
%TD*%
D12*
%TO.C,R5*%
X166975000Y-56710000D03*
X165325000Y-56710000D03*
%TD*%
D17*
%TO.C,CR1*%
X171160000Y-58955000D03*
X171160000Y-60925000D03*
D18*
X167410000Y-59940000D03*
%TD*%
D19*
%TO.C,J1*%
X176150000Y-54592500D03*
D20*
X174150000Y-54592500D03*
X176150000Y-56592500D03*
X174150000Y-56592500D03*
X176150000Y-58592500D03*
X174150000Y-58592500D03*
X176150000Y-60592500D03*
X174150000Y-60592500D03*
X176150000Y-62592500D03*
X174150000Y-62592500D03*
X176150000Y-64592500D03*
X174150000Y-64592500D03*
X176150000Y-66592500D03*
X174150000Y-66592500D03*
X176150000Y-68592500D03*
X174150000Y-68592500D03*
X176150000Y-70592500D03*
X174150000Y-70592500D03*
X176150000Y-72592500D03*
X174150000Y-72592500D03*
X176150000Y-74592500D03*
X174150000Y-74592500D03*
X176150000Y-76592500D03*
X174150000Y-76592500D03*
X176150000Y-78592500D03*
X174150000Y-78592500D03*
%TD*%
D11*
%TO.C,R4*%
X159460000Y-72760000D03*
X159460000Y-77560000D03*
%TD*%
D21*
%TO.C,J2*%
X155850000Y-78800000D03*
D22*
X155850000Y-71600000D03*
D23*
X156510000Y-72450000D03*
X156510000Y-72950000D03*
X156510000Y-73450000D03*
X156510000Y-73950000D03*
X156510000Y-74450000D03*
X156510000Y-74950000D03*
X156510000Y-75450000D03*
X156510000Y-75950000D03*
X156510000Y-76450000D03*
X156510000Y-76950000D03*
X156510000Y-77450000D03*
X156510000Y-77950000D03*
D22*
X155200000Y-78000000D03*
X154500000Y-77600000D03*
X154500000Y-76800000D03*
X155200000Y-76400000D03*
X154500000Y-76000000D03*
X155200000Y-75600000D03*
X155200000Y-74800000D03*
X154500000Y-74400000D03*
X155200000Y-74000000D03*
X154500000Y-73600000D03*
X154500000Y-72800000D03*
X155200000Y-72400000D03*
D24*
X148650000Y-70710000D03*
X148650000Y-79690000D03*
X154600000Y-71070000D03*
X154600000Y-79330000D03*
%TD*%
D25*
%TO.C,K1*%
X165974500Y-64390000D03*
D26*
X165974500Y-67590000D03*
X165974500Y-69790000D03*
X165974500Y-71990000D03*
X171054500Y-71990000D03*
X171054500Y-69790000D03*
X171054500Y-67590000D03*
X171054500Y-64390000D03*
%TD*%
D27*
%TO.C,R1*%
X170720000Y-54070000D03*
X165920000Y-54070000D03*
%TD*%
M02*
