%TF.GenerationSoftware,KiCad,Pcbnew,(6.0.5-0)*%
%TF.CreationDate,2022-06-12T16:17:49+02:00*%
%TF.ProjectId,Relay,52656c61-792e-46b6-9963-61645f706362,rev?*%
%TF.SameCoordinates,Original*%
%TF.FileFunction,Copper,L1,Top*%
%TF.FilePolarity,Positive*%
%FSLAX46Y46*%
G04 Gerber Fmt 4.6, Leading zero omitted, Abs format (unit mm)*
G04 Created by KiCad (PCBNEW (6.0.5-0)) date 2022-06-12 16:17:49*
%MOMM*%
%LPD*%
G01*
G04 APERTURE LIST*
G04 Aperture macros list*
%AMRoundRect*
0 Rectangle with rounded corners*
0 $1 Rounding radius*
0 $2 $3 $4 $5 $6 $7 $8 $9 X,Y pos of 4 corners*
0 Add a 4 corners polygon primitive as box body*
4,1,4,$2,$3,$4,$5,$6,$7,$8,$9,$2,$3,0*
0 Add four circle primitives for the rounded corners*
1,1,$1+$1,$2,$3*
1,1,$1+$1,$4,$5*
1,1,$1+$1,$6,$7*
1,1,$1+$1,$8,$9*
0 Add four rect primitives between the rounded corners*
20,1,$1+$1,$2,$3,$4,$5,0*
20,1,$1+$1,$4,$5,$6,$7,0*
20,1,$1+$1,$6,$7,$8,$9,0*
20,1,$1+$1,$8,$9,$2,$3,0*%
G04 Aperture macros list end*
%TA.AperFunction,SMDPad,CuDef*%
%ADD10R,1.800000X1.340000*%
%TD*%
%TA.AperFunction,SMDPad,CuDef*%
%ADD11RoundRect,0.249999X-1.075001X0.450001X-1.075001X-0.450001X1.075001X-0.450001X1.075001X0.450001X0*%
%TD*%
%TA.AperFunction,SMDPad,CuDef*%
%ADD12RoundRect,0.200000X0.200000X0.275000X-0.200000X0.275000X-0.200000X-0.275000X0.200000X-0.275000X0*%
%TD*%
%TA.AperFunction,ComponentPad*%
%ADD13R,1.500000X1.500000*%
%TD*%
%TA.AperFunction,ComponentPad*%
%ADD14C,1.500000*%
%TD*%
%TA.AperFunction,SMDPad,CuDef*%
%ADD15RoundRect,0.150000X-0.150000X0.587500X-0.150000X-0.587500X0.150000X-0.587500X0.150000X0.587500X0*%
%TD*%
%TA.AperFunction,SMDPad,CuDef*%
%ADD16R,1.200000X1.500000*%
%TD*%
%TA.AperFunction,SMDPad,CuDef*%
%ADD17R,4.650000X4.150000*%
%TD*%
%TA.AperFunction,ComponentPad*%
%ADD18RoundRect,0.250000X-0.350000X0.350000X-0.350000X-0.350000X0.350000X-0.350000X0.350000X0.350000X0*%
%TD*%
%TA.AperFunction,ComponentPad*%
%ADD19C,1.200000*%
%TD*%
%TA.AperFunction,SMDPad,CuDef*%
%ADD20R,0.700000X0.300000*%
%TD*%
%TA.AperFunction,ComponentPad*%
%ADD21C,0.650000*%
%TD*%
%TA.AperFunction,ComponentPad*%
%ADD22O,1.400000X0.800000*%
%TD*%
%TA.AperFunction,ComponentPad*%
%ADD23R,1.458000X1.458000*%
%TD*%
%TA.AperFunction,ComponentPad*%
%ADD24C,1.458000*%
%TD*%
%TA.AperFunction,SMDPad,CuDef*%
%ADD25RoundRect,0.249999X0.450001X1.075001X-0.450001X1.075001X-0.450001X-1.075001X0.450001X-1.075001X0*%
%TD*%
%TA.AperFunction,ViaPad*%
%ADD26C,0.800000*%
%TD*%
%TA.AperFunction,Conductor*%
%ADD27C,0.250000*%
%TD*%
%TA.AperFunction,Conductor*%
%ADD28C,0.500000*%
%TD*%
%TA.AperFunction,Conductor*%
%ADD29C,0.400000*%
%TD*%
%TA.AperFunction,Conductor*%
%ADD30C,0.300000*%
%TD*%
%TA.AperFunction,Conductor*%
%ADD31C,1.000000*%
%TD*%
G04 APERTURE END LIST*
D10*
%TO.P,D1,A*%
%TO.N,GND*%
X163150000Y-79462500D03*
%TO.P,D1,C*%
%TO.N,SBU1*%
X163150000Y-76602500D03*
%TD*%
D11*
%TO.P,R8,1*%
%TO.N,Relay_4*%
X170410000Y-74650000D03*
%TO.P,R8,2*%
%TO.N,Net-(J1-Pad25)*%
X170410000Y-79450000D03*
%TD*%
%TO.P,R7,1*%
%TO.N,Relay_4*%
X167020000Y-74680000D03*
%TO.P,R7,2*%
%TO.N,CAN2_L*%
X167020000Y-79480000D03*
%TD*%
D12*
%TO.P,R6,1*%
%TO.N,CAN0_H*%
X170125000Y-56570000D03*
%TO.P,R6,2*%
%TO.N,Net-(J3-Pad6)*%
X168475000Y-56570000D03*
%TD*%
D13*
%TO.P,J3,1*%
%TO.N,GND*%
X160300000Y-56257500D03*
D14*
%TO.P,J3,2*%
%TO.N,CAN3_L*%
X162840000Y-57527500D03*
%TO.P,J3,3*%
%TO.N,Net-(J3-Pad3)*%
X160300000Y-58797500D03*
%TO.P,J3,4*%
%TO.N,CAN3_H*%
X162840000Y-60067500D03*
%TO.P,J3,5*%
%TO.N,GND*%
X160300000Y-61337500D03*
%TO.P,J3,6*%
%TO.N,Net-(J3-Pad6)*%
X162840000Y-62607500D03*
%TO.P,J3,7*%
%TO.N,+12V*%
X160300000Y-63877500D03*
%TO.P,J3,8*%
X162840000Y-65147500D03*
%TD*%
D15*
%TO.P,Q1,1,B*%
%TO.N,IGN*%
X163790000Y-70652500D03*
%TO.P,Q1,2,E*%
%TO.N,GND*%
X161890000Y-70652500D03*
%TO.P,Q1,3,C*%
%TO.N,Net-(R4-Pad1)*%
X162840000Y-72527500D03*
%TD*%
D12*
%TO.P,R5,1*%
%TO.N,CAN0_L*%
X166975000Y-56710000D03*
%TO.P,R5,2*%
%TO.N,Net-(J3-Pad3)*%
X165325000Y-56710000D03*
%TD*%
D16*
%TO.P,CR1,1*%
%TO.N,IGN*%
X171160000Y-58955000D03*
%TO.P,CR1,2*%
X171160000Y-60925000D03*
D17*
%TO.P,CR1,3*%
%TO.N,+12V*%
X167410000Y-59940000D03*
%TD*%
D18*
%TO.P,J1,1,Pin_1*%
%TO.N,GND*%
X176150000Y-54592500D03*
D19*
%TO.P,J1,2,Pin_2*%
%TO.N,IGN*%
X174150000Y-54592500D03*
%TO.P,J1,3,Pin_3*%
%TO.N,CAN0_H*%
X176150000Y-56592500D03*
%TO.P,J1,4,Pin_4*%
X174150000Y-56592500D03*
%TO.P,J1,5,Pin_5*%
%TO.N,Net-(J1-Pad5)*%
X176150000Y-58592500D03*
%TO.P,J1,6,Pin_6*%
%TO.N,CAN0_L*%
X174150000Y-58592500D03*
%TO.P,J1,7,Pin_7*%
%TO.N,Net-(J1-Pad21)*%
X176150000Y-60592500D03*
%TO.P,J1,8,Pin_8*%
%TO.N,CAN1_H*%
X174150000Y-60592500D03*
%TO.P,J1,9,Pin_9*%
%TO.N,Net-(J1-Pad19)*%
X176150000Y-62592500D03*
%TO.P,J1,10,Pin_10*%
%TO.N,CAN1_L*%
X174150000Y-62592500D03*
%TO.P,J1,11,Pin_11*%
%TO.N,Net-(J1-Pad11)*%
X176150000Y-64592500D03*
%TO.P,J1,12,Pin_12*%
%TO.N,+12V*%
X174150000Y-64592500D03*
%TO.P,J1,13,Pin_13*%
%TO.N,Net-(J1-Pad13)*%
X176150000Y-66592500D03*
%TO.P,J1,14,Pin_14*%
%TO.N,+12V*%
X174150000Y-66592500D03*
%TO.P,J1,15,Pin_15*%
%TO.N,Net-(J1-Pad13)*%
X176150000Y-68592500D03*
%TO.P,J1,16,Pin_16*%
%TO.N,IGN*%
X174150000Y-68592500D03*
%TO.P,J1,17,Pin_17*%
%TO.N,Net-(J1-Pad11)*%
X176150000Y-70592500D03*
%TO.P,J1,18,Pin_18*%
%TO.N,CAN1_H*%
X174150000Y-70592500D03*
%TO.P,J1,19,Pin_19*%
%TO.N,Net-(J1-Pad19)*%
X176150000Y-72592500D03*
%TO.P,J1,20,Pin_20*%
%TO.N,CAN1_L*%
X174150000Y-72592500D03*
%TO.P,J1,21,Pin_21*%
%TO.N,Net-(J1-Pad21)*%
X176150000Y-74592500D03*
%TO.P,J1,22,Pin_22*%
%TO.N,CAN2_H*%
X174150000Y-74592500D03*
%TO.P,J1,23,Pin_23*%
%TO.N,CAN2_L*%
X176150000Y-76592500D03*
%TO.P,J1,24,Pin_24*%
X174150000Y-76592500D03*
%TO.P,J1,25,Pin_25*%
%TO.N,Net-(J1-Pad25)*%
X176150000Y-78592500D03*
%TO.P,J1,26,Pin_26*%
%TO.N,GND*%
X174150000Y-78592500D03*
%TD*%
D11*
%TO.P,R4,1*%
%TO.N,Net-(R4-Pad1)*%
X159460000Y-72760000D03*
%TO.P,R4,2*%
%TO.N,SBU2*%
X159460000Y-77560000D03*
%TD*%
D20*
%TO.P,J2,A1,GND*%
%TO.N,GND*%
X156510000Y-72450000D03*
%TO.P,J2,A2,TX1+*%
%TO.N,CAN0_H*%
X156510000Y-72950000D03*
%TO.P,J2,A3,TX1-*%
%TO.N,CAN0_L*%
X156510000Y-73450000D03*
%TO.P,J2,A4,VBUS*%
%TO.N,+12V*%
X156510000Y-73950000D03*
%TO.P,J2,A5,CC1*%
%TO.N,unconnected-(J2-PadA5)*%
X156510000Y-74450000D03*
%TO.P,J2,A6,D+*%
%TO.N,unconnected-(J2-PadA6)*%
X156510000Y-74950000D03*
%TO.P,J2,A7,D-*%
%TO.N,unconnected-(J2-PadA7)*%
X156510000Y-75450000D03*
%TO.P,J2,A8,SBU1*%
%TO.N,SBU1*%
X156510000Y-75950000D03*
%TO.P,J2,A9,VBUS*%
%TO.N,+12V*%
X156510000Y-76450000D03*
%TO.P,J2,A10,RX2-*%
%TO.N,CAN1_L*%
X156510000Y-76950000D03*
%TO.P,J2,A11,RX2+*%
%TO.N,CAN1_H*%
X156510000Y-77450000D03*
%TO.P,J2,A12,GND*%
%TO.N,GND*%
X156510000Y-77950000D03*
D21*
%TO.P,J2,B1,GND*%
X155200000Y-78000000D03*
%TO.P,J2,B2,TX2+*%
%TO.N,CAN2_H*%
X154500000Y-77600000D03*
%TO.P,J2,B3,TX2-*%
%TO.N,CAN2_L*%
X154500000Y-76800000D03*
%TO.P,J2,B4,VBUS*%
%TO.N,+12V*%
X155200000Y-76400000D03*
%TO.P,J2,B5,CC2*%
%TO.N,unconnected-(J2-PadB5)*%
X154500000Y-76000000D03*
%TO.P,J2,B6,D+*%
%TO.N,unconnected-(J2-PadB6)*%
X155200000Y-75600000D03*
%TO.P,J2,B7,D-*%
%TO.N,unconnected-(J2-PadB7)*%
X155200000Y-74800000D03*
%TO.P,J2,B8,SBU2*%
%TO.N,SBU2*%
X154500000Y-74400000D03*
%TO.P,J2,B9,VBUS*%
%TO.N,+12V*%
X155200000Y-74000000D03*
%TO.P,J2,B10,RX1-*%
%TO.N,CAN3_L*%
X154500000Y-73600000D03*
%TO.P,J2,B11,RX1+*%
%TO.N,CAN3_H*%
X154500000Y-72800000D03*
%TO.P,J2,B12,GND*%
%TO.N,GND*%
X155200000Y-72400000D03*
D22*
%TO.P,J2,S1,SHIELD*%
X148650000Y-70710000D03*
X148650000Y-79690000D03*
X154600000Y-71070000D03*
X154600000Y-79330000D03*
%TD*%
D23*
%TO.P,K1,1*%
%TO.N,SBU1*%
X165974500Y-64390000D03*
D24*
%TO.P,K1,2*%
%TO.N,CAN0_H*%
X165974500Y-67590000D03*
%TO.P,K1,3*%
%TO.N,CAN2_H*%
X165974500Y-69790000D03*
%TO.P,K1,4*%
%TO.N,Relay_4*%
X165974500Y-71990000D03*
%TO.P,K1,5*%
%TO.N,Relay_5*%
X171054500Y-71990000D03*
%TO.P,K1,6*%
%TO.N,CAN0_L*%
X171054500Y-69790000D03*
%TO.P,K1,7*%
%TO.N,CAN2_L*%
X171054500Y-67590000D03*
%TO.P,K1,8*%
%TO.N,GND*%
X171054500Y-64390000D03*
%TD*%
D25*
%TO.P,R1,1*%
%TO.N,Net-(J1-Pad5)*%
X170720000Y-54070000D03*
%TO.P,R1,2*%
%TO.N,Relay_5*%
X165920000Y-54070000D03*
%TD*%
D26*
%TO.N,SBU1*%
X161510000Y-74534500D03*
%TO.N,GND*%
X152790000Y-78740000D03*
X170390000Y-77750000D03*
X154340000Y-60820000D03*
X158090000Y-79120000D03*
X161790000Y-69260000D03*
X152760000Y-78030000D03*
X160420000Y-71020000D03*
X161020000Y-79850000D03*
X156290000Y-69110000D03*
X154340000Y-63000000D03*
X158700000Y-69560000D03*
X181075000Y-75550000D03*
X154340000Y-58640000D03*
X181075000Y-68958332D03*
X181075000Y-55775000D03*
X181075000Y-62366666D03*
X157300000Y-63310000D03*
X158050000Y-61270000D03*
%TO.N,CAN1_L*%
X159830000Y-75074500D03*
%TO.N,CAN2_L*%
X153570000Y-77040000D03*
%TO.N,SBU2*%
X159410000Y-76600000D03*
%TO.N,Relay_5*%
X168610000Y-55230000D03*
%TD*%
D27*
%TO.N,SBU1*%
X161510000Y-74534500D02*
X161579700Y-74534500D01*
X157185300Y-75950000D02*
X156510000Y-75950000D01*
X161510000Y-74534500D02*
X161325500Y-74350000D01*
X163150000Y-76104800D02*
X163150000Y-76602500D01*
X161325500Y-74350000D02*
X158759022Y-74350000D01*
X158759022Y-74350000D02*
X157159022Y-75950000D01*
X157159022Y-75950000D02*
X156510000Y-75950000D01*
X161579700Y-74534500D02*
X163150000Y-76104800D01*
%TO.N,GND*%
X156510000Y-72450000D02*
X155250000Y-72450000D01*
X156920000Y-77950000D02*
X156510000Y-77950000D01*
X161862500Y-70680000D02*
X161890000Y-70652500D01*
X160760000Y-70680000D02*
X161862500Y-70680000D01*
D28*
X160575000Y-79660000D02*
X162952500Y-79660000D01*
D29*
X155200000Y-78000000D02*
X154570000Y-78630000D01*
D27*
X155250000Y-72450000D02*
X155200000Y-72400000D01*
X161020000Y-79850000D02*
X160765000Y-79850000D01*
X154570000Y-78630000D02*
X154570000Y-78850000D01*
X156510000Y-77950000D02*
X155250000Y-77950000D01*
D28*
X162952500Y-79660000D02*
X163150000Y-79462500D01*
D27*
X158090000Y-79120000D02*
X156920000Y-77950000D01*
X160420000Y-71020000D02*
X160760000Y-70680000D01*
X155250000Y-77950000D02*
X155200000Y-78000000D01*
D29*
%TO.N,IGN*%
X175224600Y-58156200D02*
X175150000Y-58230800D01*
X175113900Y-53628600D02*
X176753900Y-53628600D01*
X177141900Y-54016600D02*
X177141900Y-56963700D01*
X177141900Y-56963700D02*
X176513100Y-57592500D01*
X175075400Y-67667100D02*
X175075400Y-62162600D01*
D27*
X171160000Y-60925000D02*
X171622700Y-60925000D01*
D29*
X174150000Y-68592500D02*
X175075400Y-67667100D01*
X175075400Y-62162600D02*
X174505300Y-61592500D01*
X171622700Y-60925000D02*
X172085300Y-60925000D01*
D27*
X174052500Y-68690000D02*
X174150000Y-68592500D01*
D30*
X171160000Y-60462300D02*
X171160000Y-58955000D01*
D29*
X174150000Y-54592500D02*
X175113900Y-53628600D01*
D27*
X171622700Y-60925000D02*
X171160000Y-60462300D01*
D29*
X174505300Y-61592500D02*
X172752800Y-61592500D01*
X175788300Y-57592500D02*
X175224600Y-58156200D01*
X165485600Y-68690000D02*
X174052500Y-68690000D01*
X175150000Y-58230800D02*
X175150000Y-61006023D01*
X176513100Y-57592500D02*
X175788300Y-57592500D01*
X175150000Y-61006023D02*
X174563523Y-61592500D01*
X176753900Y-53628600D02*
X177141900Y-54016600D01*
X174563523Y-61592500D02*
X174505300Y-61592500D01*
X163790000Y-70385600D02*
X165485600Y-68690000D01*
D27*
X163790000Y-70652500D02*
X163790000Y-70385600D01*
D29*
X172752800Y-61592500D02*
X172085300Y-60925000D01*
D27*
%TO.N,CAN0_H*%
X157540000Y-72240000D02*
X157540000Y-72750000D01*
X162190000Y-67590000D02*
X157540000Y-72240000D01*
X157540000Y-72750000D02*
X157340000Y-72950000D01*
X165974500Y-67590000D02*
X162190000Y-67590000D01*
X170125000Y-56570000D02*
X170147500Y-56592500D01*
X170147500Y-56592500D02*
X174150000Y-56592500D01*
X157340000Y-72950000D02*
X156510000Y-72950000D01*
X174150000Y-56592500D02*
X176150000Y-56592500D01*
%TO.N,Net-(J1-Pad5)*%
X171720000Y-53070000D02*
X177260000Y-53070000D01*
X177260000Y-53070000D02*
X177666420Y-53476420D01*
X177666420Y-53476420D02*
X177666420Y-57413580D01*
X176487500Y-58592500D02*
X176150000Y-58592500D01*
X177666420Y-57413580D02*
X176487500Y-58592500D01*
X170720000Y-54070000D02*
X171720000Y-53070000D01*
%TO.N,CAN0_L*%
X173097100Y-57539600D02*
X167804600Y-57539600D01*
X164420000Y-72820000D02*
X163430000Y-73810000D01*
X157159022Y-73450000D02*
X156510000Y-73450000D01*
X165595600Y-70844400D02*
X164420000Y-72020000D01*
X164420000Y-72020000D02*
X164420000Y-72820000D01*
X170000100Y-70844400D02*
X165595600Y-70844400D01*
X167804600Y-57539600D02*
X166975000Y-56710000D01*
X157519022Y-73810000D02*
X157159022Y-73450000D01*
X163430000Y-73810000D02*
X157519022Y-73810000D01*
X171054500Y-69790000D02*
X170000100Y-70844400D01*
X174150000Y-58592500D02*
X173097100Y-57539600D01*
%TO.N,CAN1_H*%
X156510000Y-77450000D02*
X157232506Y-77450000D01*
X157232506Y-77450000D02*
X158842506Y-75840000D01*
X160590000Y-75840000D02*
X161330000Y-76580000D01*
X161330000Y-77200000D02*
X161727900Y-77597900D01*
X171402300Y-76057700D02*
X172965800Y-74494200D01*
X172965800Y-71776700D02*
X174150000Y-70592500D01*
X165953000Y-77597900D02*
X167493200Y-76057700D01*
X158842506Y-75840000D02*
X160590000Y-75840000D01*
X167493200Y-76057700D02*
X171402300Y-76057700D01*
X161727900Y-77597900D02*
X165953000Y-77597900D01*
X172965800Y-74494200D02*
X172965800Y-71776700D01*
X161330000Y-76580000D02*
X161330000Y-77200000D01*
%TO.N,CAN1_L*%
X157050000Y-76950000D02*
X156510000Y-76950000D01*
X159830000Y-75074500D02*
X158925500Y-75074500D01*
X158925500Y-75074500D02*
X157050000Y-76950000D01*
%TO.N,Net-(J1-Pad11)*%
X176150000Y-70592500D02*
X177090300Y-69652200D01*
X177090300Y-65532800D02*
X176150000Y-64592500D01*
X177090300Y-69652200D02*
X177090300Y-65532800D01*
D31*
%TO.N,+12V*%
X166435000Y-61315000D02*
X162920000Y-64830000D01*
X168785000Y-61315000D02*
X167410000Y-59940000D01*
D27*
X155200000Y-74000000D02*
X155250000Y-73950000D01*
X168785000Y-61315000D02*
X166672500Y-61315000D01*
D30*
X155250000Y-76450000D02*
X156510000Y-76450000D01*
D31*
X172247500Y-62690000D02*
X170160000Y-62690000D01*
X172248000Y-62690000D02*
X174150000Y-64592500D01*
X162920000Y-64830000D02*
X162920000Y-65110000D01*
D27*
X155200000Y-76400000D02*
X155250000Y-76450000D01*
D30*
X155250000Y-73950000D02*
X156510000Y-73950000D01*
D31*
X170160000Y-62690000D02*
X168785000Y-61315000D01*
D28*
X162920000Y-65110000D02*
X162882500Y-65147500D01*
X162882500Y-65147500D02*
X162840000Y-65147500D01*
X166672500Y-61315000D02*
X166435000Y-61315000D01*
D27*
%TO.N,CAN2_L*%
X167020000Y-78426800D02*
X167020000Y-79480000D01*
X153999894Y-80054520D02*
X158335480Y-80054520D01*
X153575480Y-79630106D02*
X153999894Y-80054520D01*
X153575480Y-78385480D02*
X153575480Y-79630106D01*
X154681452Y-76800000D02*
X154500000Y-76800000D01*
X153570000Y-77040000D02*
X153570000Y-78380000D01*
X158335480Y-80054520D02*
X159304520Y-79085480D01*
X168854300Y-76592500D02*
X167020000Y-78426800D01*
X161966678Y-78426800D02*
X167020000Y-78426800D01*
X161573478Y-78820000D02*
X161966678Y-78426800D01*
X153570000Y-78380000D02*
X153575480Y-78385480D01*
X159304520Y-79085480D02*
X161573478Y-79085480D01*
X161573478Y-79085480D02*
X161573478Y-78820000D01*
X176150000Y-76592500D02*
X174150000Y-76592500D01*
X174150000Y-76592500D02*
X168854300Y-76592500D01*
%TO.N,SBU2*%
X159460000Y-77560000D02*
X159460000Y-76650000D01*
X159460000Y-76650000D02*
X159410000Y-76600000D01*
%TO.N,Net-(J3-Pad3)*%
X160300000Y-58797500D02*
X160300000Y-58546700D01*
X165016100Y-56401100D02*
X165325000Y-56710000D01*
X160300000Y-58546700D02*
X162445600Y-56401100D01*
X162445600Y-56401100D02*
X165016100Y-56401100D01*
%TO.N,Net-(J3-Pad6)*%
X163915400Y-61532100D02*
X163915400Y-58480600D01*
X163915400Y-58480600D02*
X164856400Y-57539600D01*
X165797500Y-57539600D02*
X166150000Y-57187100D01*
X166660000Y-55710000D02*
X167615000Y-55710000D01*
X166150000Y-57187100D02*
X166150000Y-56220000D01*
X167615000Y-55710000D02*
X168475000Y-56570000D01*
X164856400Y-57539600D02*
X165797500Y-57539600D01*
X166150000Y-56220000D02*
X166660000Y-55710000D01*
X162840000Y-62607500D02*
X163915400Y-61532100D01*
%TO.N,Relay_4*%
X165974500Y-71990000D02*
X167020000Y-73035500D01*
X167020000Y-73035500D02*
X167020000Y-74650000D01*
X167020000Y-74650000D02*
X167020000Y-74680000D01*
X167020000Y-74650000D02*
X170410000Y-74650000D01*
%TO.N,Net-(J1-Pad25)*%
X170493200Y-79533200D02*
X170410000Y-79450000D01*
X176150000Y-78592500D02*
X175209300Y-79533200D01*
X175209300Y-79533200D02*
X170493200Y-79533200D01*
%TO.N,Relay_5*%
X168610000Y-55230000D02*
X167450000Y-54070000D01*
X167450000Y-54070000D02*
X165920000Y-54070000D01*
%TO.N,Net-(R4-Pad1)*%
X162607500Y-72760000D02*
X162840000Y-72527500D01*
X159460000Y-72760000D02*
X162607500Y-72760000D01*
%TD*%
%TA.AperFunction,Conductor*%
%TO.N,GND*%
G36*
X183263621Y-52988502D02*
G01*
X183310114Y-53042158D01*
X183321500Y-53094500D01*
X183321500Y-80095500D01*
X183301498Y-80163621D01*
X183247842Y-80210114D01*
X183195500Y-80221500D01*
X175725908Y-80221500D01*
X175657787Y-80201498D01*
X175611294Y-80147842D01*
X175601190Y-80077568D01*
X175630684Y-80012988D01*
X175639656Y-80003649D01*
X175639995Y-80003330D01*
X175646407Y-79998672D01*
X175659031Y-79983413D01*
X175674598Y-79964595D01*
X175682588Y-79955816D01*
X175905985Y-79732419D01*
X175968297Y-79698393D01*
X176004666Y-79696877D01*
X176004692Y-79696225D01*
X176208263Y-79704223D01*
X176409883Y-79674990D01*
X176415347Y-79673135D01*
X176415352Y-79673134D01*
X176597327Y-79611362D01*
X176597332Y-79611360D01*
X176602799Y-79609504D01*
X176780551Y-79509958D01*
X176937186Y-79379686D01*
X177067458Y-79223051D01*
X177167004Y-79045299D01*
X177168860Y-79039832D01*
X177168862Y-79039827D01*
X177230634Y-78857852D01*
X177230635Y-78857847D01*
X177232490Y-78852383D01*
X177261723Y-78650763D01*
X177263249Y-78592500D01*
X177250654Y-78455422D01*
X177245137Y-78395380D01*
X177245136Y-78395377D01*
X177244608Y-78389626D01*
X177243040Y-78384066D01*
X177190875Y-78199106D01*
X177190874Y-78199104D01*
X177189307Y-78193547D01*
X177178776Y-78172191D01*
X177101756Y-78016010D01*
X177099201Y-78010829D01*
X177080796Y-77986181D01*
X176980758Y-77852215D01*
X176980758Y-77852214D01*
X176977305Y-77847591D01*
X176887646Y-77764711D01*
X176831943Y-77713219D01*
X176831940Y-77713217D01*
X176827703Y-77709300D01*
X176822822Y-77706220D01*
X176822819Y-77706218D01*
X176811272Y-77698933D01*
X176764334Y-77645667D01*
X176753644Y-77575480D01*
X176782598Y-77510655D01*
X176797938Y-77495497D01*
X176898867Y-77411556D01*
X176937186Y-77379686D01*
X177067458Y-77223051D01*
X177167004Y-77045299D01*
X177168860Y-77039832D01*
X177168862Y-77039827D01*
X177230634Y-76857852D01*
X177230635Y-76857847D01*
X177232490Y-76852383D01*
X177261723Y-76650763D01*
X177263249Y-76592500D01*
X177244608Y-76389626D01*
X177206008Y-76252763D01*
X177190875Y-76199106D01*
X177190874Y-76199104D01*
X177189307Y-76193547D01*
X177177614Y-76169834D01*
X177101756Y-76016010D01*
X177099201Y-76010829D01*
X177000385Y-75878498D01*
X176980758Y-75852215D01*
X176980758Y-75852214D01*
X176977305Y-75847591D01*
X176865137Y-75743904D01*
X176831943Y-75713219D01*
X176831940Y-75713217D01*
X176827703Y-75709300D01*
X176822822Y-75706220D01*
X176822819Y-75706218D01*
X176811272Y-75698933D01*
X176764334Y-75645667D01*
X176753644Y-75575480D01*
X176782598Y-75510655D01*
X176797938Y-75495497D01*
X176816686Y-75479905D01*
X176937186Y-75379686D01*
X177067458Y-75223051D01*
X177167004Y-75045299D01*
X177168860Y-75039832D01*
X177168862Y-75039827D01*
X177230634Y-74857852D01*
X177230635Y-74857847D01*
X177232490Y-74852383D01*
X177261723Y-74650763D01*
X177263249Y-74592500D01*
X177249321Y-74440922D01*
X177245137Y-74395380D01*
X177245136Y-74395377D01*
X177244608Y-74389626D01*
X177239769Y-74372469D01*
X177190875Y-74199106D01*
X177190874Y-74199104D01*
X177189307Y-74193547D01*
X177184016Y-74182816D01*
X177101756Y-74016010D01*
X177099201Y-74010829D01*
X177083603Y-73989940D01*
X176980758Y-73852215D01*
X176980758Y-73852214D01*
X176977305Y-73847591D01*
X176873372Y-73751516D01*
X176831943Y-73713219D01*
X176831940Y-73713217D01*
X176827703Y-73709300D01*
X176822822Y-73706220D01*
X176822819Y-73706218D01*
X176811272Y-73698933D01*
X176764334Y-73645667D01*
X176753644Y-73575480D01*
X176782598Y-73510655D01*
X176797938Y-73495497D01*
X176811320Y-73484368D01*
X176937186Y-73379686D01*
X177067458Y-73223051D01*
X177139835Y-73093813D01*
X177164180Y-73050342D01*
X177164181Y-73050340D01*
X177167004Y-73045299D01*
X177168860Y-73039832D01*
X177168862Y-73039827D01*
X177230634Y-72857852D01*
X177230635Y-72857847D01*
X177232490Y-72852383D01*
X177261723Y-72650763D01*
X177263249Y-72592500D01*
X177246927Y-72414867D01*
X177245137Y-72395380D01*
X177245136Y-72395377D01*
X177244608Y-72389626D01*
X177223026Y-72313102D01*
X177190875Y-72199106D01*
X177190874Y-72199104D01*
X177189307Y-72193547D01*
X177183653Y-72182080D01*
X177101756Y-72016010D01*
X177099201Y-72010829D01*
X177094804Y-72004940D01*
X176980758Y-71852215D01*
X176980758Y-71852214D01*
X176977305Y-71847591D01*
X176863719Y-71742593D01*
X176831943Y-71713219D01*
X176831940Y-71713217D01*
X176827703Y-71709300D01*
X176822822Y-71706220D01*
X176822819Y-71706218D01*
X176811272Y-71698933D01*
X176764334Y-71645667D01*
X176753644Y-71575480D01*
X176782598Y-71510655D01*
X176797938Y-71495497D01*
X176819097Y-71477900D01*
X176937186Y-71379686D01*
X177067458Y-71223051D01*
X177075976Y-71207842D01*
X177164180Y-71050342D01*
X177164181Y-71050340D01*
X177167004Y-71045299D01*
X177168860Y-71039832D01*
X177168862Y-71039827D01*
X177230634Y-70857852D01*
X177230635Y-70857847D01*
X177232490Y-70852383D01*
X177261723Y-70650763D01*
X177263249Y-70592500D01*
X177250584Y-70454663D01*
X177250366Y-70452287D01*
X177264051Y-70382621D01*
X177286742Y-70351663D01*
X177482553Y-70155852D01*
X177490839Y-70148312D01*
X177497318Y-70144200D01*
X177543947Y-70094545D01*
X177546698Y-70091707D01*
X177566435Y-70071970D01*
X177568915Y-70068773D01*
X177576620Y-70059751D01*
X177601459Y-70033300D01*
X177606886Y-70027521D01*
X177610705Y-70020575D01*
X177610707Y-70020572D01*
X177616648Y-70009766D01*
X177627499Y-69993247D01*
X177632619Y-69986646D01*
X177639914Y-69977241D01*
X177643059Y-69969972D01*
X177643062Y-69969968D01*
X177657474Y-69936663D01*
X177662691Y-69926013D01*
X177683995Y-69887260D01*
X177686056Y-69879235D01*
X177689033Y-69867638D01*
X177695437Y-69848934D01*
X177700333Y-69837620D01*
X177700333Y-69837619D01*
X177703481Y-69830345D01*
X177704720Y-69822522D01*
X177704723Y-69822512D01*
X177710399Y-69786676D01*
X177712805Y-69775056D01*
X177721828Y-69739911D01*
X177721828Y-69739910D01*
X177723800Y-69732230D01*
X177723800Y-69711976D01*
X177725351Y-69692265D01*
X177727280Y-69680086D01*
X177728520Y-69672257D01*
X177724359Y-69628238D01*
X177723800Y-69616381D01*
X177723800Y-65611567D01*
X177724327Y-65600384D01*
X177726002Y-65592891D01*
X177725584Y-65579576D01*
X177723862Y-65524814D01*
X177723800Y-65520855D01*
X177723800Y-65492944D01*
X177723295Y-65488944D01*
X177722362Y-65477101D01*
X177721763Y-65458024D01*
X177720973Y-65432911D01*
X177715321Y-65413457D01*
X177711313Y-65394100D01*
X177709768Y-65381870D01*
X177709768Y-65381869D01*
X177708774Y-65374003D01*
X177702160Y-65357297D01*
X177692496Y-65332888D01*
X177688651Y-65321658D01*
X177678529Y-65286817D01*
X177678529Y-65286816D01*
X177676318Y-65279207D01*
X177672285Y-65272388D01*
X177672283Y-65272383D01*
X177666007Y-65261772D01*
X177657312Y-65244024D01*
X177649852Y-65225183D01*
X177623864Y-65189413D01*
X177617348Y-65179493D01*
X177598880Y-65148265D01*
X177598878Y-65148262D01*
X177594842Y-65141438D01*
X177580521Y-65127117D01*
X177567680Y-65112083D01*
X177560431Y-65102106D01*
X177555772Y-65095693D01*
X177549667Y-65090642D01*
X177549662Y-65090637D01*
X177521696Y-65067501D01*
X177512918Y-65059513D01*
X177286436Y-64833031D01*
X177252410Y-64770719D01*
X177250835Y-64725856D01*
X177251578Y-64720735D01*
X177261723Y-64650763D01*
X177263249Y-64592500D01*
X177249166Y-64439235D01*
X177245137Y-64395380D01*
X177245136Y-64395377D01*
X177244608Y-64389626D01*
X177227131Y-64327658D01*
X177190875Y-64199106D01*
X177190874Y-64199104D01*
X177189307Y-64193547D01*
X177184426Y-64183648D01*
X177101756Y-64016010D01*
X177099201Y-64010829D01*
X177090588Y-63999294D01*
X176980758Y-63852215D01*
X176980758Y-63852214D01*
X176977305Y-63847591D01*
X176827703Y-63709300D01*
X176822822Y-63706220D01*
X176822819Y-63706218D01*
X176811272Y-63698933D01*
X176764334Y-63645667D01*
X176753644Y-63575480D01*
X176782598Y-63510655D01*
X176797938Y-63495497D01*
X176833447Y-63465965D01*
X176937186Y-63379686D01*
X177067458Y-63223051D01*
X177167004Y-63045299D01*
X177168860Y-63039832D01*
X177168862Y-63039827D01*
X177230634Y-62857852D01*
X177230635Y-62857847D01*
X177232490Y-62852383D01*
X177261723Y-62650763D01*
X177263249Y-62592500D01*
X177251860Y-62468549D01*
X177245137Y-62395380D01*
X177245136Y-62395377D01*
X177244608Y-62389626D01*
X177189307Y-62193547D01*
X177177912Y-62170439D01*
X177101756Y-62016010D01*
X177099201Y-62010829D01*
X176977305Y-61847591D01*
X176827703Y-61709300D01*
X176822822Y-61706220D01*
X176822819Y-61706218D01*
X176811272Y-61698933D01*
X176764334Y-61645667D01*
X176753644Y-61575480D01*
X176782598Y-61510655D01*
X176797938Y-61495497D01*
X176850605Y-61451695D01*
X176937186Y-61379686D01*
X177067458Y-61223051D01*
X177167004Y-61045299D01*
X177168860Y-61039832D01*
X177168862Y-61039827D01*
X177230634Y-60857852D01*
X177230635Y-60857847D01*
X177232490Y-60852383D01*
X177261723Y-60650763D01*
X177263249Y-60592500D01*
X177249071Y-60438198D01*
X177245137Y-60395380D01*
X177245136Y-60395377D01*
X177244608Y-60389626D01*
X177218205Y-60296010D01*
X177190875Y-60199106D01*
X177190874Y-60199104D01*
X177189307Y-60193547D01*
X177183599Y-60181971D01*
X177101756Y-60016010D01*
X177099201Y-60010829D01*
X177091487Y-60000498D01*
X176980758Y-59852215D01*
X176980758Y-59852214D01*
X176977305Y-59847591D01*
X176827703Y-59709300D01*
X176822822Y-59706220D01*
X176822819Y-59706218D01*
X176811272Y-59698933D01*
X176764334Y-59645667D01*
X176753644Y-59575480D01*
X176782598Y-59510655D01*
X176797938Y-59495497D01*
X176863664Y-59440834D01*
X176937186Y-59379686D01*
X177067458Y-59223051D01*
X177167004Y-59045299D01*
X177168860Y-59039832D01*
X177168862Y-59039827D01*
X177230634Y-58857852D01*
X177230635Y-58857847D01*
X177232490Y-58852383D01*
X177236695Y-58823385D01*
X177244963Y-58766356D01*
X177274532Y-58701810D01*
X177280564Y-58695340D01*
X178058667Y-57917237D01*
X178066957Y-57909693D01*
X178073438Y-57905580D01*
X178120079Y-57855912D01*
X178122833Y-57853071D01*
X178142555Y-57833349D01*
X178145032Y-57830156D01*
X178152737Y-57821135D01*
X178177579Y-57794680D01*
X178183006Y-57788901D01*
X178186827Y-57781951D01*
X178192766Y-57771148D01*
X178203622Y-57754621D01*
X178211177Y-57744882D01*
X178211178Y-57744880D01*
X178216034Y-57738620D01*
X178233594Y-57698040D01*
X178238811Y-57687392D01*
X178256295Y-57655589D01*
X178256296Y-57655587D01*
X178260115Y-57648640D01*
X178265153Y-57629017D01*
X178271557Y-57610314D01*
X178276453Y-57599000D01*
X178276453Y-57598999D01*
X178279601Y-57591725D01*
X178280840Y-57583902D01*
X178280843Y-57583892D01*
X178286519Y-57548056D01*
X178288925Y-57536436D01*
X178297948Y-57501291D01*
X178297948Y-57501290D01*
X178299920Y-57493610D01*
X178299920Y-57473356D01*
X178301471Y-57453645D01*
X178303400Y-57441466D01*
X178304640Y-57433637D01*
X178300479Y-57389618D01*
X178299920Y-57377761D01*
X178299920Y-53555188D01*
X178300447Y-53544005D01*
X178302122Y-53536512D01*
X178299982Y-53468421D01*
X178299920Y-53464464D01*
X178299920Y-53436564D01*
X178299416Y-53432573D01*
X178298483Y-53420731D01*
X178297343Y-53384456D01*
X178297094Y-53376531D01*
X178293117Y-53362842D01*
X178291441Y-53357072D01*
X178287432Y-53337713D01*
X178287266Y-53336403D01*
X178284894Y-53317623D01*
X178281978Y-53310257D01*
X178281976Y-53310251D01*
X178268620Y-53276518D01*
X178264775Y-53265288D01*
X178254650Y-53230437D01*
X178254650Y-53230436D01*
X178252439Y-53222827D01*
X178242125Y-53205386D01*
X178233428Y-53187633D01*
X178228892Y-53176178D01*
X178225972Y-53168803D01*
X178221310Y-53162386D01*
X178217494Y-53155445D01*
X178220530Y-53153776D01*
X178201941Y-53101753D01*
X178217988Y-53032594D01*
X178268879Y-52983090D01*
X178327732Y-52968500D01*
X183195500Y-52968500D01*
X183263621Y-52988502D01*
G37*
%TD.AperFunction*%
%TA.AperFunction,Conductor*%
G36*
X165128621Y-79080302D02*
G01*
X165175114Y-79133958D01*
X165186500Y-79186300D01*
X165186501Y-79590500D01*
X165186501Y-79980400D01*
X165190762Y-80021468D01*
X165197093Y-80082498D01*
X165184227Y-80152319D01*
X165135656Y-80204101D01*
X165071766Y-80221500D01*
X164684000Y-80221500D01*
X164615879Y-80201498D01*
X164569386Y-80147842D01*
X164558000Y-80095500D01*
X164558000Y-79734615D01*
X164553525Y-79719376D01*
X164552135Y-79718171D01*
X164544452Y-79716500D01*
X163022000Y-79716500D01*
X162953879Y-79696498D01*
X162907386Y-79642842D01*
X162896000Y-79590500D01*
X162896000Y-79334500D01*
X162916002Y-79266379D01*
X162969658Y-79219886D01*
X163022000Y-79208500D01*
X164539884Y-79208500D01*
X164555123Y-79204025D01*
X164556328Y-79202635D01*
X164557999Y-79194952D01*
X164557999Y-79186300D01*
X164578001Y-79118179D01*
X164631657Y-79071686D01*
X164683999Y-79060300D01*
X165060500Y-79060300D01*
X165128621Y-79080302D01*
G37*
%TD.AperFunction*%
%TA.AperFunction,Conductor*%
G36*
X161525294Y-79721212D02*
G01*
X161525597Y-79721270D01*
X161525601Y-79721270D01*
X161533384Y-79722755D01*
X161589429Y-79719229D01*
X161597340Y-79718980D01*
X161613334Y-79718980D01*
X161613334Y-79720251D01*
X161677323Y-79734741D01*
X161727097Y-79785368D01*
X161742001Y-79844812D01*
X161742001Y-80095500D01*
X161721999Y-80163621D01*
X161668343Y-80210114D01*
X161616001Y-80221500D01*
X159368594Y-80221500D01*
X159300473Y-80201498D01*
X159253980Y-80147842D01*
X159243876Y-80077568D01*
X159273370Y-80012988D01*
X159279499Y-80006405D01*
X159530019Y-79755885D01*
X159592331Y-79721859D01*
X159619114Y-79718980D01*
X161501685Y-79718980D01*
X161525294Y-79721212D01*
G37*
%TD.AperFunction*%
%TA.AperFunction,Conductor*%
G36*
X152825479Y-52988502D02*
G01*
X152871972Y-53042158D01*
X152882076Y-53112432D01*
X152852582Y-53177012D01*
X152829811Y-53197585D01*
X152619977Y-53345059D01*
X152604892Y-53359077D01*
X152434691Y-53517238D01*
X152409378Y-53540760D01*
X152227287Y-53763232D01*
X152077073Y-54008358D01*
X151961517Y-54271602D01*
X151882756Y-54548094D01*
X151842249Y-54832716D01*
X151842227Y-54837005D01*
X151842226Y-54837012D01*
X151840766Y-55115797D01*
X151840743Y-55120203D01*
X151841302Y-55124447D01*
X151841302Y-55124451D01*
X151845171Y-55153840D01*
X151878268Y-55405234D01*
X151954129Y-55682536D01*
X151955813Y-55686484D01*
X152062083Y-55935628D01*
X152066923Y-55946976D01*
X152214561Y-56193661D01*
X152394313Y-56418028D01*
X152602851Y-56615923D01*
X152836317Y-56783686D01*
X152840112Y-56785695D01*
X152840113Y-56785696D01*
X152861869Y-56797215D01*
X153090392Y-56918212D01*
X153360373Y-57017011D01*
X153641264Y-57078255D01*
X153669841Y-57080504D01*
X153864282Y-57095807D01*
X153864291Y-57095807D01*
X153866739Y-57096000D01*
X154022271Y-57096000D01*
X154024407Y-57095854D01*
X154024418Y-57095854D01*
X154232548Y-57081665D01*
X154232554Y-57081664D01*
X154236825Y-57081373D01*
X154241020Y-57080504D01*
X154241022Y-57080504D01*
X154377847Y-57052169D01*
X154518342Y-57023074D01*
X154789343Y-56927107D01*
X155044812Y-56795250D01*
X155048313Y-56792789D01*
X155048317Y-56792787D01*
X155162418Y-56712595D01*
X155280023Y-56629941D01*
X155402665Y-56515975D01*
X155487479Y-56437161D01*
X155487481Y-56437158D01*
X155490622Y-56434240D01*
X155672713Y-56211768D01*
X155811441Y-55985385D01*
X159042000Y-55985385D01*
X159046475Y-56000624D01*
X159047865Y-56001829D01*
X159055548Y-56003500D01*
X160027885Y-56003500D01*
X160043124Y-55999025D01*
X160044329Y-55997635D01*
X160046000Y-55989952D01*
X160046000Y-55017616D01*
X160041525Y-55002377D01*
X160040135Y-55001172D01*
X160032452Y-54999501D01*
X159505331Y-54999501D01*
X159498510Y-54999871D01*
X159447648Y-55005395D01*
X159432396Y-55009021D01*
X159311946Y-55054176D01*
X159296351Y-55062714D01*
X159194276Y-55139215D01*
X159181715Y-55151776D01*
X159105214Y-55253851D01*
X159096676Y-55269446D01*
X159051522Y-55389894D01*
X159047895Y-55405149D01*
X159042369Y-55456014D01*
X159042000Y-55462828D01*
X159042000Y-55985385D01*
X155811441Y-55985385D01*
X155822927Y-55966642D01*
X155938483Y-55703398D01*
X156017244Y-55426906D01*
X156049736Y-55198599D01*
X156057146Y-55146536D01*
X156057146Y-55146534D01*
X156057751Y-55142284D01*
X156057845Y-55124451D01*
X156059235Y-54859083D01*
X156059235Y-54859076D01*
X156059257Y-54854797D01*
X156021732Y-54569766D01*
X155945871Y-54292464D01*
X155833077Y-54028024D01*
X155685439Y-53781339D01*
X155505687Y-53556972D01*
X155307514Y-53368913D01*
X155300258Y-53362027D01*
X155300255Y-53362025D01*
X155297149Y-53359077D01*
X155071348Y-53196822D01*
X155027700Y-53140828D01*
X155021254Y-53070124D01*
X155054057Y-53007160D01*
X155115693Y-52971926D01*
X155144874Y-52968500D01*
X164585500Y-52968500D01*
X164653621Y-52988502D01*
X164700114Y-53042158D01*
X164711500Y-53094500D01*
X164711501Y-55195400D01*
X164722474Y-55301167D01*
X164724658Y-55307713D01*
X164775754Y-55460864D01*
X164778450Y-55468946D01*
X164844263Y-55575299D01*
X164863099Y-55643750D01*
X164841937Y-55711519D01*
X164787496Y-55757090D01*
X164737117Y-55767600D01*
X162524368Y-55767600D01*
X162513185Y-55767073D01*
X162505692Y-55765398D01*
X162497766Y-55765647D01*
X162497765Y-55765647D01*
X162437602Y-55767538D01*
X162433644Y-55767600D01*
X162405744Y-55767600D01*
X162401754Y-55768104D01*
X162389920Y-55769036D01*
X162345711Y-55770426D01*
X162338095Y-55772639D01*
X162338093Y-55772639D01*
X162326252Y-55776079D01*
X162306893Y-55780088D01*
X162305583Y-55780254D01*
X162286803Y-55782626D01*
X162279437Y-55785542D01*
X162279431Y-55785544D01*
X162245698Y-55798900D01*
X162234468Y-55802745D01*
X162199617Y-55812870D01*
X162192007Y-55815081D01*
X162185184Y-55819116D01*
X162174566Y-55825395D01*
X162156813Y-55834092D01*
X162150606Y-55836550D01*
X162137983Y-55841548D01*
X162131568Y-55846209D01*
X162102212Y-55867537D01*
X162092295Y-55874051D01*
X162054238Y-55896558D01*
X162039917Y-55910879D01*
X162024884Y-55923719D01*
X162008493Y-55935628D01*
X161982836Y-55966642D01*
X161980302Y-55969705D01*
X161972312Y-55978484D01*
X161773095Y-56177701D01*
X161710783Y-56211727D01*
X161639968Y-56206662D01*
X161583132Y-56164115D01*
X161558321Y-56097595D01*
X161558000Y-56088606D01*
X161557999Y-55462831D01*
X161557629Y-55456010D01*
X161552105Y-55405148D01*
X161548479Y-55389896D01*
X161503324Y-55269446D01*
X161494786Y-55253851D01*
X161418285Y-55151776D01*
X161405724Y-55139215D01*
X161303649Y-55062714D01*
X161288054Y-55054176D01*
X161167606Y-55009022D01*
X161152351Y-55005395D01*
X161101486Y-54999869D01*
X161094672Y-54999500D01*
X160572115Y-54999500D01*
X160556876Y-55003975D01*
X160555671Y-55005365D01*
X160554000Y-55013048D01*
X160554000Y-56385500D01*
X160533998Y-56453621D01*
X160480342Y-56500114D01*
X160428000Y-56511500D01*
X159060116Y-56511500D01*
X159044877Y-56515975D01*
X159043672Y-56517365D01*
X159042001Y-56525048D01*
X159042001Y-57052169D01*
X159042371Y-57058990D01*
X159047895Y-57109852D01*
X159051521Y-57125104D01*
X159096676Y-57245554D01*
X159105214Y-57261149D01*
X159181715Y-57363224D01*
X159194276Y-57375785D01*
X159296351Y-57452286D01*
X159311946Y-57460824D01*
X159432394Y-57505978D01*
X159447649Y-57509605D01*
X159498514Y-57515131D01*
X159505328Y-57515500D01*
X159537138Y-57515500D01*
X159605259Y-57535502D01*
X159651752Y-57589158D01*
X159661856Y-57659432D01*
X159632362Y-57724012D01*
X159609410Y-57744712D01*
X159595259Y-57754621D01*
X159492473Y-57826592D01*
X159492470Y-57826594D01*
X159487962Y-57829751D01*
X159332251Y-57985462D01*
X159205944Y-58165847D01*
X159203621Y-58170829D01*
X159203618Y-58170834D01*
X159156415Y-58272062D01*
X159112880Y-58365424D01*
X159055885Y-58578129D01*
X159036693Y-58797500D01*
X159055885Y-59016871D01*
X159112880Y-59229576D01*
X159154823Y-59319524D01*
X159203618Y-59424166D01*
X159203621Y-59424171D01*
X159205944Y-59429153D01*
X159209100Y-59433660D01*
X159209101Y-59433662D01*
X159319177Y-59590866D01*
X159332251Y-59609538D01*
X159487962Y-59765249D01*
X159668346Y-59891556D01*
X159673328Y-59893879D01*
X159673333Y-59893882D01*
X159801359Y-59953581D01*
X159854644Y-60000498D01*
X159874105Y-60068776D01*
X159853563Y-60136736D01*
X159801359Y-60181971D01*
X159673583Y-60241554D01*
X159664093Y-60247034D01*
X159622851Y-60275911D01*
X159614477Y-60286387D01*
X159621545Y-60299834D01*
X160287189Y-60965479D01*
X160301132Y-60973092D01*
X160302966Y-60972961D01*
X160309580Y-60968710D01*
X160979180Y-60299109D01*
X160985607Y-60287339D01*
X160976313Y-60275325D01*
X160935912Y-60247036D01*
X160926416Y-60241553D01*
X160798641Y-60181971D01*
X160745356Y-60135054D01*
X160725895Y-60066776D01*
X160746437Y-59998816D01*
X160798641Y-59953581D01*
X160926667Y-59893882D01*
X160926672Y-59893879D01*
X160931654Y-59891556D01*
X161112038Y-59765249D01*
X161267749Y-59609538D01*
X161280824Y-59590866D01*
X161390899Y-59433662D01*
X161390900Y-59433660D01*
X161394056Y-59429153D01*
X161396379Y-59424171D01*
X161396382Y-59424166D01*
X161445177Y-59319524D01*
X161487120Y-59229576D01*
X161544115Y-59016871D01*
X161563307Y-58797500D01*
X161544115Y-58578129D01*
X161487120Y-58365424D01*
X161484862Y-58360581D01*
X161480359Y-58289777D01*
X161514169Y-58228435D01*
X161572844Y-58169760D01*
X161635156Y-58135734D01*
X161705971Y-58140799D01*
X161765152Y-58186585D01*
X161869088Y-58335022D01*
X161869093Y-58335028D01*
X161872251Y-58339538D01*
X162027962Y-58495249D01*
X162208346Y-58621556D01*
X162213328Y-58623879D01*
X162213333Y-58623882D01*
X162340768Y-58683305D01*
X162394053Y-58730222D01*
X162413514Y-58798499D01*
X162392972Y-58866459D01*
X162340768Y-58911695D01*
X162213334Y-58971118D01*
X162213329Y-58971121D01*
X162208347Y-58973444D01*
X162203840Y-58976600D01*
X162203838Y-58976601D01*
X162032473Y-59096592D01*
X162032470Y-59096594D01*
X162027962Y-59099751D01*
X161872251Y-59255462D01*
X161745944Y-59435847D01*
X161743621Y-59440829D01*
X161743618Y-59440834D01*
X161697234Y-59540306D01*
X161652880Y-59635424D01*
X161595885Y-59848129D01*
X161576693Y-60067500D01*
X161595885Y-60286871D01*
X161652880Y-60499576D01*
X161694488Y-60588805D01*
X161743618Y-60694166D01*
X161743621Y-60694171D01*
X161745944Y-60699153D01*
X161749100Y-60703660D01*
X161749101Y-60703662D01*
X161793207Y-60766651D01*
X161872251Y-60879538D01*
X162027962Y-61035249D01*
X162032471Y-61038406D01*
X162032473Y-61038408D01*
X162049517Y-61050342D01*
X162208346Y-61161556D01*
X162213328Y-61163879D01*
X162213333Y-61163882D01*
X162340768Y-61223305D01*
X162394053Y-61270222D01*
X162413514Y-61338499D01*
X162392972Y-61406459D01*
X162340768Y-61451695D01*
X162213334Y-61511118D01*
X162213329Y-61511121D01*
X162208347Y-61513444D01*
X162203840Y-61516600D01*
X162203838Y-61516601D01*
X162032473Y-61636592D01*
X162032470Y-61636594D01*
X162027962Y-61639751D01*
X161872251Y-61795462D01*
X161745944Y-61975847D01*
X161743621Y-61980829D01*
X161743618Y-61980834D01*
X161723906Y-62023107D01*
X161652880Y-62175424D01*
X161595885Y-62388129D01*
X161576693Y-62607500D01*
X161595885Y-62826871D01*
X161652880Y-63039576D01*
X161671190Y-63078842D01*
X161743618Y-63234166D01*
X161743621Y-63234171D01*
X161745944Y-63239153D01*
X161749100Y-63243660D01*
X161749101Y-63243662D01*
X161868580Y-63414295D01*
X161872251Y-63419538D01*
X162027962Y-63575249D01*
X162032471Y-63578406D01*
X162032473Y-63578408D01*
X162076833Y-63609469D01*
X162208346Y-63701556D01*
X162213331Y-63703880D01*
X162213337Y-63703884D01*
X162327508Y-63757122D01*
X162380794Y-63804039D01*
X162400255Y-63872316D01*
X162379713Y-63940276D01*
X162363354Y-63960412D01*
X162340184Y-63983582D01*
X162304339Y-64008682D01*
X162213334Y-64051118D01*
X162213329Y-64051121D01*
X162208347Y-64053444D01*
X162203840Y-64056600D01*
X162203838Y-64056601D01*
X162032473Y-64176592D01*
X162032470Y-64176594D01*
X162027962Y-64179751D01*
X161872251Y-64335462D01*
X161869094Y-64339970D01*
X161869092Y-64339973D01*
X161771143Y-64479859D01*
X161745944Y-64515847D01*
X161743621Y-64520829D01*
X161743618Y-64520834D01*
X161711923Y-64588805D01*
X161652880Y-64715424D01*
X161595885Y-64928129D01*
X161576693Y-65147500D01*
X161595885Y-65366871D01*
X161652880Y-65579576D01*
X161672475Y-65621598D01*
X161743618Y-65774166D01*
X161743621Y-65774171D01*
X161745944Y-65779153D01*
X161749100Y-65783660D01*
X161749101Y-65783662D01*
X161782052Y-65830720D01*
X161872251Y-65959538D01*
X162027962Y-66115249D01*
X162208346Y-66241556D01*
X162407924Y-66334620D01*
X162620629Y-66391615D01*
X162840000Y-66410807D01*
X163059371Y-66391615D01*
X163272076Y-66334620D01*
X163471654Y-66241556D01*
X163652038Y-66115249D01*
X163807749Y-65959538D01*
X163897949Y-65830720D01*
X163930899Y-65783662D01*
X163930900Y-65783660D01*
X163934056Y-65779153D01*
X163936379Y-65774171D01*
X163936382Y-65774166D01*
X164007525Y-65621598D01*
X164027120Y-65579576D01*
X164084115Y-65366871D01*
X164103307Y-65147500D01*
X164102722Y-65140807D01*
X164102429Y-65137462D01*
X164116415Y-65067857D01*
X164138854Y-65037381D01*
X164521905Y-64654330D01*
X164584217Y-64620304D01*
X164655032Y-64625369D01*
X164711868Y-64667916D01*
X164736679Y-64734436D01*
X164737000Y-64743425D01*
X164737000Y-65167134D01*
X164743755Y-65229316D01*
X164794885Y-65365705D01*
X164882239Y-65482261D01*
X164998795Y-65569615D01*
X165135184Y-65620745D01*
X165197366Y-65627500D01*
X166751634Y-65627500D01*
X166813816Y-65620745D01*
X166950205Y-65569615D01*
X167066761Y-65482261D01*
X167109614Y-65425083D01*
X170383972Y-65425083D01*
X170393268Y-65437098D01*
X170429129Y-65462208D01*
X170438624Y-65467691D01*
X170624823Y-65554517D01*
X170635115Y-65558263D01*
X170833562Y-65611436D01*
X170844357Y-65613339D01*
X171049025Y-65631246D01*
X171059975Y-65631246D01*
X171264643Y-65613339D01*
X171275438Y-65611436D01*
X171473885Y-65558263D01*
X171484177Y-65554517D01*
X171670376Y-65467691D01*
X171679871Y-65462208D01*
X171716569Y-65436512D01*
X171724945Y-65426033D01*
X171717877Y-65412587D01*
X171067312Y-64762022D01*
X171053368Y-64754408D01*
X171051535Y-64754539D01*
X171044920Y-64758790D01*
X170390402Y-65413308D01*
X170383972Y-65425083D01*
X167109614Y-65425083D01*
X167154115Y-65365705D01*
X167205245Y-65229316D01*
X167212000Y-65167134D01*
X167212000Y-63612866D01*
X167205245Y-63550684D01*
X167154115Y-63414295D01*
X167066761Y-63297739D01*
X166950205Y-63210385D01*
X166813816Y-63159255D01*
X166751634Y-63152500D01*
X166327924Y-63152500D01*
X166259803Y-63132498D01*
X166213310Y-63078842D01*
X166203206Y-63008568D01*
X166232700Y-62943988D01*
X166238829Y-62937405D01*
X166615829Y-62560405D01*
X166678141Y-62526379D01*
X166704924Y-62523500D01*
X168515074Y-62523500D01*
X168583195Y-62543502D01*
X168604169Y-62560404D01*
X169403149Y-63359383D01*
X169412251Y-63369527D01*
X169435968Y-63399025D01*
X169464186Y-63422703D01*
X169474421Y-63431291D01*
X169478069Y-63434472D01*
X169479881Y-63436115D01*
X169482075Y-63438309D01*
X169515349Y-63465642D01*
X169516147Y-63466304D01*
X169587474Y-63526154D01*
X169592144Y-63528722D01*
X169596261Y-63532103D01*
X169678120Y-63575995D01*
X169679280Y-63576624D01*
X169755389Y-63618466D01*
X169755394Y-63618468D01*
X169760787Y-63621433D01*
X169765865Y-63623044D01*
X169770563Y-63625563D01*
X169859496Y-63652753D01*
X169860727Y-63653136D01*
X169874289Y-63657438D01*
X169933173Y-63697101D01*
X169961266Y-63762303D01*
X169950386Y-63830790D01*
X169889983Y-63960323D01*
X169886237Y-63970615D01*
X169833064Y-64169062D01*
X169831161Y-64179857D01*
X169813254Y-64384525D01*
X169813254Y-64395475D01*
X169831161Y-64600143D01*
X169833064Y-64610938D01*
X169886237Y-64809385D01*
X169889983Y-64819677D01*
X169976812Y-65005881D01*
X169982290Y-65015367D01*
X170007988Y-65052069D01*
X170018466Y-65060444D01*
X170031914Y-65053376D01*
X170965405Y-64119885D01*
X171027717Y-64085859D01*
X171098532Y-64090924D01*
X171143595Y-64119885D01*
X172077808Y-65054098D01*
X172089582Y-65060528D01*
X172101598Y-65051231D01*
X172126710Y-65015367D01*
X172132188Y-65005881D01*
X172219017Y-64819677D01*
X172222763Y-64809385D01*
X172275936Y-64610938D01*
X172277839Y-64600143D01*
X172290799Y-64452018D01*
X172316663Y-64385900D01*
X172374166Y-64344260D01*
X172445054Y-64340320D01*
X172505427Y-64373916D01*
X173089101Y-64957743D01*
X173114420Y-64994076D01*
X173185898Y-65149124D01*
X173303479Y-65315497D01*
X173355019Y-65365705D01*
X173432137Y-65440830D01*
X173449410Y-65457657D01*
X173454210Y-65460864D01*
X173491572Y-65485829D01*
X173537100Y-65540306D01*
X173545947Y-65610749D01*
X173515306Y-65674793D01*
X173497770Y-65690601D01*
X173495649Y-65691863D01*
X173342478Y-65826190D01*
X173338911Y-65830715D01*
X173338906Y-65830720D01*
X173252331Y-65940540D01*
X173216351Y-65986181D01*
X173213662Y-65991292D01*
X173213660Y-65991295D01*
X173206964Y-66004022D01*
X173121492Y-66166478D01*
X173061078Y-66361043D01*
X173037132Y-66563359D01*
X173050457Y-66766651D01*
X173100605Y-66964110D01*
X173185898Y-67149124D01*
X173303479Y-67315497D01*
X173449410Y-67457657D01*
X173454210Y-67460864D01*
X173491572Y-67485829D01*
X173537100Y-67540306D01*
X173545947Y-67610749D01*
X173515306Y-67674793D01*
X173497770Y-67690601D01*
X173495649Y-67691863D01*
X173342478Y-67826190D01*
X173289127Y-67893866D01*
X173257877Y-67933506D01*
X173199996Y-67974619D01*
X173158927Y-67981500D01*
X172394959Y-67981500D01*
X172326838Y-67961498D01*
X172280345Y-67907842D01*
X172270241Y-67837568D01*
X172273252Y-67822889D01*
X172276431Y-67811025D01*
X172276431Y-67811024D01*
X172277855Y-67805710D01*
X172296727Y-67590000D01*
X172277855Y-67374290D01*
X172221812Y-67165133D01*
X172205089Y-67129270D01*
X172132626Y-66973874D01*
X172132623Y-66973870D01*
X172130300Y-66968887D01*
X172123034Y-66958510D01*
X172009260Y-66796023D01*
X172009258Y-66796020D01*
X172006101Y-66791512D01*
X171852988Y-66638399D01*
X171848480Y-66635242D01*
X171848477Y-66635240D01*
X171745820Y-66563359D01*
X171675614Y-66514200D01*
X171670632Y-66511877D01*
X171670627Y-66511874D01*
X171484349Y-66425011D01*
X171484347Y-66425010D01*
X171479367Y-66422688D01*
X171474059Y-66421266D01*
X171474057Y-66421265D01*
X171275525Y-66368069D01*
X171275523Y-66368069D01*
X171270210Y-66366645D01*
X171054500Y-66347773D01*
X170838790Y-66366645D01*
X170833477Y-66368069D01*
X170833475Y-66368069D01*
X170634943Y-66421265D01*
X170634941Y-66421266D01*
X170629633Y-66422688D01*
X170624653Y-66425010D01*
X170624651Y-66425011D01*
X170438374Y-66511874D01*
X170438370Y-66511877D01*
X170433387Y-66514200D01*
X170428880Y-66517356D01*
X170428878Y-66517357D01*
X170260523Y-66635240D01*
X170260520Y-66635242D01*
X170256012Y-66638399D01*
X170102899Y-66791512D01*
X170099742Y-66796020D01*
X170099740Y-66796023D01*
X169985966Y-66958510D01*
X169978700Y-66968887D01*
X169976377Y-66973870D01*
X169976374Y-66973874D01*
X169903911Y-67129270D01*
X169887188Y-67165133D01*
X169831145Y-67374290D01*
X169812273Y-67590000D01*
X169831145Y-67805710D01*
X169832569Y-67811024D01*
X169832569Y-67811025D01*
X169835748Y-67822889D01*
X169834058Y-67893866D01*
X169794263Y-67952662D01*
X169728999Y-67980609D01*
X169714041Y-67981500D01*
X167314959Y-67981500D01*
X167246838Y-67961498D01*
X167200345Y-67907842D01*
X167190241Y-67837568D01*
X167193252Y-67822889D01*
X167196431Y-67811025D01*
X167196431Y-67811024D01*
X167197855Y-67805710D01*
X167216727Y-67590000D01*
X167197855Y-67374290D01*
X167141812Y-67165133D01*
X167125089Y-67129270D01*
X167052626Y-66973874D01*
X167052623Y-66973870D01*
X167050300Y-66968887D01*
X167043034Y-66958510D01*
X166929260Y-66796023D01*
X166929258Y-66796020D01*
X166926101Y-66791512D01*
X166772988Y-66638399D01*
X166768480Y-66635242D01*
X166768477Y-66635240D01*
X166665820Y-66563359D01*
X166595614Y-66514200D01*
X166590632Y-66511877D01*
X166590627Y-66511874D01*
X166404349Y-66425011D01*
X166404347Y-66425010D01*
X166399367Y-66422688D01*
X166394059Y-66421266D01*
X166394057Y-66421265D01*
X166195525Y-66368069D01*
X166195523Y-66368069D01*
X166190210Y-66366645D01*
X165974500Y-66347773D01*
X165758790Y-66366645D01*
X165753477Y-66368069D01*
X165753475Y-66368069D01*
X165554943Y-66421265D01*
X165554941Y-66421266D01*
X165549633Y-66422688D01*
X165544653Y-66425010D01*
X165544651Y-66425011D01*
X165358374Y-66511874D01*
X165358370Y-66511877D01*
X165353387Y-66514200D01*
X165348880Y-66517356D01*
X165348878Y-66517357D01*
X165180523Y-66635240D01*
X165180520Y-66635242D01*
X165176012Y-66638399D01*
X165022899Y-66791512D01*
X165019741Y-66796022D01*
X165019736Y-66796028D01*
X164944995Y-66902770D01*
X164889538Y-66947099D01*
X164841782Y-66956500D01*
X162268767Y-66956500D01*
X162257584Y-66955973D01*
X162250091Y-66954298D01*
X162242165Y-66954547D01*
X162242164Y-66954547D01*
X162182014Y-66956438D01*
X162178055Y-66956500D01*
X162150144Y-66956500D01*
X162146210Y-66956997D01*
X162146209Y-66956997D01*
X162146144Y-66957005D01*
X162134307Y-66957938D01*
X162102049Y-66958952D01*
X162098030Y-66959078D01*
X162090111Y-66959327D01*
X162070657Y-66964979D01*
X162051300Y-66968987D01*
X162039070Y-66970532D01*
X162039069Y-66970532D01*
X162031203Y-66971526D01*
X162023832Y-66974445D01*
X162023830Y-66974445D01*
X161990088Y-66987804D01*
X161978858Y-66991649D01*
X161944017Y-67001771D01*
X161944016Y-67001771D01*
X161936407Y-67003982D01*
X161929588Y-67008015D01*
X161929583Y-67008017D01*
X161918972Y-67014293D01*
X161901224Y-67022988D01*
X161882383Y-67030448D01*
X161875967Y-67035110D01*
X161875966Y-67035110D01*
X161846613Y-67056436D01*
X161836693Y-67062952D01*
X161805465Y-67081420D01*
X161805462Y-67081422D01*
X161798638Y-67085458D01*
X161784317Y-67099779D01*
X161769284Y-67112619D01*
X161752893Y-67124528D01*
X161732545Y-67149124D01*
X161724702Y-67158605D01*
X161716712Y-67167384D01*
X157147747Y-71736348D01*
X157139461Y-71743888D01*
X157132982Y-71748000D01*
X157112822Y-71769468D01*
X157051612Y-71805434D01*
X156985682Y-71801703D01*
X156985291Y-71803349D01*
X156962351Y-71797895D01*
X156911486Y-71792369D01*
X156904672Y-71792000D01*
X156811493Y-71792000D01*
X156743372Y-71771998D01*
X156696879Y-71718342D01*
X156685689Y-71658966D01*
X156685992Y-71653543D01*
X156687108Y-71646802D01*
X156677630Y-71465953D01*
X156661758Y-71408328D01*
X156631352Y-71297941D01*
X156629539Y-71291359D01*
X156545078Y-71131164D01*
X156540673Y-71125951D01*
X156540670Y-71125947D01*
X156432594Y-70998057D01*
X156432590Y-70998053D01*
X156428187Y-70992843D01*
X156418812Y-70985675D01*
X156289743Y-70886994D01*
X156289739Y-70886991D01*
X156284322Y-70882850D01*
X156140962Y-70816000D01*
X156126369Y-70809195D01*
X156126366Y-70809194D01*
X156120192Y-70806315D01*
X156113544Y-70804829D01*
X156113541Y-70804828D01*
X155948494Y-70767936D01*
X155948495Y-70767936D01*
X155943457Y-70766810D01*
X155937912Y-70766500D01*
X155840629Y-70766500D01*
X155772508Y-70746498D01*
X155725522Y-70691749D01*
X155693368Y-70619529D01*
X155686802Y-70608157D01*
X155582376Y-70464426D01*
X155573585Y-70454663D01*
X155441558Y-70335786D01*
X155430927Y-70328062D01*
X155277074Y-70239235D01*
X155265066Y-70233889D01*
X155096102Y-70178989D01*
X155083261Y-70176259D01*
X154950862Y-70162344D01*
X154944302Y-70162000D01*
X154872115Y-70162000D01*
X154856876Y-70166475D01*
X154855671Y-70167865D01*
X154854000Y-70175548D01*
X154854000Y-71676675D01*
X154861530Y-71702320D01*
X155004971Y-71845761D01*
X155038997Y-71908073D01*
X155033932Y-71978888D01*
X154991385Y-72035724D01*
X154924865Y-72060535D01*
X154864627Y-72049963D01*
X154765015Y-72005613D01*
X154765014Y-72005613D01*
X154758984Y-72002928D01*
X154661528Y-71982213D01*
X154594061Y-71967872D01*
X154594057Y-71967872D01*
X154587604Y-71966500D01*
X154472000Y-71966500D01*
X154403879Y-71946498D01*
X154357386Y-71892842D01*
X154346000Y-71840500D01*
X154346000Y-71342115D01*
X154341525Y-71326876D01*
X154340135Y-71325671D01*
X154332452Y-71324000D01*
X153443818Y-71324000D01*
X153430287Y-71327973D01*
X153428778Y-71338468D01*
X153430310Y-71345675D01*
X153434367Y-71358161D01*
X153506632Y-71520471D01*
X153513198Y-71531843D01*
X153617624Y-71675574D01*
X153626415Y-71685337D01*
X153758442Y-71804214D01*
X153769073Y-71811938D01*
X153922926Y-71900765D01*
X153934936Y-71906112D01*
X153960500Y-71914418D01*
X154019106Y-71954490D01*
X154046744Y-72019887D01*
X154034638Y-72089844D01*
X153995626Y-72136187D01*
X153939208Y-72177177D01*
X153934795Y-72182079D01*
X153934793Y-72182080D01*
X153843956Y-72282964D01*
X153821970Y-72307382D01*
X153818670Y-72313098D01*
X153818667Y-72313102D01*
X153816330Y-72317150D01*
X153734366Y-72459118D01*
X153680223Y-72625751D01*
X153679533Y-72632317D01*
X153679532Y-72632321D01*
X153664528Y-72775079D01*
X153661909Y-72800000D01*
X153662599Y-72806565D01*
X153678074Y-72953799D01*
X153680223Y-72974249D01*
X153701531Y-73039827D01*
X153722851Y-73105442D01*
X153734366Y-73140882D01*
X153737665Y-73146597D01*
X153738625Y-73148752D01*
X153748059Y-73219119D01*
X153738625Y-73251248D01*
X153737665Y-73253403D01*
X153734366Y-73259118D01*
X153732328Y-73265391D01*
X153732326Y-73265395D01*
X153714739Y-73319524D01*
X153680223Y-73425751D01*
X153679533Y-73432317D01*
X153679532Y-73432321D01*
X153668437Y-73537885D01*
X153661909Y-73600000D01*
X153662599Y-73606565D01*
X153677969Y-73752802D01*
X153680223Y-73774249D01*
X153688361Y-73799295D01*
X153723442Y-73907261D01*
X153734366Y-73940882D01*
X153737665Y-73946597D01*
X153738625Y-73948752D01*
X153748059Y-74019119D01*
X153738625Y-74051248D01*
X153737665Y-74053403D01*
X153734366Y-74059118D01*
X153732328Y-74065391D01*
X153732326Y-74065395D01*
X153716845Y-74113042D01*
X153680223Y-74225751D01*
X153679533Y-74232317D01*
X153679532Y-74232321D01*
X153665599Y-74364890D01*
X153661909Y-74400000D01*
X153662599Y-74406565D01*
X153665169Y-74431013D01*
X153680223Y-74574249D01*
X153734366Y-74740882D01*
X153737669Y-74746603D01*
X153818667Y-74886898D01*
X153818670Y-74886902D01*
X153821970Y-74892618D01*
X153826388Y-74897525D01*
X153826389Y-74897526D01*
X153930026Y-75012625D01*
X153939208Y-75022823D01*
X153977085Y-75050342D01*
X154042768Y-75098064D01*
X154086122Y-75154286D01*
X154092197Y-75225023D01*
X154059065Y-75287814D01*
X154042768Y-75301936D01*
X154010173Y-75325618D01*
X153939208Y-75377177D01*
X153934795Y-75382079D01*
X153934793Y-75382080D01*
X153840078Y-75487271D01*
X153821970Y-75507382D01*
X153818670Y-75513098D01*
X153818667Y-75513102D01*
X153742132Y-75645667D01*
X153734366Y-75659118D01*
X153680223Y-75825751D01*
X153679533Y-75832317D01*
X153679532Y-75832321D01*
X153671262Y-75911006D01*
X153661909Y-76000000D01*
X153662517Y-76005781D01*
X153642597Y-76073621D01*
X153588941Y-76120114D01*
X153536599Y-76131500D01*
X153474513Y-76131500D01*
X153468061Y-76132872D01*
X153468056Y-76132872D01*
X153381112Y-76151353D01*
X153287712Y-76171206D01*
X153281682Y-76173891D01*
X153281681Y-76173891D01*
X153119278Y-76246197D01*
X153119276Y-76246198D01*
X153113248Y-76248882D01*
X152958747Y-76361134D01*
X152830960Y-76503056D01*
X152735473Y-76668444D01*
X152676458Y-76850072D01*
X152675768Y-76856633D01*
X152675768Y-76856635D01*
X152666544Y-76944398D01*
X152656496Y-77040000D01*
X152657186Y-77046565D01*
X152663696Y-77108500D01*
X152676458Y-77229928D01*
X152735473Y-77411556D01*
X152738776Y-77417278D01*
X152738777Y-77417279D01*
X152759764Y-77453630D01*
X152830960Y-77576944D01*
X152904137Y-77658215D01*
X152934853Y-77722221D01*
X152936500Y-77742524D01*
X152936500Y-78301233D01*
X152935973Y-78312416D01*
X152934298Y-78319909D01*
X152934547Y-78327835D01*
X152934547Y-78327836D01*
X152936438Y-78387986D01*
X152936500Y-78391945D01*
X152936500Y-78419856D01*
X152936997Y-78423790D01*
X152936997Y-78423791D01*
X152937005Y-78423856D01*
X152937938Y-78435693D01*
X152939327Y-78479889D01*
X152940772Y-78484863D01*
X152941980Y-78500205D01*
X152941980Y-79551339D01*
X152941453Y-79562522D01*
X152939778Y-79570015D01*
X152940027Y-79577941D01*
X152940027Y-79577942D01*
X152941918Y-79638092D01*
X152941980Y-79642051D01*
X152941980Y-79669962D01*
X152942477Y-79673896D01*
X152942477Y-79673897D01*
X152942485Y-79673962D01*
X152943418Y-79685799D01*
X152944807Y-79729995D01*
X152950458Y-79749445D01*
X152954467Y-79768806D01*
X152957006Y-79788903D01*
X152959925Y-79796274D01*
X152959925Y-79796276D01*
X152973284Y-79830018D01*
X152977129Y-79841248D01*
X152987251Y-79876089D01*
X152989462Y-79883699D01*
X152993495Y-79890518D01*
X152993497Y-79890523D01*
X152999773Y-79901134D01*
X153008468Y-79918882D01*
X153015928Y-79937723D01*
X153020590Y-79944139D01*
X153020590Y-79944140D01*
X153041916Y-79973493D01*
X153048432Y-79983413D01*
X153062030Y-80006405D01*
X153070938Y-80021468D01*
X153070994Y-80021524D01*
X153095665Y-80084359D01*
X153081764Y-80153982D01*
X153032429Y-80205037D01*
X152970158Y-80221500D01*
X149901315Y-80221500D01*
X149833194Y-80201498D01*
X149786701Y-80147842D01*
X149776597Y-80077568D01*
X149786208Y-80044251D01*
X149815633Y-79978161D01*
X149819690Y-79965675D01*
X149820530Y-79961722D01*
X149819457Y-79947659D01*
X149809503Y-79944000D01*
X148522000Y-79944000D01*
X148453879Y-79923998D01*
X148407386Y-79870342D01*
X148396000Y-79818000D01*
X148396000Y-79417885D01*
X148904000Y-79417885D01*
X148908475Y-79433124D01*
X148909865Y-79434329D01*
X148917548Y-79436000D01*
X149806182Y-79436000D01*
X149819713Y-79432027D01*
X149821222Y-79421532D01*
X149819690Y-79414325D01*
X149815633Y-79401839D01*
X149743368Y-79239529D01*
X149736802Y-79228157D01*
X149632376Y-79084426D01*
X149623585Y-79074663D01*
X149491558Y-78955786D01*
X149480927Y-78948062D01*
X149327074Y-78859235D01*
X149315066Y-78853889D01*
X149146102Y-78798989D01*
X149133261Y-78796259D01*
X149000862Y-78782344D01*
X148994302Y-78782000D01*
X148922115Y-78782000D01*
X148906876Y-78786475D01*
X148905671Y-78787865D01*
X148904000Y-78795548D01*
X148904000Y-79417885D01*
X148396000Y-79417885D01*
X148396000Y-78800115D01*
X148391525Y-78784876D01*
X148390135Y-78783671D01*
X148382452Y-78782000D01*
X148305698Y-78782000D01*
X148299138Y-78782344D01*
X148166739Y-78796259D01*
X148153898Y-78798989D01*
X147984934Y-78853889D01*
X147972926Y-78859235D01*
X147947500Y-78873915D01*
X147878505Y-78890653D01*
X147811413Y-78867433D01*
X147767526Y-78811626D01*
X147758500Y-78764796D01*
X147758500Y-71635204D01*
X147778502Y-71567083D01*
X147832158Y-71520590D01*
X147902432Y-71510486D01*
X147947500Y-71526085D01*
X147972926Y-71540765D01*
X147984934Y-71546111D01*
X148153898Y-71601011D01*
X148166739Y-71603741D01*
X148299138Y-71617656D01*
X148305698Y-71618000D01*
X148377885Y-71618000D01*
X148393124Y-71613525D01*
X148394329Y-71612135D01*
X148396000Y-71604452D01*
X148396000Y-71599885D01*
X148904000Y-71599885D01*
X148908475Y-71615124D01*
X148909865Y-71616329D01*
X148917548Y-71618000D01*
X148994302Y-71618000D01*
X149000862Y-71617656D01*
X149133261Y-71603741D01*
X149146102Y-71601011D01*
X149315066Y-71546111D01*
X149327074Y-71540765D01*
X149480927Y-71451938D01*
X149491558Y-71444214D01*
X149623585Y-71325337D01*
X149632376Y-71315574D01*
X149736802Y-71171843D01*
X149743368Y-71160471D01*
X149815633Y-70998161D01*
X149819690Y-70985675D01*
X149820530Y-70981722D01*
X149819457Y-70967659D01*
X149809503Y-70964000D01*
X148922115Y-70964000D01*
X148906876Y-70968475D01*
X148905671Y-70969865D01*
X148904000Y-70977548D01*
X148904000Y-71599885D01*
X148396000Y-71599885D01*
X148396000Y-70798278D01*
X153429470Y-70798278D01*
X153430543Y-70812341D01*
X153440497Y-70816000D01*
X154327885Y-70816000D01*
X154343124Y-70811525D01*
X154344329Y-70810135D01*
X154346000Y-70802452D01*
X154346000Y-70180115D01*
X154341525Y-70164876D01*
X154340135Y-70163671D01*
X154332452Y-70162000D01*
X154255698Y-70162000D01*
X154249138Y-70162344D01*
X154116739Y-70176259D01*
X154103898Y-70178989D01*
X153934934Y-70233889D01*
X153922926Y-70239235D01*
X153769073Y-70328062D01*
X153758442Y-70335786D01*
X153626415Y-70454663D01*
X153617624Y-70464426D01*
X153513198Y-70608157D01*
X153506632Y-70619529D01*
X153434367Y-70781839D01*
X153430310Y-70794325D01*
X153429470Y-70798278D01*
X148396000Y-70798278D01*
X148396000Y-70437885D01*
X148904000Y-70437885D01*
X148908475Y-70453124D01*
X148909865Y-70454329D01*
X148917548Y-70456000D01*
X149806182Y-70456000D01*
X149819713Y-70452027D01*
X149821222Y-70441532D01*
X149819690Y-70434325D01*
X149815633Y-70421839D01*
X149743368Y-70259529D01*
X149736802Y-70248157D01*
X149632376Y-70104426D01*
X149623585Y-70094663D01*
X149491558Y-69975786D01*
X149480927Y-69968062D01*
X149327074Y-69879235D01*
X149315066Y-69873889D01*
X149146102Y-69818989D01*
X149133261Y-69816259D01*
X149000862Y-69802344D01*
X148994302Y-69802000D01*
X148922115Y-69802000D01*
X148906876Y-69806475D01*
X148905671Y-69807865D01*
X148904000Y-69815548D01*
X148904000Y-70437885D01*
X148396000Y-70437885D01*
X148396000Y-69820115D01*
X148391525Y-69804876D01*
X148390135Y-69803671D01*
X148382452Y-69802000D01*
X148305698Y-69802000D01*
X148299138Y-69802344D01*
X148166739Y-69816259D01*
X148153898Y-69818989D01*
X147984934Y-69873889D01*
X147972926Y-69879235D01*
X147947500Y-69893915D01*
X147878505Y-69910653D01*
X147811413Y-69887433D01*
X147767526Y-69831626D01*
X147758500Y-69784796D01*
X147758500Y-66550203D01*
X151840743Y-66550203D01*
X151878268Y-66835234D01*
X151954129Y-67112536D01*
X151955813Y-67116484D01*
X152038689Y-67310782D01*
X152066923Y-67376976D01*
X152115210Y-67457657D01*
X152194934Y-67590866D01*
X152214561Y-67623661D01*
X152394313Y-67848028D01*
X152602851Y-68045923D01*
X152836317Y-68213686D01*
X152840112Y-68215695D01*
X152840113Y-68215696D01*
X152860290Y-68226379D01*
X153090392Y-68348212D01*
X153360373Y-68447011D01*
X153641264Y-68508255D01*
X153669841Y-68510504D01*
X153864282Y-68525807D01*
X153864291Y-68525807D01*
X153866739Y-68526000D01*
X154022271Y-68526000D01*
X154024407Y-68525854D01*
X154024418Y-68525854D01*
X154232548Y-68511665D01*
X154232554Y-68511664D01*
X154236825Y-68511373D01*
X154241020Y-68510504D01*
X154241022Y-68510504D01*
X154377584Y-68482223D01*
X154518342Y-68453074D01*
X154789343Y-68357107D01*
X155044812Y-68225250D01*
X155048313Y-68222789D01*
X155048317Y-68222787D01*
X155162417Y-68142596D01*
X155280023Y-68059941D01*
X155490622Y-67864240D01*
X155672713Y-67641768D01*
X155822927Y-67396642D01*
X155856780Y-67319524D01*
X155936757Y-67137330D01*
X155938483Y-67133398D01*
X155969933Y-67022994D01*
X156016068Y-66861034D01*
X156017244Y-66856906D01*
X156057751Y-66572284D01*
X156057845Y-66554451D01*
X156059235Y-66289083D01*
X156059235Y-66289076D01*
X156059257Y-66284797D01*
X156044407Y-66171996D01*
X156036936Y-66115249D01*
X156021732Y-65999766D01*
X155945871Y-65722464D01*
X155882658Y-65574265D01*
X155834763Y-65461976D01*
X155834761Y-65461972D01*
X155833077Y-65458024D01*
X155747776Y-65315497D01*
X155687643Y-65215021D01*
X155687640Y-65215017D01*
X155685439Y-65211339D01*
X155505687Y-64986972D01*
X155356342Y-64845249D01*
X155300258Y-64792027D01*
X155300255Y-64792025D01*
X155297149Y-64789077D01*
X155063683Y-64621314D01*
X155041843Y-64609750D01*
X155002284Y-64588805D01*
X154809608Y-64486788D01*
X154674618Y-64437389D01*
X154543658Y-64389464D01*
X154543656Y-64389463D01*
X154539627Y-64387989D01*
X154258736Y-64326745D01*
X154227685Y-64324301D01*
X154035718Y-64309193D01*
X154035709Y-64309193D01*
X154033261Y-64309000D01*
X153877729Y-64309000D01*
X153875593Y-64309146D01*
X153875582Y-64309146D01*
X153667452Y-64323335D01*
X153667446Y-64323336D01*
X153663175Y-64323627D01*
X153658980Y-64324496D01*
X153658978Y-64324496D01*
X153582567Y-64340320D01*
X153381658Y-64381926D01*
X153110657Y-64477893D01*
X152855188Y-64609750D01*
X152851687Y-64612211D01*
X152851683Y-64612213D01*
X152841594Y-64619304D01*
X152619977Y-64775059D01*
X152605656Y-64788367D01*
X152460969Y-64922819D01*
X152409378Y-64970760D01*
X152227287Y-65193232D01*
X152077073Y-65438358D01*
X152075347Y-65442291D01*
X152075346Y-65442292D01*
X152019455Y-65569615D01*
X151961517Y-65701602D01*
X151960342Y-65705729D01*
X151960341Y-65705730D01*
X151927111Y-65822385D01*
X151882756Y-65978094D01*
X151855160Y-66171996D01*
X151844930Y-66243881D01*
X151842249Y-66262716D01*
X151842227Y-66267005D01*
X151842226Y-66267012D01*
X151840915Y-66517357D01*
X151840743Y-66550203D01*
X147758500Y-66550203D01*
X147758500Y-63877500D01*
X159036693Y-63877500D01*
X159055885Y-64096871D01*
X159112880Y-64309576D01*
X159150132Y-64389464D01*
X159203618Y-64504166D01*
X159203621Y-64504171D01*
X159205944Y-64509153D01*
X159209100Y-64513660D01*
X159209101Y-64513662D01*
X159283773Y-64620304D01*
X159332251Y-64689538D01*
X159487962Y-64845249D01*
X159668346Y-64971556D01*
X159867924Y-65064620D01*
X160080629Y-65121615D01*
X160300000Y-65140807D01*
X160519371Y-65121615D01*
X160732076Y-65064620D01*
X160931654Y-64971556D01*
X161112038Y-64845249D01*
X161267749Y-64689538D01*
X161316228Y-64620304D01*
X161390899Y-64513662D01*
X161390900Y-64513660D01*
X161394056Y-64509153D01*
X161396379Y-64504171D01*
X161396382Y-64504166D01*
X161449868Y-64389464D01*
X161487120Y-64309576D01*
X161544115Y-64096871D01*
X161563307Y-63877500D01*
X161544115Y-63658129D01*
X161487120Y-63445424D01*
X161418254Y-63297739D01*
X161396382Y-63250834D01*
X161396379Y-63250829D01*
X161394056Y-63245847D01*
X161333424Y-63159255D01*
X161270908Y-63069973D01*
X161270906Y-63069970D01*
X161267749Y-63065462D01*
X161112038Y-62909751D01*
X160931654Y-62783444D01*
X160926672Y-62781121D01*
X160926667Y-62781118D01*
X160798641Y-62721419D01*
X160745356Y-62674502D01*
X160725895Y-62606224D01*
X160746437Y-62538264D01*
X160798641Y-62493029D01*
X160926416Y-62433447D01*
X160935912Y-62427964D01*
X160977148Y-62399090D01*
X160985523Y-62388612D01*
X160978457Y-62375168D01*
X160312811Y-61709521D01*
X160298868Y-61701908D01*
X160297034Y-61702039D01*
X160290420Y-61706290D01*
X159620820Y-62375891D01*
X159614393Y-62387661D01*
X159623687Y-62399675D01*
X159664088Y-62427964D01*
X159673584Y-62433447D01*
X159801359Y-62493029D01*
X159854644Y-62539946D01*
X159874105Y-62608224D01*
X159853563Y-62676184D01*
X159801359Y-62721419D01*
X159673334Y-62781118D01*
X159673329Y-62781121D01*
X159668347Y-62783444D01*
X159663840Y-62786600D01*
X159663838Y-62786601D01*
X159492473Y-62906592D01*
X159492470Y-62906594D01*
X159487962Y-62909751D01*
X159332251Y-63065462D01*
X159329094Y-63069970D01*
X159329092Y-63069973D01*
X159266576Y-63159255D01*
X159205944Y-63245847D01*
X159203621Y-63250829D01*
X159203618Y-63250834D01*
X159181746Y-63297739D01*
X159112880Y-63445424D01*
X159055885Y-63658129D01*
X159036693Y-63877500D01*
X147758500Y-63877500D01*
X147758500Y-61342975D01*
X159037674Y-61342975D01*
X159055901Y-61551304D01*
X159057804Y-61562099D01*
X159111928Y-61764095D01*
X159115674Y-61774387D01*
X159204054Y-61963917D01*
X159209534Y-61973407D01*
X159238411Y-62014649D01*
X159248887Y-62023023D01*
X159262334Y-62015955D01*
X159927979Y-61350311D01*
X159934356Y-61338632D01*
X160664408Y-61338632D01*
X160664539Y-61340466D01*
X160668790Y-61347080D01*
X161338391Y-62016680D01*
X161350161Y-62023107D01*
X161362176Y-62013811D01*
X161390466Y-61973407D01*
X161395946Y-61963917D01*
X161484326Y-61774387D01*
X161488072Y-61764095D01*
X161542196Y-61562099D01*
X161544099Y-61551304D01*
X161562326Y-61342975D01*
X161562326Y-61332025D01*
X161544099Y-61123696D01*
X161542196Y-61112901D01*
X161488072Y-60910905D01*
X161484326Y-60900613D01*
X161395946Y-60711083D01*
X161390466Y-60701593D01*
X161361589Y-60660351D01*
X161351113Y-60651977D01*
X161337666Y-60659045D01*
X160672021Y-61324689D01*
X160664408Y-61338632D01*
X159934356Y-61338632D01*
X159935592Y-61336368D01*
X159935461Y-61334534D01*
X159931210Y-61327920D01*
X159261609Y-60658320D01*
X159249839Y-60651893D01*
X159237824Y-60661189D01*
X159209534Y-60701593D01*
X159204054Y-60711083D01*
X159115674Y-60900613D01*
X159111928Y-60910905D01*
X159057804Y-61112901D01*
X159055901Y-61123696D01*
X159037674Y-61332025D01*
X159037674Y-61342975D01*
X147758500Y-61342975D01*
X147758500Y-53094500D01*
X147778502Y-53026379D01*
X147832158Y-52979886D01*
X147884500Y-52968500D01*
X152757358Y-52968500D01*
X152825479Y-52988502D01*
G37*
%TD.AperFunction*%
%TA.AperFunction,Conductor*%
G36*
X157546031Y-78039438D02*
G01*
X157605645Y-78077995D01*
X157635509Y-78147227D01*
X157637474Y-78166167D01*
X157639658Y-78172713D01*
X157686229Y-78312301D01*
X157693450Y-78333946D01*
X157786521Y-78484349D01*
X157911697Y-78609306D01*
X158062261Y-78702115D01*
X158103701Y-78715860D01*
X158223610Y-78755632D01*
X158223612Y-78755632D01*
X158230138Y-78757797D01*
X158236974Y-78758497D01*
X158236977Y-78758498D01*
X158280030Y-78762909D01*
X158334599Y-78768500D01*
X158421405Y-78768500D01*
X158489526Y-78788502D01*
X158536019Y-78842158D01*
X158546123Y-78912432D01*
X158516629Y-78977012D01*
X158510504Y-78983591D01*
X158109979Y-79384116D01*
X158047667Y-79418141D01*
X158020884Y-79421020D01*
X156747818Y-79421020D01*
X156679697Y-79401018D01*
X156633204Y-79347362D01*
X156623100Y-79277088D01*
X156633623Y-79241770D01*
X156640805Y-79226369D01*
X156640806Y-79226366D01*
X156643685Y-79220192D01*
X156646299Y-79208500D01*
X156682064Y-79048494D01*
X156683190Y-79043457D01*
X156683500Y-79037912D01*
X156683500Y-78733999D01*
X156703502Y-78665878D01*
X156757158Y-78619385D01*
X156809500Y-78607999D01*
X156904669Y-78607999D01*
X156911490Y-78607629D01*
X156962352Y-78602105D01*
X156977604Y-78598479D01*
X157098054Y-78553324D01*
X157113649Y-78544786D01*
X157215724Y-78468285D01*
X157228285Y-78455724D01*
X157304786Y-78353649D01*
X157313324Y-78338054D01*
X157358478Y-78217606D01*
X157362106Y-78202351D01*
X157367613Y-78151651D01*
X157394855Y-78086089D01*
X157457726Y-78044261D01*
X157475036Y-78039232D01*
X157546031Y-78039438D01*
G37*
%TD.AperFunction*%
%TA.AperFunction,Conductor*%
G36*
X154990690Y-78374538D02*
G01*
X155028504Y-78434627D01*
X155030240Y-78496461D01*
X155029403Y-78500205D01*
X155028866Y-78502609D01*
X154994996Y-78564214D01*
X154866812Y-78692398D01*
X154854000Y-78715860D01*
X154854000Y-79295020D01*
X154833998Y-79363141D01*
X154780342Y-79409634D01*
X154728000Y-79421020D01*
X154472000Y-79421020D01*
X154403879Y-79401018D01*
X154357386Y-79347362D01*
X154346000Y-79295020D01*
X154346000Y-78559500D01*
X154366002Y-78491379D01*
X154419658Y-78444886D01*
X154472000Y-78433500D01*
X154587604Y-78433500D01*
X154594057Y-78432128D01*
X154594061Y-78432128D01*
X154673294Y-78415286D01*
X154758984Y-78397072D01*
X154770500Y-78391945D01*
X154809596Y-78374538D01*
X154856027Y-78353866D01*
X154926393Y-78344432D01*
X154990690Y-78374538D01*
G37*
%TD.AperFunction*%
%TA.AperFunction,Conductor*%
G36*
X173243107Y-77246002D02*
G01*
X173277882Y-77279279D01*
X173300145Y-77310780D01*
X173303479Y-77315497D01*
X173449410Y-77457657D01*
X173454206Y-77460862D01*
X173454214Y-77460868D01*
X173521121Y-77505573D01*
X173566649Y-77560049D01*
X173575145Y-77632562D01*
X173572105Y-77649530D01*
X173576275Y-77659564D01*
X174137189Y-78220479D01*
X174151132Y-78228092D01*
X174152966Y-78227961D01*
X174159580Y-78223710D01*
X174720285Y-77663004D01*
X174727896Y-77649066D01*
X174725983Y-77622320D01*
X174741075Y-77552946D01*
X174779185Y-77510723D01*
X174780551Y-77509958D01*
X174785824Y-77505573D01*
X174932748Y-77383377D01*
X174937186Y-77379686D01*
X174987222Y-77319524D01*
X175027221Y-77271431D01*
X175086159Y-77231847D01*
X175124095Y-77226000D01*
X175174986Y-77226000D01*
X175243107Y-77246002D01*
X175277882Y-77279279D01*
X175300145Y-77310780D01*
X175303479Y-77315497D01*
X175449410Y-77457657D01*
X175454210Y-77460864D01*
X175491572Y-77485829D01*
X175537100Y-77540306D01*
X175545947Y-77610749D01*
X175515306Y-77674793D01*
X175497770Y-77690601D01*
X175495649Y-77691863D01*
X175342478Y-77826190D01*
X175338906Y-77830721D01*
X175232274Y-77965982D01*
X175174392Y-78007095D01*
X175124174Y-78013643D01*
X175096457Y-78011625D01*
X175082449Y-78019262D01*
X174239095Y-78862615D01*
X174176783Y-78896640D01*
X174105967Y-78891575D01*
X174060905Y-78862615D01*
X173218538Y-78020249D01*
X173206163Y-78013492D01*
X173200197Y-78017958D01*
X173124645Y-78161558D01*
X173120242Y-78172191D01*
X173063281Y-78355632D01*
X173060891Y-78366876D01*
X173038313Y-78557634D01*
X173038012Y-78569138D01*
X173050880Y-78765459D01*
X173035376Y-78834742D01*
X172984877Y-78884645D01*
X172925150Y-78899700D01*
X172341955Y-78899700D01*
X172273834Y-78879698D01*
X172227341Y-78826042D01*
X172222432Y-78813577D01*
X172178867Y-78682998D01*
X172178866Y-78682996D01*
X172176550Y-78676054D01*
X172083479Y-78525651D01*
X171958303Y-78400694D01*
X171850018Y-78333946D01*
X171813969Y-78311725D01*
X171813967Y-78311724D01*
X171807739Y-78307885D01*
X171647264Y-78254658D01*
X171646390Y-78254368D01*
X171646388Y-78254368D01*
X171639862Y-78252203D01*
X171633026Y-78251503D01*
X171633023Y-78251502D01*
X171589970Y-78247091D01*
X171535401Y-78241500D01*
X170418679Y-78241500D01*
X169284600Y-78241501D01*
X169178833Y-78252474D01*
X169172286Y-78254658D01*
X169172287Y-78254658D01*
X169017998Y-78306133D01*
X169017996Y-78306134D01*
X169011054Y-78308450D01*
X168860651Y-78401521D01*
X168789161Y-78473136D01*
X168726881Y-78507214D01*
X168656061Y-78502211D01*
X168610977Y-78473293D01*
X168568303Y-78430694D01*
X168443313Y-78353649D01*
X168423969Y-78341725D01*
X168423967Y-78341724D01*
X168417739Y-78337885D01*
X168301491Y-78299328D01*
X168243132Y-78258898D01*
X168215895Y-78193334D01*
X168228428Y-78123452D01*
X168252061Y-78090643D01*
X169079802Y-77262903D01*
X169142112Y-77228879D01*
X169168895Y-77226000D01*
X173174986Y-77226000D01*
X173243107Y-77246002D01*
G37*
%TD.AperFunction*%
%TA.AperFunction,Conductor*%
G36*
X164714060Y-68243502D02*
G01*
X164760553Y-68297158D01*
X164770657Y-68367432D01*
X164741163Y-68432012D01*
X164735046Y-68438583D01*
X163804034Y-69369596D01*
X163741723Y-69403620D01*
X163714940Y-69406500D01*
X163573498Y-69406500D01*
X163571050Y-69406693D01*
X163571042Y-69406693D01*
X163542579Y-69408933D01*
X163542574Y-69408934D01*
X163536169Y-69409438D01*
X163436231Y-69438472D01*
X163384012Y-69453643D01*
X163384010Y-69453644D01*
X163376399Y-69455855D01*
X163369572Y-69459892D01*
X163369573Y-69459892D01*
X163240020Y-69536509D01*
X163240017Y-69536511D01*
X163233193Y-69540547D01*
X163115547Y-69658193D01*
X163111511Y-69665017D01*
X163111509Y-69665020D01*
X163067219Y-69739911D01*
X163030855Y-69801399D01*
X163028644Y-69809010D01*
X163028643Y-69809012D01*
X163022073Y-69831626D01*
X162984438Y-69961169D01*
X162983934Y-69967574D01*
X162983933Y-69967579D01*
X162982067Y-69991295D01*
X162981500Y-69998498D01*
X162981500Y-71155500D01*
X162961498Y-71223621D01*
X162907842Y-71270114D01*
X162855500Y-71281500D01*
X162824000Y-71281500D01*
X162755879Y-71261498D01*
X162709386Y-71207842D01*
X162698000Y-71155500D01*
X162698000Y-70924615D01*
X162693525Y-70909376D01*
X162692135Y-70908171D01*
X162684452Y-70906500D01*
X161100116Y-70906500D01*
X161084877Y-70910975D01*
X161083672Y-70912365D01*
X161082001Y-70920048D01*
X161082001Y-71303984D01*
X161082195Y-71308920D01*
X161084430Y-71337336D01*
X161086730Y-71349931D01*
X161129107Y-71495790D01*
X161138501Y-71517498D01*
X161137221Y-71518052D01*
X161152608Y-71578686D01*
X161130096Y-71646018D01*
X161074754Y-71690491D01*
X161004154Y-71697983D01*
X160960579Y-71681276D01*
X160863969Y-71621725D01*
X160863967Y-71621724D01*
X160857739Y-71617885D01*
X160739557Y-71578686D01*
X160696390Y-71564368D01*
X160696388Y-71564368D01*
X160689862Y-71562203D01*
X160683026Y-71561503D01*
X160683023Y-71561502D01*
X160639970Y-71557091D01*
X160585401Y-71551500D01*
X160570112Y-71551500D01*
X159428593Y-71551501D01*
X159360473Y-71531499D01*
X159313980Y-71477843D01*
X159303876Y-71407569D01*
X159333369Y-71342989D01*
X159339499Y-71336406D01*
X160889560Y-69786345D01*
X160951872Y-69752319D01*
X161022687Y-69757384D01*
X161079523Y-69799931D01*
X161104334Y-69866451D01*
X161099652Y-69910594D01*
X161086731Y-69955065D01*
X161084430Y-69967667D01*
X161082193Y-69996084D01*
X161082000Y-70001014D01*
X161082000Y-70380385D01*
X161086475Y-70395624D01*
X161087865Y-70396829D01*
X161095548Y-70398500D01*
X161617885Y-70398500D01*
X161633124Y-70394025D01*
X161634329Y-70392635D01*
X161636000Y-70384952D01*
X161636000Y-70380385D01*
X162144000Y-70380385D01*
X162148475Y-70395624D01*
X162149865Y-70396829D01*
X162157548Y-70398500D01*
X162679884Y-70398500D01*
X162695123Y-70394025D01*
X162696328Y-70392635D01*
X162697999Y-70384952D01*
X162697999Y-70001017D01*
X162697805Y-69996080D01*
X162695570Y-69967664D01*
X162693270Y-69955069D01*
X162650893Y-69809210D01*
X162644648Y-69794779D01*
X162568089Y-69665322D01*
X162558449Y-69652896D01*
X162452104Y-69546551D01*
X162439678Y-69536911D01*
X162310221Y-69460352D01*
X162295790Y-69454107D01*
X162161395Y-69415061D01*
X162147294Y-69415101D01*
X162144000Y-69422370D01*
X162144000Y-70380385D01*
X161636000Y-70380385D01*
X161636000Y-69428122D01*
X161632027Y-69414591D01*
X161624129Y-69413456D01*
X161585594Y-69424651D01*
X161514598Y-69424448D01*
X161454981Y-69385894D01*
X161425673Y-69321229D01*
X161435977Y-69250985D01*
X161461346Y-69214559D01*
X162415500Y-68260405D01*
X162477812Y-68226379D01*
X162504595Y-68223500D01*
X164645939Y-68223500D01*
X164714060Y-68243502D01*
G37*
%TD.AperFunction*%
%TD*%
M02*
