%TF.GenerationSoftware,KiCad,Pcbnew,(6.0.5-0)*%
%TF.CreationDate,2022-06-16T12:53:31+02:00*%
%TF.ProjectId,Relay,52656c61-792e-46b6-9963-61645f706362,rev?*%
%TF.SameCoordinates,Original*%
%TF.FileFunction,Soldermask,Bot*%
%TF.FilePolarity,Negative*%
%FSLAX46Y46*%
G04 Gerber Fmt 4.6, Leading zero omitted, Abs format (unit mm)*
G04 Created by KiCad (PCBNEW (6.0.5-0)) date 2022-06-16 12:53:31*
%MOMM*%
%LPD*%
G01*
G04 APERTURE LIST*
G04 Aperture macros list*
%AMRoundRect*
0 Rectangle with rounded corners*
0 $1 Rounding radius*
0 $2 $3 $4 $5 $6 $7 $8 $9 X,Y pos of 4 corners*
0 Add a 4 corners polygon primitive as box body*
4,1,4,$2,$3,$4,$5,$6,$7,$8,$9,$2,$3,0*
0 Add four circle primitives for the rounded corners*
1,1,$1+$1,$2,$3*
1,1,$1+$1,$4,$5*
1,1,$1+$1,$6,$7*
1,1,$1+$1,$8,$9*
0 Add four rect primitives between the rounded corners*
20,1,$1+$1,$2,$3,$4,$5,0*
20,1,$1+$1,$4,$5,$6,$7,0*
20,1,$1+$1,$6,$7,$8,$9,0*
20,1,$1+$1,$8,$9,$2,$3,0*%
G04 Aperture macros list end*
%ADD10O,0.650000X0.950000*%
%ADD11C,0.650000*%
%ADD12O,1.800000X0.950000*%
%ADD13O,1.400000X0.800000*%
%ADD14C,3.200000*%
%ADD15R,1.500000X1.500000*%
%ADD16C,1.500000*%
%ADD17RoundRect,0.250000X-0.350000X0.350000X-0.350000X-0.350000X0.350000X-0.350000X0.350000X0.350000X0*%
%ADD18C,1.200000*%
%ADD19R,1.458000X1.458000*%
%ADD20C,1.458000*%
G04 APERTURE END LIST*
D10*
%TO.C,J2*%
X154890000Y-78800000D03*
D11*
X154890000Y-71600000D03*
D12*
X149130000Y-79690000D03*
D13*
X153640000Y-79330000D03*
X153640000Y-71070000D03*
D12*
X149130000Y-70710000D03*
D11*
X154240000Y-78000000D03*
X153540000Y-77600000D03*
X153540000Y-76800000D03*
X154240000Y-76400000D03*
X153540000Y-76000000D03*
X154240000Y-75600000D03*
X154240000Y-74800000D03*
X153540000Y-74400000D03*
X154240000Y-74000000D03*
X153540000Y-73600000D03*
X153540000Y-72800000D03*
X154240000Y-72400000D03*
%TD*%
D14*
%TO.C,J3*%
X153950000Y-54987500D03*
X153950000Y-66417500D03*
D15*
X160300000Y-56257500D03*
D16*
X162840000Y-57527500D03*
X160300000Y-58797500D03*
X162840000Y-60067500D03*
X160300000Y-61337500D03*
X162840000Y-62607500D03*
X160300000Y-63877500D03*
X162840000Y-65147500D03*
%TD*%
D17*
%TO.C,J1*%
X176150000Y-54592500D03*
D18*
X174150000Y-54592500D03*
X176150000Y-56592500D03*
X174150000Y-56592500D03*
X176150000Y-58592500D03*
X174150000Y-58592500D03*
X176150000Y-60592500D03*
X174150000Y-60592500D03*
X176150000Y-62592500D03*
X174150000Y-62592500D03*
X176150000Y-64592500D03*
X174150000Y-64592500D03*
X176150000Y-66592500D03*
X174150000Y-66592500D03*
X176150000Y-68592500D03*
X174150000Y-68592500D03*
X176150000Y-70592500D03*
X174150000Y-70592500D03*
X176150000Y-72592500D03*
X174150000Y-72592500D03*
X176150000Y-74592500D03*
X174150000Y-74592500D03*
X176150000Y-76592500D03*
X174150000Y-76592500D03*
X176150000Y-78592500D03*
X174150000Y-78592500D03*
%TD*%
D19*
%TO.C,K1*%
X165974500Y-64390000D03*
D20*
X165974500Y-67590000D03*
X165974500Y-69790000D03*
X165974500Y-71990000D03*
X171054500Y-71990000D03*
X171054500Y-69790000D03*
X171054500Y-67590000D03*
X171054500Y-64390000D03*
%TD*%
M02*
