M48
; DRILL file {KiCad (6.0.5-0)} date 2022 June 15, Wednesday 06:28:06
; FORMAT={-:-/ absolute / inch / decimal}
; #@! TF.CreationDate,2022-06-15T06:28:06+02:00
; #@! TF.GenerationSoftware,Kicad,Pcbnew,(6.0.5-0)
; #@! TF.FileFunction,Plated,1,2,PTH
FMAT,2
INCH
; #@! TA.AperFunction,Plated,PTH,ViaDrill
T1C0.0157
; #@! TA.AperFunction,Plated,PTH,ComponentDrill
T2C0.0157
; #@! TA.AperFunction,Plated,PTH,ComponentDrill
T3C0.0197
; #@! TA.AperFunction,Plated,PTH,ViaDrill
T4C0.0236
; #@! TA.AperFunction,Plated,PTH,ComponentDrill
T5C0.0295
; #@! TA.AperFunction,Plated,PTH,ComponentDrill
T6C0.0299
; #@! TA.AperFunction,Plated,PTH,ComponentDrill
T7C0.0374
%
G90
G05
T1
X5.8888Y-2.7569
X5.9085Y-3.1211
X6.0709Y-2.7539
X6.1624Y-2.6683
X6.2195Y-3.0935
X6.2215Y-2.6467
X6.3159Y-2.8189
X6.3209Y-2.1644
X6.3442Y-2.795
X6.4065Y-2.7136
X6.4232Y-2.6447
X6.4941Y-3.1535
X6.522Y-2.3638
X6.5354Y-2.5974
X6.5522Y-3.0778
X6.5965Y-2.502
X6.6457Y-2.1762
X6.6851Y-2.2368
X6.7825Y-2.0866
X7.0089Y-2.3455
T2
X6.0827Y-2.8661
X6.0827Y-2.8976
X6.0827Y-2.9291
X6.0827Y-2.9921
X6.0827Y-3.0236
X6.0827Y-3.0551
X6.1102Y-2.8504
X6.1102Y-2.9134
X6.1102Y-2.9449
X6.1102Y-2.9764
X6.1102Y-3.0079
X6.1102Y-3.0709
T4
X7.0285Y-2.1919
T5
X6.8563Y-2.1493
X6.8563Y-2.2281
X6.8563Y-2.3068
X6.8563Y-2.3855
X6.8563Y-2.4643
X6.8563Y-2.543
X6.8563Y-2.6218
X6.8563Y-2.7005
X6.8563Y-2.7792
X6.8563Y-2.858
X6.8563Y-2.9367
X6.8563Y-3.0155
X6.8563Y-3.0942
X6.935Y-2.1493
X6.935Y-2.2281
X6.935Y-2.3068
X6.935Y-2.3855
X6.935Y-2.4643
X6.935Y-2.543
X6.935Y-2.6218
X6.935Y-2.7005
X6.935Y-2.7792
X6.935Y-2.858
X6.935Y-2.9367
X6.935Y-3.0155
X6.935Y-3.0942
T6
X6.311Y-2.2149
X6.311Y-2.3149
X6.311Y-2.4149
X6.311Y-2.5149
X6.411Y-2.2649
X6.411Y-2.3649
X6.411Y-2.4649
X6.411Y-2.5649
T7
X6.5344Y-2.535
X6.5344Y-2.661
X6.5344Y-2.7476
X6.5344Y-2.8343
X6.7344Y-2.535
X6.7344Y-2.661
X6.7344Y-2.7476
X6.7344Y-2.8343
T3
G00X5.8642Y-2.7839
M15
G01X5.8406Y-2.7839
M16
G05
G00X5.8642Y-3.1374
M15
G01X5.8406Y-3.1374
M16
G05
G00X6.0984Y-2.798
M15
G01X6.0748Y-2.798
M16
G05
G00X6.0984Y-3.1232
M15
G01X6.0748Y-3.1232
M16
G05
T0
M30
