%TF.GenerationSoftware,KiCad,Pcbnew,(6.0.5-0)*%
%TF.CreationDate,2022-06-15T06:28:06+02:00*%
%TF.ProjectId,Relay,52656c61-792e-46b6-9963-61645f706362,rev?*%
%TF.SameCoordinates,Original*%
%TF.FileFunction,Legend,Top*%
%TF.FilePolarity,Positive*%
%FSLAX46Y46*%
G04 Gerber Fmt 4.6, Leading zero omitted, Abs format (unit mm)*
G04 Created by KiCad (PCBNEW (6.0.5-0)) date 2022-06-15 06:28:06*
%MOMM*%
%LPD*%
G01*
G04 APERTURE LIST*
G04 Aperture macros list*
%AMRoundRect*
0 Rectangle with rounded corners*
0 $1 Rounding radius*
0 $2 $3 $4 $5 $6 $7 $8 $9 X,Y pos of 4 corners*
0 Add a 4 corners polygon primitive as box body*
4,1,4,$2,$3,$4,$5,$6,$7,$8,$9,$2,$3,0*
0 Add four circle primitives for the rounded corners*
1,1,$1+$1,$2,$3*
1,1,$1+$1,$4,$5*
1,1,$1+$1,$6,$7*
1,1,$1+$1,$8,$9*
0 Add four rect primitives between the rounded corners*
20,1,$1+$1,$2,$3,$4,$5,0*
20,1,$1+$1,$4,$5,$6,$7,0*
20,1,$1+$1,$6,$7,$8,$9,0*
20,1,$1+$1,$8,$9,$2,$3,0*%
G04 Aperture macros list end*
%ADD10C,0.150000*%
%ADD11C,0.080000*%
%ADD12C,0.060000*%
%ADD13C,0.050000*%
%ADD14C,0.127000*%
%ADD15C,0.200000*%
%ADD16C,0.120000*%
%ADD17R,1.800000X1.340000*%
%ADD18RoundRect,0.249999X-1.075001X0.450001X-1.075001X-0.450001X1.075001X-0.450001X1.075001X0.450001X0*%
%ADD19RoundRect,0.200000X0.200000X0.275000X-0.200000X0.275000X-0.200000X-0.275000X0.200000X-0.275000X0*%
%ADD20C,3.200000*%
%ADD21R,1.500000X1.500000*%
%ADD22C,1.500000*%
%ADD23RoundRect,0.150000X-0.150000X0.587500X-0.150000X-0.587500X0.150000X-0.587500X0.150000X0.587500X0*%
%ADD24R,1.200000X1.500000*%
%ADD25R,4.650000X4.150000*%
%ADD26RoundRect,0.250000X-0.350000X0.350000X-0.350000X-0.350000X0.350000X-0.350000X0.350000X0.350000X0*%
%ADD27C,1.200000*%
%ADD28O,0.650000X0.950000*%
%ADD29C,0.650000*%
%ADD30R,0.700000X0.300000*%
%ADD31O,1.400000X0.800000*%
%ADD32R,1.458000X1.458000*%
%ADD33C,1.458000*%
%ADD34RoundRect,0.249999X0.450001X1.075001X-0.450001X1.075001X-0.450001X-1.075001X0.450001X-1.075001X0*%
G04 APERTURE END LIST*
D10*
X159694047Y-74871428D02*
X160455952Y-74871428D01*
D11*
%TO.C,D1*%
X159098809Y-74755952D02*
X158548809Y-74755952D01*
X158548809Y-74625000D01*
X158575000Y-74546428D01*
X158627380Y-74494047D01*
X158679761Y-74467857D01*
X158784523Y-74441666D01*
X158863095Y-74441666D01*
X158967857Y-74467857D01*
X159020238Y-74494047D01*
X159072619Y-74546428D01*
X159098809Y-74625000D01*
X159098809Y-74755952D01*
X159098809Y-73917857D02*
X159098809Y-74232142D01*
X159098809Y-74075000D02*
X158548809Y-74075000D01*
X158627380Y-74127380D01*
X158679761Y-74179761D01*
X158705952Y-74232142D01*
D12*
%TO.C,R8*%
X168980952Y-78341666D02*
X168790476Y-78475000D01*
X168980952Y-78570238D02*
X168580952Y-78570238D01*
X168580952Y-78417857D01*
X168600000Y-78379761D01*
X168619047Y-78360714D01*
X168657142Y-78341666D01*
X168714285Y-78341666D01*
X168752380Y-78360714D01*
X168771428Y-78379761D01*
X168790476Y-78417857D01*
X168790476Y-78570238D01*
X168752380Y-78113095D02*
X168733333Y-78151190D01*
X168714285Y-78170238D01*
X168676190Y-78189285D01*
X168657142Y-78189285D01*
X168619047Y-78170238D01*
X168600000Y-78151190D01*
X168580952Y-78113095D01*
X168580952Y-78036904D01*
X168600000Y-77998809D01*
X168619047Y-77979761D01*
X168657142Y-77960714D01*
X168676190Y-77960714D01*
X168714285Y-77979761D01*
X168733333Y-77998809D01*
X168752380Y-78036904D01*
X168752380Y-78113095D01*
X168771428Y-78151190D01*
X168790476Y-78170238D01*
X168828571Y-78189285D01*
X168904761Y-78189285D01*
X168942857Y-78170238D01*
X168961904Y-78151190D01*
X168980952Y-78113095D01*
X168980952Y-78036904D01*
X168961904Y-77998809D01*
X168942857Y-77979761D01*
X168904761Y-77960714D01*
X168828571Y-77960714D01*
X168790476Y-77979761D01*
X168771428Y-77998809D01*
X168752380Y-78036904D01*
D10*
X170771904Y-77983333D02*
X170771904Y-78440476D01*
X170771904Y-78211904D02*
X169971904Y-78211904D01*
X170086190Y-78288095D01*
X170162380Y-78364285D01*
X170200476Y-78440476D01*
X170048095Y-77678571D02*
X170010000Y-77640476D01*
X169971904Y-77564285D01*
X169971904Y-77373809D01*
X170010000Y-77297619D01*
X170048095Y-77259523D01*
X170124285Y-77221428D01*
X170200476Y-77221428D01*
X170314761Y-77259523D01*
X170771904Y-77716666D01*
X170771904Y-77221428D01*
X169971904Y-76726190D02*
X169971904Y-76650000D01*
X170010000Y-76573809D01*
X170048095Y-76535714D01*
X170124285Y-76497619D01*
X170276666Y-76459523D01*
X170467142Y-76459523D01*
X170619523Y-76497619D01*
X170695714Y-76535714D01*
X170733809Y-76573809D01*
X170771904Y-76650000D01*
X170771904Y-76726190D01*
X170733809Y-76802380D01*
X170695714Y-76840476D01*
X170619523Y-76878571D01*
X170467142Y-76916666D01*
X170276666Y-76916666D01*
X170124285Y-76878571D01*
X170048095Y-76840476D01*
X170010000Y-76802380D01*
X169971904Y-76726190D01*
X170771904Y-75659523D02*
X170390952Y-75926190D01*
X170771904Y-76116666D02*
X169971904Y-76116666D01*
X169971904Y-75811904D01*
X170010000Y-75735714D01*
X170048095Y-75697619D01*
X170124285Y-75659523D01*
X170238571Y-75659523D01*
X170314761Y-75697619D01*
X170352857Y-75735714D01*
X170390952Y-75811904D01*
X170390952Y-76116666D01*
D11*
%TO.C,R7*%
X165598809Y-78266666D02*
X165336904Y-78450000D01*
X165598809Y-78580952D02*
X165048809Y-78580952D01*
X165048809Y-78371428D01*
X165075000Y-78319047D01*
X165101190Y-78292857D01*
X165153571Y-78266666D01*
X165232142Y-78266666D01*
X165284523Y-78292857D01*
X165310714Y-78319047D01*
X165336904Y-78371428D01*
X165336904Y-78580952D01*
X165048809Y-78083333D02*
X165048809Y-77716666D01*
X165598809Y-77952380D01*
D10*
X167836904Y-78013333D02*
X167836904Y-78470476D01*
X167836904Y-78241904D02*
X167036904Y-78241904D01*
X167151190Y-78318095D01*
X167227380Y-78394285D01*
X167265476Y-78470476D01*
X167113095Y-77708571D02*
X167075000Y-77670476D01*
X167036904Y-77594285D01*
X167036904Y-77403809D01*
X167075000Y-77327619D01*
X167113095Y-77289523D01*
X167189285Y-77251428D01*
X167265476Y-77251428D01*
X167379761Y-77289523D01*
X167836904Y-77746666D01*
X167836904Y-77251428D01*
X167036904Y-76756190D02*
X167036904Y-76680000D01*
X167075000Y-76603809D01*
X167113095Y-76565714D01*
X167189285Y-76527619D01*
X167341666Y-76489523D01*
X167532142Y-76489523D01*
X167684523Y-76527619D01*
X167760714Y-76565714D01*
X167798809Y-76603809D01*
X167836904Y-76680000D01*
X167836904Y-76756190D01*
X167798809Y-76832380D01*
X167760714Y-76870476D01*
X167684523Y-76908571D01*
X167532142Y-76946666D01*
X167341666Y-76946666D01*
X167189285Y-76908571D01*
X167113095Y-76870476D01*
X167075000Y-76832380D01*
X167036904Y-76756190D01*
X167836904Y-75689523D02*
X167455952Y-75956190D01*
X167836904Y-76146666D02*
X167036904Y-76146666D01*
X167036904Y-75841904D01*
X167075000Y-75765714D01*
X167113095Y-75727619D01*
X167189285Y-75689523D01*
X167303571Y-75689523D01*
X167379761Y-75727619D01*
X167417857Y-75765714D01*
X167455952Y-75841904D01*
X167455952Y-76146666D01*
D11*
%TO.C,R6*%
X165448809Y-53616666D02*
X165186904Y-53800000D01*
X165448809Y-53930952D02*
X164898809Y-53930952D01*
X164898809Y-53721428D01*
X164925000Y-53669047D01*
X164951190Y-53642857D01*
X165003571Y-53616666D01*
X165082142Y-53616666D01*
X165134523Y-53642857D01*
X165160714Y-53669047D01*
X165186904Y-53721428D01*
X165186904Y-53930952D01*
X164898809Y-53145238D02*
X164898809Y-53250000D01*
X164925000Y-53302380D01*
X164951190Y-53328571D01*
X165029761Y-53380952D01*
X165134523Y-53407142D01*
X165344047Y-53407142D01*
X165396428Y-53380952D01*
X165422619Y-53354761D01*
X165448809Y-53302380D01*
X165448809Y-53197619D01*
X165422619Y-53145238D01*
X165396428Y-53119047D01*
X165344047Y-53092857D01*
X165213095Y-53092857D01*
X165160714Y-53119047D01*
X165134523Y-53145238D01*
X165108333Y-53197619D01*
X165108333Y-53302380D01*
X165134523Y-53354761D01*
X165160714Y-53380952D01*
X165213095Y-53407142D01*
D13*
X166592857Y-52910714D02*
X166421428Y-52910714D01*
X166507142Y-52910714D02*
X166507142Y-52610714D01*
X166478571Y-52653571D01*
X166450000Y-52682142D01*
X166421428Y-52696428D01*
X166778571Y-52610714D02*
X166807142Y-52610714D01*
X166835714Y-52625000D01*
X166850000Y-52639285D01*
X166864285Y-52667857D01*
X166878571Y-52725000D01*
X166878571Y-52796428D01*
X166864285Y-52853571D01*
X166850000Y-52882142D01*
X166835714Y-52896428D01*
X166807142Y-52910714D01*
X166778571Y-52910714D01*
X166750000Y-52896428D01*
X166735714Y-52882142D01*
X166721428Y-52853571D01*
X166707142Y-52796428D01*
X166707142Y-52725000D01*
X166721428Y-52667857D01*
X166735714Y-52639285D01*
X166750000Y-52625000D01*
X166778571Y-52610714D01*
X167178571Y-52910714D02*
X167078571Y-52767857D01*
X167007142Y-52910714D02*
X167007142Y-52610714D01*
X167121428Y-52610714D01*
X167150000Y-52625000D01*
X167164285Y-52639285D01*
X167178571Y-52667857D01*
X167178571Y-52710714D01*
X167164285Y-52739285D01*
X167150000Y-52753571D01*
X167121428Y-52767857D01*
X167007142Y-52767857D01*
D11*
%TO.C,J3*%
X160146666Y-53048809D02*
X160146666Y-53441666D01*
X160120476Y-53520238D01*
X160068095Y-53572619D01*
X159989523Y-53598809D01*
X159937142Y-53598809D01*
X160356190Y-53048809D02*
X160696666Y-53048809D01*
X160513333Y-53258333D01*
X160591904Y-53258333D01*
X160644285Y-53284523D01*
X160670476Y-53310714D01*
X160696666Y-53363095D01*
X160696666Y-53494047D01*
X160670476Y-53546428D01*
X160644285Y-53572619D01*
X160591904Y-53598809D01*
X160434761Y-53598809D01*
X160382380Y-53572619D01*
X160356190Y-53546428D01*
%TO.C,Q1*%
X161847619Y-72401190D02*
X161795238Y-72375000D01*
X161742857Y-72322619D01*
X161664285Y-72244047D01*
X161611904Y-72217857D01*
X161559523Y-72217857D01*
X161585714Y-72348809D02*
X161533333Y-72322619D01*
X161480952Y-72270238D01*
X161454761Y-72165476D01*
X161454761Y-71982142D01*
X161480952Y-71877380D01*
X161533333Y-71825000D01*
X161585714Y-71798809D01*
X161690476Y-71798809D01*
X161742857Y-71825000D01*
X161795238Y-71877380D01*
X161821428Y-71982142D01*
X161821428Y-72165476D01*
X161795238Y-72270238D01*
X161742857Y-72322619D01*
X161690476Y-72348809D01*
X161585714Y-72348809D01*
X162345238Y-72348809D02*
X162030952Y-72348809D01*
X162188095Y-72348809D02*
X162188095Y-71798809D01*
X162135714Y-71877380D01*
X162083333Y-71929761D01*
X162030952Y-71955952D01*
%TO.C,R5*%
X169198809Y-53566666D02*
X168936904Y-53750000D01*
X169198809Y-53880952D02*
X168648809Y-53880952D01*
X168648809Y-53671428D01*
X168675000Y-53619047D01*
X168701190Y-53592857D01*
X168753571Y-53566666D01*
X168832142Y-53566666D01*
X168884523Y-53592857D01*
X168910714Y-53619047D01*
X168936904Y-53671428D01*
X168936904Y-53880952D01*
X168648809Y-53069047D02*
X168648809Y-53330952D01*
X168910714Y-53357142D01*
X168884523Y-53330952D01*
X168858333Y-53278571D01*
X168858333Y-53147619D01*
X168884523Y-53095238D01*
X168910714Y-53069047D01*
X168963095Y-53042857D01*
X169094047Y-53042857D01*
X169146428Y-53069047D01*
X169172619Y-53095238D01*
X169198809Y-53147619D01*
X169198809Y-53278571D01*
X169172619Y-53330952D01*
X169146428Y-53357142D01*
D13*
X170342857Y-52835714D02*
X170171428Y-52835714D01*
X170257142Y-52835714D02*
X170257142Y-52535714D01*
X170228571Y-52578571D01*
X170200000Y-52607142D01*
X170171428Y-52621428D01*
X170528571Y-52535714D02*
X170557142Y-52535714D01*
X170585714Y-52550000D01*
X170600000Y-52564285D01*
X170614285Y-52592857D01*
X170628571Y-52650000D01*
X170628571Y-52721428D01*
X170614285Y-52778571D01*
X170600000Y-52807142D01*
X170585714Y-52821428D01*
X170557142Y-52835714D01*
X170528571Y-52835714D01*
X170500000Y-52821428D01*
X170485714Y-52807142D01*
X170471428Y-52778571D01*
X170457142Y-52721428D01*
X170457142Y-52650000D01*
X170471428Y-52592857D01*
X170485714Y-52564285D01*
X170500000Y-52550000D01*
X170528571Y-52535714D01*
X170928571Y-52835714D02*
X170828571Y-52692857D01*
X170757142Y-52835714D02*
X170757142Y-52535714D01*
X170871428Y-52535714D01*
X170900000Y-52550000D01*
X170914285Y-52564285D01*
X170928571Y-52592857D01*
X170928571Y-52635714D01*
X170914285Y-52664285D01*
X170900000Y-52678571D01*
X170871428Y-52692857D01*
X170757142Y-52692857D01*
D11*
%TO.C,CR1*%
X165158333Y-62821428D02*
X165132142Y-62847619D01*
X165053571Y-62873809D01*
X165001190Y-62873809D01*
X164922619Y-62847619D01*
X164870238Y-62795238D01*
X164844047Y-62742857D01*
X164817857Y-62638095D01*
X164817857Y-62559523D01*
X164844047Y-62454761D01*
X164870238Y-62402380D01*
X164922619Y-62350000D01*
X165001190Y-62323809D01*
X165053571Y-62323809D01*
X165132142Y-62350000D01*
X165158333Y-62376190D01*
X165708333Y-62873809D02*
X165525000Y-62611904D01*
X165394047Y-62873809D02*
X165394047Y-62323809D01*
X165603571Y-62323809D01*
X165655952Y-62350000D01*
X165682142Y-62376190D01*
X165708333Y-62428571D01*
X165708333Y-62507142D01*
X165682142Y-62559523D01*
X165655952Y-62585714D01*
X165603571Y-62611904D01*
X165394047Y-62611904D01*
X166232142Y-62873809D02*
X165917857Y-62873809D01*
X166075000Y-62873809D02*
X166075000Y-62323809D01*
X166022619Y-62402380D01*
X165970238Y-62454761D01*
X165917857Y-62480952D01*
%TO.C,J1*%
X178048809Y-66708333D02*
X178441666Y-66708333D01*
X178520238Y-66734523D01*
X178572619Y-66786904D01*
X178598809Y-66865476D01*
X178598809Y-66917857D01*
X178598809Y-66158333D02*
X178598809Y-66472619D01*
X178598809Y-66315476D02*
X178048809Y-66315476D01*
X178127380Y-66367857D01*
X178179761Y-66420238D01*
X178205952Y-66472619D01*
%TO.C,R4*%
X161498809Y-77341666D02*
X161236904Y-77525000D01*
X161498809Y-77655952D02*
X160948809Y-77655952D01*
X160948809Y-77446428D01*
X160975000Y-77394047D01*
X161001190Y-77367857D01*
X161053571Y-77341666D01*
X161132142Y-77341666D01*
X161184523Y-77367857D01*
X161210714Y-77394047D01*
X161236904Y-77446428D01*
X161236904Y-77655952D01*
X161132142Y-76870238D02*
X161498809Y-76870238D01*
X160922619Y-77001190D02*
X161315476Y-77132142D01*
X161315476Y-76791666D01*
D10*
X163477380Y-76864285D02*
X163477380Y-77435714D01*
X163477380Y-77150000D02*
X162477380Y-77150000D01*
X162620238Y-77245238D01*
X162715476Y-77340476D01*
X162763095Y-77435714D01*
X163477380Y-76435714D02*
X162477380Y-76435714D01*
X163477380Y-75864285D02*
X162905952Y-76292857D01*
X162477380Y-75864285D02*
X163048809Y-76435714D01*
D11*
%TO.C,J2*%
X156938809Y-79993333D02*
X157331666Y-79993333D01*
X157410238Y-80019523D01*
X157462619Y-80071904D01*
X157488809Y-80150476D01*
X157488809Y-80202857D01*
X156991190Y-79757619D02*
X156965000Y-79731428D01*
X156938809Y-79679047D01*
X156938809Y-79548095D01*
X156965000Y-79495714D01*
X156991190Y-79469523D01*
X157043571Y-79443333D01*
X157095952Y-79443333D01*
X157174523Y-79469523D01*
X157488809Y-79783809D01*
X157488809Y-79443333D01*
%TO.C,K1*%
X170944047Y-63098809D02*
X170944047Y-62548809D01*
X171258333Y-63098809D02*
X171022619Y-62784523D01*
X171258333Y-62548809D02*
X170944047Y-62863095D01*
X171782142Y-63098809D02*
X171467857Y-63098809D01*
X171625000Y-63098809D02*
X171625000Y-62548809D01*
X171572619Y-62627380D01*
X171520238Y-62679761D01*
X171467857Y-62705952D01*
%TO.C,R1*%
X165473809Y-55116666D02*
X165211904Y-55300000D01*
X165473809Y-55430952D02*
X164923809Y-55430952D01*
X164923809Y-55221428D01*
X164950000Y-55169047D01*
X164976190Y-55142857D01*
X165028571Y-55116666D01*
X165107142Y-55116666D01*
X165159523Y-55142857D01*
X165185714Y-55169047D01*
X165211904Y-55221428D01*
X165211904Y-55430952D01*
X165473809Y-54592857D02*
X165473809Y-54907142D01*
X165473809Y-54750000D02*
X164923809Y-54750000D01*
X165002380Y-54802380D01*
X165054761Y-54854761D01*
X165080952Y-54907142D01*
D10*
X167791666Y-56261904D02*
X167334523Y-56261904D01*
X167563095Y-56261904D02*
X167563095Y-55461904D01*
X167486904Y-55576190D01*
X167410714Y-55652380D01*
X167334523Y-55690476D01*
X168096428Y-55538095D02*
X168134523Y-55500000D01*
X168210714Y-55461904D01*
X168401190Y-55461904D01*
X168477380Y-55500000D01*
X168515476Y-55538095D01*
X168553571Y-55614285D01*
X168553571Y-55690476D01*
X168515476Y-55804761D01*
X168058333Y-56261904D01*
X168553571Y-56261904D01*
X169048809Y-55461904D02*
X169125000Y-55461904D01*
X169201190Y-55500000D01*
X169239285Y-55538095D01*
X169277380Y-55614285D01*
X169315476Y-55766666D01*
X169315476Y-55957142D01*
X169277380Y-56109523D01*
X169239285Y-56185714D01*
X169201190Y-56223809D01*
X169125000Y-56261904D01*
X169048809Y-56261904D01*
X168972619Y-56223809D01*
X168934523Y-56185714D01*
X168896428Y-56109523D01*
X168858333Y-55957142D01*
X168858333Y-55766666D01*
X168896428Y-55614285D01*
X168934523Y-55538095D01*
X168972619Y-55500000D01*
X169048809Y-55461904D01*
X170115476Y-56261904D02*
X169848809Y-55880952D01*
X169658333Y-56261904D02*
X169658333Y-55461904D01*
X169963095Y-55461904D01*
X170039285Y-55500000D01*
X170077380Y-55538095D01*
X170115476Y-55614285D01*
X170115476Y-55728571D01*
X170077380Y-55804761D01*
X170039285Y-55842857D01*
X169963095Y-55880952D01*
X169658333Y-55880952D01*
D14*
%TO.C,D1*%
X159275000Y-74075000D02*
X159275000Y-74675000D01*
X160875000Y-74075000D02*
X160875000Y-74675000D01*
D15*
X160175000Y-77075000D02*
G75*
G03*
X160175000Y-77075000I-100000J0D01*
G01*
D16*
%TO.C,R8*%
X169050000Y-75522936D02*
X169050000Y-78577064D01*
X171770000Y-75522936D02*
X171770000Y-78577064D01*
%TO.C,R7*%
X165660000Y-75552936D02*
X165660000Y-78607064D01*
X168380000Y-75552936D02*
X168380000Y-78607064D01*
%TO.C,R6*%
X167037258Y-53027500D02*
X166562742Y-53027500D01*
X167037258Y-54072500D02*
X166562742Y-54072500D01*
%TO.C,J3*%
X164180000Y-68462500D02*
X146220000Y-68462500D01*
X146220000Y-52942500D02*
X146220000Y-68462500D01*
X164180000Y-52942500D02*
X146220000Y-52942500D01*
X160800000Y-52257500D02*
X159800000Y-52257500D01*
X159800000Y-52257500D02*
X160300000Y-52757500D01*
X164180000Y-68462500D02*
X164180000Y-52942500D01*
X160300000Y-52757500D02*
X160800000Y-52257500D01*
%TO.C,Q1*%
X161515000Y-70950000D02*
X161515000Y-71600000D01*
X164635000Y-70950000D02*
X164635000Y-71600000D01*
X161515000Y-70950000D02*
X161515000Y-70300000D01*
X164635000Y-70950000D02*
X164635000Y-69275000D01*
%TO.C,R5*%
X170787258Y-52952500D02*
X170312742Y-52952500D01*
X170787258Y-53997500D02*
X170312742Y-53997500D01*
D14*
%TO.C,CR1*%
X164854000Y-57654000D02*
X171966000Y-57654000D01*
X171966000Y-57654000D02*
X171966000Y-62226000D01*
X164854000Y-62226000D02*
X164854000Y-57654000D01*
X171966000Y-62226000D02*
X164854000Y-62226000D01*
D16*
%TO.C,J1*%
X175850000Y-51732500D02*
X176450000Y-51732500D01*
X172540000Y-80652500D02*
X177760000Y-80652500D01*
X173050000Y-53392500D02*
X173050000Y-79792500D01*
X173050000Y-79792500D02*
X177250000Y-79792500D01*
X174250000Y-52532500D02*
X174250000Y-53392500D01*
X172540000Y-78622500D02*
X173050000Y-78622500D01*
X177760000Y-80652500D02*
X177760000Y-52532500D01*
X172540000Y-56062500D02*
X173050000Y-56062500D01*
X175050000Y-80652500D02*
X175050000Y-79792500D01*
X177250000Y-79792500D02*
X177250000Y-53392500D01*
X176150000Y-52332500D02*
X175850000Y-51732500D01*
X177250000Y-53392500D02*
X173050000Y-53392500D01*
X176450000Y-51732500D02*
X176150000Y-52332500D01*
X177760000Y-52532500D02*
X172540000Y-52532500D01*
X172540000Y-77122500D02*
X173050000Y-77122500D01*
X172540000Y-52532500D02*
X172540000Y-80652500D01*
X177760000Y-55122500D02*
X177250000Y-55122500D01*
X175050000Y-52532500D02*
X175050000Y-53392500D01*
X177760000Y-77122500D02*
X177250000Y-77122500D01*
X177760000Y-78062500D02*
X177250000Y-78062500D01*
X172540000Y-54562500D02*
X173050000Y-54562500D01*
X177760000Y-56062500D02*
X177250000Y-56062500D01*
X174250000Y-80652500D02*
X174250000Y-79792500D01*
%TO.C,R4*%
X164360000Y-75197936D02*
X164360000Y-78252064D01*
X161640000Y-75197936D02*
X161640000Y-78252064D01*
%TO.C,J2*%
X156860000Y-78450000D02*
X156860000Y-79950000D01*
X156860000Y-70450000D02*
X149600000Y-70450000D01*
X156860000Y-70450000D02*
X156860000Y-71950000D01*
X156860000Y-79950000D02*
X149600000Y-79950000D01*
D14*
%TO.C,K1*%
X165264500Y-66390000D02*
X165264500Y-65640000D01*
X171764500Y-63190000D02*
X165264500Y-63190000D01*
X165264500Y-73190000D02*
X165264500Y-73039000D01*
X171764500Y-65640000D02*
X171764500Y-66390000D01*
X171764500Y-73190000D02*
X171764500Y-73039000D01*
X165264500Y-63190000D02*
X165264500Y-63341000D01*
X171764500Y-63341000D02*
X171764500Y-63190000D01*
X165264500Y-73190000D02*
X171764500Y-73190000D01*
D15*
X164599500Y-64390000D02*
G75*
G03*
X164599500Y-64390000I-100000J0D01*
G01*
D16*
%TO.C,R1*%
X170202064Y-54515000D02*
X167147936Y-54515000D01*
X170202064Y-57235000D02*
X167147936Y-57235000D01*
%TD*%
%LPC*%
D17*
%TO.C,D1*%
X160075000Y-72945000D03*
X160075000Y-75805000D03*
%TD*%
D18*
%TO.C,R8*%
X170410000Y-74650000D03*
X170410000Y-79450000D03*
%TD*%
%TO.C,R7*%
X167020000Y-74680000D03*
X167020000Y-79480000D03*
%TD*%
D19*
%TO.C,R6*%
X167625000Y-53550000D03*
X165975000Y-53550000D03*
%TD*%
D20*
%TO.C,J3*%
X153950000Y-54987500D03*
X153950000Y-66417500D03*
D21*
X160300000Y-56257500D03*
D22*
X162840000Y-57527500D03*
X160300000Y-58797500D03*
X162840000Y-60067500D03*
X160300000Y-61337500D03*
X162840000Y-62607500D03*
X160300000Y-63877500D03*
X162840000Y-65147500D03*
%TD*%
D23*
%TO.C,Q1*%
X164025000Y-70012500D03*
X162125000Y-70012500D03*
X163075000Y-71887500D03*
%TD*%
D19*
%TO.C,R5*%
X171375000Y-53475000D03*
X169725000Y-53475000D03*
%TD*%
D24*
%TO.C,CR1*%
X165660000Y-60925000D03*
X165660000Y-58955000D03*
D25*
X169410000Y-59940000D03*
%TD*%
D26*
%TO.C,J1*%
X176150000Y-54592500D03*
D27*
X174150000Y-54592500D03*
X176150000Y-56592500D03*
X174150000Y-56592500D03*
X176150000Y-58592500D03*
X174150000Y-58592500D03*
X176150000Y-60592500D03*
X174150000Y-60592500D03*
X176150000Y-62592500D03*
X174150000Y-62592500D03*
X176150000Y-64592500D03*
X174150000Y-64592500D03*
X176150000Y-66592500D03*
X174150000Y-66592500D03*
X176150000Y-68592500D03*
X174150000Y-68592500D03*
X176150000Y-70592500D03*
X174150000Y-70592500D03*
X176150000Y-72592500D03*
X174150000Y-72592500D03*
X176150000Y-74592500D03*
X174150000Y-74592500D03*
X176150000Y-76592500D03*
X174150000Y-76592500D03*
X176150000Y-78592500D03*
X174150000Y-78592500D03*
%TD*%
D18*
%TO.C,R4*%
X163000000Y-74325000D03*
X163000000Y-79125000D03*
%TD*%
D28*
%TO.C,J2*%
X155850000Y-78800000D03*
D29*
X155850000Y-71600000D03*
D30*
X156510000Y-72450000D03*
X156510000Y-72950000D03*
X156510000Y-73450000D03*
X156510000Y-73950000D03*
X156510000Y-74450000D03*
X156510000Y-74950000D03*
X156510000Y-75450000D03*
X156510000Y-75950000D03*
X156510000Y-76450000D03*
X156510000Y-76950000D03*
X156510000Y-77450000D03*
X156510000Y-77950000D03*
D29*
X155200000Y-78000000D03*
X154500000Y-77600000D03*
X154500000Y-76800000D03*
X155200000Y-76400000D03*
X154500000Y-76000000D03*
X155200000Y-75600000D03*
X155200000Y-74800000D03*
X154500000Y-74400000D03*
X155200000Y-74000000D03*
X154500000Y-73600000D03*
X154500000Y-72800000D03*
X155200000Y-72400000D03*
D31*
X148650000Y-70710000D03*
X148650000Y-79690000D03*
X154600000Y-71070000D03*
X154600000Y-79330000D03*
%TD*%
D32*
%TO.C,K1*%
X165974500Y-64390000D03*
D33*
X165974500Y-67590000D03*
X165974500Y-69790000D03*
X165974500Y-71990000D03*
X171054500Y-71990000D03*
X171054500Y-69790000D03*
X171054500Y-67590000D03*
X171054500Y-64390000D03*
%TD*%
D34*
%TO.C,R1*%
X171075000Y-55875000D03*
X166275000Y-55875000D03*
%TD*%
M02*
