%TF.GenerationSoftware,KiCad,Pcbnew,(6.0.5-0)*%
%TF.CreationDate,2022-06-16T12:53:31+02:00*%
%TF.ProjectId,Relay,52656c61-792e-46b6-9963-61645f706362,rev?*%
%TF.SameCoordinates,Original*%
%TF.FileFunction,Copper,L2,Bot*%
%TF.FilePolarity,Positive*%
%FSLAX46Y46*%
G04 Gerber Fmt 4.6, Leading zero omitted, Abs format (unit mm)*
G04 Created by KiCad (PCBNEW (6.0.5-0)) date 2022-06-16 12:53:31*
%MOMM*%
%LPD*%
G01*
G04 APERTURE LIST*
G04 Aperture macros list*
%AMRoundRect*
0 Rectangle with rounded corners*
0 $1 Rounding radius*
0 $2 $3 $4 $5 $6 $7 $8 $9 X,Y pos of 4 corners*
0 Add a 4 corners polygon primitive as box body*
4,1,4,$2,$3,$4,$5,$6,$7,$8,$9,$2,$3,0*
0 Add four circle primitives for the rounded corners*
1,1,$1+$1,$2,$3*
1,1,$1+$1,$4,$5*
1,1,$1+$1,$6,$7*
1,1,$1+$1,$8,$9*
0 Add four rect primitives between the rounded corners*
20,1,$1+$1,$2,$3,$4,$5,0*
20,1,$1+$1,$4,$5,$6,$7,0*
20,1,$1+$1,$6,$7,$8,$9,0*
20,1,$1+$1,$8,$9,$2,$3,0*%
G04 Aperture macros list end*
%TA.AperFunction,ComponentPad*%
%ADD10O,1.800000X0.950000*%
%TD*%
%TA.AperFunction,ComponentPad*%
%ADD11O,1.400000X0.800000*%
%TD*%
%TA.AperFunction,ComponentPad*%
%ADD12C,0.650000*%
%TD*%
%TA.AperFunction,ComponentPad*%
%ADD13R,1.500000X1.500000*%
%TD*%
%TA.AperFunction,ComponentPad*%
%ADD14C,1.500000*%
%TD*%
%TA.AperFunction,ComponentPad*%
%ADD15RoundRect,0.250000X-0.350000X0.350000X-0.350000X-0.350000X0.350000X-0.350000X0.350000X0.350000X0*%
%TD*%
%TA.AperFunction,ComponentPad*%
%ADD16C,1.200000*%
%TD*%
%TA.AperFunction,ComponentPad*%
%ADD17R,1.458000X1.458000*%
%TD*%
%TA.AperFunction,ComponentPad*%
%ADD18C,1.458000*%
%TD*%
%TA.AperFunction,ViaPad*%
%ADD19C,0.800000*%
%TD*%
%TA.AperFunction,ViaPad*%
%ADD20C,1.000000*%
%TD*%
%TA.AperFunction,Conductor*%
%ADD21C,0.300000*%
%TD*%
%TA.AperFunction,Conductor*%
%ADD22C,0.600000*%
%TD*%
%TA.AperFunction,Conductor*%
%ADD23C,0.400000*%
%TD*%
G04 APERTURE END LIST*
D10*
%TO.P,J2,31*%
%TO.N,GND*%
X149130000Y-79690000D03*
D11*
%TO.P,J2,32*%
X153640000Y-79330000D03*
%TO.P,J2,33*%
X153640000Y-71070000D03*
D10*
%TO.P,J2,34*%
X149130000Y-70710000D03*
D12*
%TO.P,J2,B1,GND*%
X154240000Y-78000000D03*
%TO.P,J2,B2,TX2+*%
%TO.N,CAN2_H*%
X153540000Y-77600000D03*
%TO.P,J2,B3,TX2-*%
%TO.N,CAN2_L*%
X153540000Y-76800000D03*
%TO.P,J2,B4,VBUS*%
%TO.N,+12V*%
X154240000Y-76400000D03*
%TO.P,J2,B5,CC2*%
%TO.N,unconnected-(J2-PadB5)*%
X153540000Y-76000000D03*
%TO.P,J2,B6,D+*%
%TO.N,unconnected-(J2-PadB6)*%
X154240000Y-75600000D03*
%TO.P,J2,B7,D-*%
%TO.N,unconnected-(J2-PadB7)*%
X154240000Y-74800000D03*
%TO.P,J2,B8,SBU2*%
%TO.N,SBU2*%
X153540000Y-74400000D03*
%TO.P,J2,B9,VBUS*%
%TO.N,+12V*%
X154240000Y-74000000D03*
%TO.P,J2,B10,RX1-*%
%TO.N,CAN3_L*%
X153540000Y-73600000D03*
%TO.P,J2,B11,RX1+*%
%TO.N,CAN3_H*%
X153540000Y-72800000D03*
%TO.P,J2,B12,GND*%
%TO.N,GND*%
X154240000Y-72400000D03*
%TD*%
D13*
%TO.P,J3,1*%
%TO.N,GND*%
X160300000Y-56257500D03*
D14*
%TO.P,J3,2*%
%TO.N,CAN3_L*%
X162840000Y-57527500D03*
%TO.P,J3,3*%
%TO.N,Net-(J3-Pad3)*%
X160300000Y-58797500D03*
%TO.P,J3,4*%
%TO.N,CAN3_H*%
X162840000Y-60067500D03*
%TO.P,J3,5*%
%TO.N,GND*%
X160300000Y-61337500D03*
%TO.P,J3,6*%
%TO.N,Net-(J3-Pad6)*%
X162840000Y-62607500D03*
%TO.P,J3,7*%
%TO.N,+12V*%
X160300000Y-63877500D03*
%TO.P,J3,8*%
X162840000Y-65147500D03*
%TD*%
D15*
%TO.P,J1,1,Pin_1*%
%TO.N,GND*%
X176150000Y-54592500D03*
D16*
%TO.P,J1,2,Pin_2*%
%TO.N,IGN*%
X174150000Y-54592500D03*
%TO.P,J1,3,Pin_3*%
%TO.N,CAN0_H*%
X176150000Y-56592500D03*
%TO.P,J1,4,Pin_4*%
X174150000Y-56592500D03*
%TO.P,J1,5,Pin_5*%
%TO.N,Net-(J1-Pad5)*%
X176150000Y-58592500D03*
%TO.P,J1,6,Pin_6*%
%TO.N,CAN0_L*%
X174150000Y-58592500D03*
%TO.P,J1,7,Pin_7*%
%TO.N,Net-(J1-Pad21)*%
X176150000Y-60592500D03*
%TO.P,J1,8,Pin_8*%
%TO.N,CAN1_H*%
X174150000Y-60592500D03*
%TO.P,J1,9,Pin_9*%
%TO.N,Net-(J1-Pad19)*%
X176150000Y-62592500D03*
%TO.P,J1,10,Pin_10*%
%TO.N,CAN1_L*%
X174150000Y-62592500D03*
%TO.P,J1,11,Pin_11*%
%TO.N,Net-(J1-Pad11)*%
X176150000Y-64592500D03*
%TO.P,J1,12,Pin_12*%
%TO.N,+12V*%
X174150000Y-64592500D03*
%TO.P,J1,13,Pin_13*%
%TO.N,Net-(J1-Pad13)*%
X176150000Y-66592500D03*
%TO.P,J1,14,Pin_14*%
%TO.N,+12V*%
X174150000Y-66592500D03*
%TO.P,J1,15,Pin_15*%
%TO.N,Net-(J1-Pad13)*%
X176150000Y-68592500D03*
%TO.P,J1,16,Pin_16*%
%TO.N,IGN*%
X174150000Y-68592500D03*
%TO.P,J1,17,Pin_17*%
%TO.N,Net-(J1-Pad11)*%
X176150000Y-70592500D03*
%TO.P,J1,18,Pin_18*%
%TO.N,CAN1_H*%
X174150000Y-70592500D03*
%TO.P,J1,19,Pin_19*%
%TO.N,Net-(J1-Pad19)*%
X176150000Y-72592500D03*
%TO.P,J1,20,Pin_20*%
%TO.N,CAN1_L*%
X174150000Y-72592500D03*
%TO.P,J1,21,Pin_21*%
%TO.N,Net-(J1-Pad21)*%
X176150000Y-74592500D03*
%TO.P,J1,22,Pin_22*%
%TO.N,CAN2_H*%
X174150000Y-74592500D03*
%TO.P,J1,23,Pin_23*%
%TO.N,CAN2_L*%
X176150000Y-76592500D03*
%TO.P,J1,24,Pin_24*%
X174150000Y-76592500D03*
%TO.P,J1,25,Pin_25*%
%TO.N,Net-(J1-Pad25)*%
X176150000Y-78592500D03*
%TO.P,J1,26,Pin_26*%
%TO.N,GND*%
X174150000Y-78592500D03*
%TD*%
D17*
%TO.P,K1,1*%
%TO.N,SBU1*%
X165974500Y-64390000D03*
D18*
%TO.P,K1,2*%
%TO.N,CAN0_H*%
X165974500Y-67590000D03*
%TO.P,K1,3*%
%TO.N,CAN2_H*%
X165974500Y-69790000D03*
%TO.P,K1,4*%
%TO.N,Relay_4*%
X165974500Y-71990000D03*
%TO.P,K1,5*%
%TO.N,Relay_5*%
X171054500Y-71990000D03*
%TO.P,K1,6*%
%TO.N,CAN0_L*%
X171054500Y-69790000D03*
%TO.P,K1,7*%
%TO.N,CAN2_L*%
X171054500Y-67590000D03*
%TO.P,K1,8*%
%TO.N,GND*%
X171054500Y-64390000D03*
%TD*%
D19*
%TO.N,GND*%
X161143750Y-70993750D03*
X160425000Y-71600000D03*
X178025000Y-59575000D03*
X160550000Y-54975000D03*
X154200000Y-69950000D03*
X157975000Y-78575000D03*
X167550000Y-63550000D03*
X166425000Y-78175000D03*
X162725000Y-68925000D03*
D20*
X178525000Y-55675000D03*
D19*
%TO.N,IGN*%
X165660000Y-60040000D03*
X163150000Y-67175000D03*
%TO.N,CAN0_H*%
X168800000Y-55275000D03*
X156525000Y-67775000D03*
%TO.N,CAN0_L*%
X166000000Y-65975000D03*
X158025000Y-67225000D03*
X172275000Y-53000000D03*
%TO.N,CAN2_L*%
X164950000Y-80100000D03*
%TO.N,Relay_5*%
X169800500Y-56815989D03*
%TD*%
D21*
%TO.N,GND*%
X153640000Y-71070000D02*
X153640000Y-70510000D01*
X153640000Y-70510000D02*
X154200000Y-69950000D01*
X154240000Y-78000000D02*
X153640000Y-78600000D01*
X153640000Y-78600000D02*
X153640000Y-79330000D01*
%TO.N,CAN2_L*%
X164950000Y-80100000D02*
X164750000Y-79900000D01*
X164750000Y-79900000D02*
X155354626Y-79900000D01*
X155354626Y-79900000D02*
X155104626Y-80150000D01*
X155104626Y-80150000D02*
X153125000Y-80150000D01*
X153125000Y-80150000D02*
X152350000Y-79375000D01*
X152350000Y-79375000D02*
X152350000Y-77530381D01*
X152350000Y-77530381D02*
X153080381Y-76800000D01*
X153080381Y-76800000D02*
X153540000Y-76800000D01*
%TO.N,GND*%
X154200000Y-69950000D02*
X154264629Y-69950000D01*
X154264629Y-69950000D02*
X155630000Y-71315371D01*
X155630000Y-71315371D02*
X155630000Y-71884629D01*
X155114629Y-72400000D02*
X154240000Y-72400000D01*
X155630000Y-71884629D02*
X155114629Y-72400000D01*
D22*
%TO.N,+12V*%
X154830000Y-74000000D02*
X155070000Y-74240000D01*
X154240000Y-74000000D02*
X154830000Y-74000000D01*
X155070000Y-74240000D02*
X155070000Y-76080000D01*
X154750000Y-76400000D02*
X154240000Y-76400000D01*
X155070000Y-76080000D02*
X154750000Y-76400000D01*
D21*
%TO.N,CAN3_H*%
X153540000Y-72800000D02*
X152590000Y-72800000D01*
X152590000Y-72800000D02*
X151800000Y-72010000D01*
X151800000Y-72010000D02*
X151800000Y-65612494D01*
D23*
%TO.N,CAN3_L*%
X162840000Y-57527500D02*
X158747500Y-57527500D01*
X158747500Y-57527500D02*
X150925000Y-65350000D01*
X150925000Y-65350000D02*
X150925000Y-72005000D01*
X150925000Y-72005000D02*
X152520000Y-73600000D01*
X152520000Y-73600000D02*
X153540000Y-73600000D01*
D21*
%TO.N,CAN2_H*%
X153540000Y-77600000D02*
X153721452Y-77600000D01*
X153721452Y-77600000D02*
X153970963Y-77350489D01*
X153970963Y-77350489D02*
X154770489Y-77350489D01*
X154770489Y-77350489D02*
X155020000Y-77600000D01*
X155020000Y-77600000D02*
X163400000Y-77600000D01*
X163400000Y-77600000D02*
X164900000Y-79100000D01*
X164900000Y-79100000D02*
X169642500Y-79100000D01*
X169642500Y-79100000D02*
X174150000Y-74592500D01*
%TO.N,GND*%
X171054500Y-64390000D02*
X171054500Y-62370500D01*
X171054500Y-62370500D02*
X173850000Y-59575000D01*
X173850000Y-59575000D02*
X178025000Y-59575000D01*
D23*
%TO.N,IGN*%
X164025000Y-66300000D02*
X164025000Y-61675000D01*
X163150000Y-67175000D02*
X164025000Y-66300000D01*
X164025000Y-61675000D02*
X165660000Y-60040000D01*
D21*
%TO.N,CAN0_H*%
X167235000Y-67590000D02*
X168525000Y-66300000D01*
X176150000Y-56592500D02*
X174150000Y-56592500D01*
X168525000Y-55550000D02*
X168800000Y-55275000D01*
X165974500Y-67590000D02*
X167235000Y-67590000D01*
X168800000Y-55275000D02*
X172832500Y-55275000D01*
X168525000Y-66300000D02*
X168525000Y-55550000D01*
X163599989Y-69964511D02*
X165974500Y-67590000D01*
X156525000Y-67775000D02*
X158714511Y-69964511D01*
X158714511Y-69964511D02*
X163599989Y-69964511D01*
X172832500Y-55275000D02*
X174150000Y-56592500D01*
%TO.N,CAN0_L*%
X172800000Y-53525000D02*
X176625000Y-53525000D01*
X172275000Y-53000000D02*
X172800000Y-53525000D01*
X175074511Y-57667989D02*
X174150000Y-58592500D01*
X158025000Y-67225000D02*
X158950000Y-67225000D01*
X170000989Y-61774011D02*
X173182500Y-58592500D01*
X171054500Y-69790000D02*
X170000989Y-68736489D01*
X159725000Y-68000000D02*
X163825000Y-68000000D01*
X177100000Y-54000000D02*
X177100000Y-56949957D01*
X170000989Y-68736489D02*
X170000989Y-61774011D01*
X165850000Y-65975000D02*
X166000000Y-65975000D01*
X176625000Y-53525000D02*
X177100000Y-54000000D01*
X158950000Y-67225000D02*
X159725000Y-68000000D01*
X177100000Y-56949957D02*
X176381968Y-57667989D01*
X176381968Y-57667989D02*
X175074511Y-57667989D01*
X163825000Y-68000000D02*
X165850000Y-65975000D01*
X173182500Y-58592500D02*
X174150000Y-58592500D01*
%TO.N,CAN1_H*%
X173225489Y-61517011D02*
X173225489Y-69667989D01*
X174150000Y-60592500D02*
X173225489Y-61517011D01*
X173225489Y-69667989D02*
X174150000Y-70592500D01*
%TO.N,CAN1_L*%
X175074511Y-71667989D02*
X174150000Y-72592500D01*
X175074511Y-63517011D02*
X175074511Y-71667989D01*
X174150000Y-62592500D02*
X175074511Y-63517011D01*
%TO.N,CAN2_L*%
X165475480Y-79574520D02*
X164950000Y-80100000D01*
X172108011Y-71857968D02*
X173918032Y-73667989D01*
X172821072Y-76592500D02*
X169839052Y-79574520D01*
X175225489Y-75667989D02*
X176150000Y-76592500D01*
X169839052Y-79574520D02*
X165475480Y-79574520D01*
X176150000Y-76592500D02*
X174150000Y-76592500D01*
X175225489Y-74350489D02*
X175225489Y-75667989D01*
X174542989Y-73667989D02*
X175225489Y-74350489D01*
X172108011Y-68643511D02*
X172108011Y-71857968D01*
X174150000Y-76592500D02*
X172821072Y-76592500D01*
X171054500Y-67590000D02*
X172108011Y-68643511D01*
X173918032Y-73667989D02*
X174542989Y-73667989D01*
D23*
%TO.N,CAN3_H*%
X162840000Y-60387800D02*
X162840000Y-60067500D01*
X157344994Y-60067500D02*
X162840000Y-60067500D01*
X151800000Y-65612494D02*
X157344994Y-60067500D01*
D21*
%TO.N,CAN2_H*%
X165974500Y-69790000D02*
X166540000Y-69790000D01*
X171342500Y-74592500D02*
X174150000Y-74592500D01*
X166540000Y-69790000D02*
X171342500Y-74592500D01*
%TO.N,Relay_5*%
X169800500Y-56815989D02*
X169175000Y-57441489D01*
X169175000Y-57441489D02*
X169175000Y-70110500D01*
X169175000Y-70110500D02*
X171054500Y-71990000D01*
%TD*%
%TA.AperFunction,Conductor*%
%TO.N,GND*%
G36*
X152825479Y-52988502D02*
G01*
X152871972Y-53042158D01*
X152882076Y-53112432D01*
X152852582Y-53177012D01*
X152829811Y-53197585D01*
X152619977Y-53345059D01*
X152604892Y-53359077D01*
X152419638Y-53531226D01*
X152409378Y-53540760D01*
X152227287Y-53763232D01*
X152077073Y-54008358D01*
X152075347Y-54012291D01*
X152075346Y-54012292D01*
X152009462Y-54162380D01*
X151961517Y-54271602D01*
X151960342Y-54275729D01*
X151960341Y-54275730D01*
X151934405Y-54366780D01*
X151882756Y-54548094D01*
X151842249Y-54832716D01*
X151842227Y-54837005D01*
X151842226Y-54837012D01*
X151840765Y-55115917D01*
X151840743Y-55120203D01*
X151841302Y-55124447D01*
X151841302Y-55124451D01*
X151857810Y-55249840D01*
X151878268Y-55405234D01*
X151954129Y-55682536D01*
X151955813Y-55686484D01*
X152052857Y-55913998D01*
X152066923Y-55946976D01*
X152113542Y-56024871D01*
X152180724Y-56137123D01*
X152214561Y-56193661D01*
X152394313Y-56418028D01*
X152422138Y-56444433D01*
X152547765Y-56563648D01*
X152602851Y-56615923D01*
X152836317Y-56783686D01*
X152840112Y-56785695D01*
X152840113Y-56785696D01*
X152861869Y-56797215D01*
X153090392Y-56918212D01*
X153212546Y-56962914D01*
X153347213Y-57012195D01*
X153360373Y-57017011D01*
X153641264Y-57078255D01*
X153669841Y-57080504D01*
X153864282Y-57095807D01*
X153864291Y-57095807D01*
X153866739Y-57096000D01*
X154022271Y-57096000D01*
X154024407Y-57095854D01*
X154024418Y-57095854D01*
X154232548Y-57081665D01*
X154232554Y-57081664D01*
X154236825Y-57081373D01*
X154241020Y-57080504D01*
X154241022Y-57080504D01*
X154432625Y-57040825D01*
X154518342Y-57023074D01*
X154789343Y-56927107D01*
X154999363Y-56818708D01*
X155041005Y-56797215D01*
X155041006Y-56797215D01*
X155044812Y-56795250D01*
X155048313Y-56792789D01*
X155048317Y-56792787D01*
X155276205Y-56632624D01*
X155280023Y-56629941D01*
X155472890Y-56450718D01*
X155487479Y-56437161D01*
X155487481Y-56437158D01*
X155490622Y-56434240D01*
X155672713Y-56211768D01*
X155822927Y-55966642D01*
X155938483Y-55703398D01*
X156017244Y-55426906D01*
X156057751Y-55142284D01*
X156057845Y-55124451D01*
X156059235Y-54859083D01*
X156059235Y-54859076D01*
X156059257Y-54854797D01*
X156021732Y-54569766D01*
X156004208Y-54505707D01*
X155976612Y-54404834D01*
X155945871Y-54292464D01*
X155889043Y-54159233D01*
X155834763Y-54031976D01*
X155834761Y-54031972D01*
X155833077Y-54028024D01*
X155754163Y-53896169D01*
X155687643Y-53785021D01*
X155687640Y-53785017D01*
X155685439Y-53781339D01*
X155505687Y-53556972D01*
X155297149Y-53359077D01*
X155071348Y-53196822D01*
X155027700Y-53140828D01*
X155021254Y-53070124D01*
X155054057Y-53007160D01*
X155115693Y-52971926D01*
X155144874Y-52968500D01*
X171244734Y-52968500D01*
X171312855Y-52988502D01*
X171359348Y-53042158D01*
X171370044Y-53081330D01*
X171381458Y-53189928D01*
X171440473Y-53371556D01*
X171535960Y-53536944D01*
X171540378Y-53541851D01*
X171540379Y-53541852D01*
X171622403Y-53632949D01*
X171663747Y-53678866D01*
X171693093Y-53700187D01*
X171800182Y-53777992D01*
X171818248Y-53791118D01*
X171824276Y-53793802D01*
X171824278Y-53793803D01*
X171900114Y-53827567D01*
X171992712Y-53868794D01*
X172085680Y-53888555D01*
X172173056Y-53907128D01*
X172173061Y-53907128D01*
X172179513Y-53908500D01*
X172197839Y-53908500D01*
X172265960Y-53928502D01*
X172288336Y-53948344D01*
X172288584Y-53948080D01*
X172340257Y-53996604D01*
X172343099Y-53999359D01*
X172363667Y-54019927D01*
X172367170Y-54022644D01*
X172376195Y-54030352D01*
X172409867Y-54061972D01*
X172416818Y-54065793D01*
X172416819Y-54065794D01*
X172428658Y-54072303D01*
X172445182Y-54083157D01*
X172455865Y-54091443D01*
X172462132Y-54096304D01*
X172469407Y-54099452D01*
X172504536Y-54114654D01*
X172515181Y-54119869D01*
X172555663Y-54142124D01*
X172563337Y-54144094D01*
X172563344Y-54144097D01*
X172576426Y-54147455D01*
X172595134Y-54153860D01*
X172614823Y-54162380D01*
X172622649Y-54163619D01*
X172622651Y-54163620D01*
X172647159Y-54167501D01*
X172660459Y-54169608D01*
X172672070Y-54172012D01*
X172703107Y-54179981D01*
X172709135Y-54181529D01*
X172709136Y-54181529D01*
X172716812Y-54183500D01*
X172738258Y-54183500D01*
X172757968Y-54185051D01*
X172771322Y-54187166D01*
X172771323Y-54187166D01*
X172779152Y-54188406D01*
X172825141Y-54184059D01*
X172836996Y-54183500D01*
X172945148Y-54183500D01*
X173013269Y-54203502D01*
X173059762Y-54257158D01*
X173069866Y-54327432D01*
X173065481Y-54346861D01*
X173062793Y-54355518D01*
X173062792Y-54355524D01*
X173061078Y-54361043D01*
X173046080Y-54487763D01*
X173043956Y-54505707D01*
X173016086Y-54571004D01*
X172957337Y-54610868D01*
X172915688Y-54614729D01*
X172915688Y-54616500D01*
X172894241Y-54616500D01*
X172874531Y-54614949D01*
X172861177Y-54612834D01*
X172853348Y-54611594D01*
X172807359Y-54615941D01*
X172795504Y-54616500D01*
X169480224Y-54616500D01*
X169412103Y-54596498D01*
X169406163Y-54592436D01*
X169405909Y-54592251D01*
X169339450Y-54543966D01*
X169262094Y-54487763D01*
X169262093Y-54487762D01*
X169256752Y-54483882D01*
X169250724Y-54481198D01*
X169250722Y-54481197D01*
X169088319Y-54408891D01*
X169088318Y-54408891D01*
X169082288Y-54406206D01*
X168978128Y-54384066D01*
X168901944Y-54367872D01*
X168901939Y-54367872D01*
X168895487Y-54366500D01*
X168704513Y-54366500D01*
X168698061Y-54367872D01*
X168698056Y-54367872D01*
X168621872Y-54384066D01*
X168517712Y-54406206D01*
X168511682Y-54408891D01*
X168511681Y-54408891D01*
X168349278Y-54481197D01*
X168349276Y-54481198D01*
X168343248Y-54483882D01*
X168337907Y-54487762D01*
X168337906Y-54487763D01*
X168287843Y-54524136D01*
X168188747Y-54596134D01*
X168184326Y-54601044D01*
X168184325Y-54601045D01*
X168142898Y-54647055D01*
X168060960Y-54738056D01*
X167965473Y-54903444D01*
X167906458Y-55085072D01*
X167905768Y-55091633D01*
X167905768Y-55091635D01*
X167902319Y-55124451D01*
X167886496Y-55275000D01*
X167887186Y-55281565D01*
X167887186Y-55281566D01*
X167891418Y-55321833D01*
X167887583Y-55364819D01*
X167887620Y-55364825D01*
X167886381Y-55372648D01*
X167886380Y-55372651D01*
X167880394Y-55410448D01*
X167877987Y-55422071D01*
X167870798Y-55450072D01*
X167866500Y-55466812D01*
X167866500Y-55488259D01*
X167864949Y-55507969D01*
X167861594Y-55529152D01*
X167862340Y-55537043D01*
X167865941Y-55575138D01*
X167866500Y-55586996D01*
X167866500Y-65975050D01*
X167846498Y-66043171D01*
X167829595Y-66064146D01*
X167103259Y-66790481D01*
X167040947Y-66824506D01*
X166970131Y-66819441D01*
X166925069Y-66790480D01*
X166773545Y-66638956D01*
X166739519Y-66576644D01*
X166744584Y-66505829D01*
X166753515Y-66486872D01*
X166834527Y-66346556D01*
X166893542Y-66164928D01*
X166898432Y-66118408D01*
X166912814Y-65981565D01*
X166913504Y-65975000D01*
X166900113Y-65847591D01*
X166894233Y-65791642D01*
X166894232Y-65791638D01*
X166893542Y-65785072D01*
X166889999Y-65774166D01*
X166874530Y-65726561D01*
X166872502Y-65655594D01*
X166909164Y-65594795D01*
X166934922Y-65578897D01*
X166933926Y-65577077D01*
X166941802Y-65572765D01*
X166950205Y-65569615D01*
X166957384Y-65564235D01*
X166957387Y-65564233D01*
X167059581Y-65487642D01*
X167066761Y-65482261D01*
X167154115Y-65365705D01*
X167205245Y-65229316D01*
X167212000Y-65167134D01*
X167212000Y-63612866D01*
X167205245Y-63550684D01*
X167154115Y-63414295D01*
X167066761Y-63297739D01*
X166950205Y-63210385D01*
X166813816Y-63159255D01*
X166751634Y-63152500D01*
X165197366Y-63152500D01*
X165135184Y-63159255D01*
X164998795Y-63210385D01*
X164988943Y-63217769D01*
X164935065Y-63258148D01*
X164868559Y-63282996D01*
X164799176Y-63267943D01*
X164748946Y-63217769D01*
X164733500Y-63157322D01*
X164733500Y-62020660D01*
X164753502Y-61952539D01*
X164770401Y-61931569D01*
X165726536Y-60975435D01*
X165789432Y-60941285D01*
X165842105Y-60930089D01*
X165942288Y-60908794D01*
X165999246Y-60883435D01*
X166110722Y-60833803D01*
X166110724Y-60833802D01*
X166116752Y-60831118D01*
X166271253Y-60718866D01*
X166381698Y-60596204D01*
X166394621Y-60581852D01*
X166394622Y-60581851D01*
X166399040Y-60576944D01*
X166480432Y-60435969D01*
X166491223Y-60417279D01*
X166491224Y-60417278D01*
X166494527Y-60411556D01*
X166553542Y-60229928D01*
X166556782Y-60199106D01*
X166572814Y-60046565D01*
X166573504Y-60040000D01*
X166567896Y-59986646D01*
X166554232Y-59856635D01*
X166554232Y-59856633D01*
X166553542Y-59850072D01*
X166494527Y-59668444D01*
X166399040Y-59503056D01*
X166348121Y-59446504D01*
X166275675Y-59366045D01*
X166275674Y-59366044D01*
X166271253Y-59361134D01*
X166147697Y-59271365D01*
X166122094Y-59252763D01*
X166122093Y-59252762D01*
X166116752Y-59248882D01*
X166110724Y-59246198D01*
X166110722Y-59246197D01*
X165948319Y-59173891D01*
X165948318Y-59173891D01*
X165942288Y-59171206D01*
X165838401Y-59149124D01*
X165761944Y-59132872D01*
X165761939Y-59132872D01*
X165755487Y-59131500D01*
X165564513Y-59131500D01*
X165558061Y-59132872D01*
X165558056Y-59132872D01*
X165481599Y-59149124D01*
X165377712Y-59171206D01*
X165371682Y-59173891D01*
X165371681Y-59173891D01*
X165209278Y-59246197D01*
X165209276Y-59246198D01*
X165203248Y-59248882D01*
X165197907Y-59252762D01*
X165197906Y-59252763D01*
X165172303Y-59271365D01*
X165048747Y-59361134D01*
X165044326Y-59366044D01*
X165044325Y-59366045D01*
X164971880Y-59446504D01*
X164920960Y-59503056D01*
X164825473Y-59668444D01*
X164813199Y-59706218D01*
X164768537Y-59843675D01*
X164766458Y-59850072D01*
X164765768Y-59856635D01*
X164765768Y-59856637D01*
X164761550Y-59896770D01*
X164734537Y-59962427D01*
X164725335Y-59972695D01*
X164296087Y-60401943D01*
X164233775Y-60435969D01*
X164162960Y-60430904D01*
X164106124Y-60388357D01*
X164081313Y-60321837D01*
X164082880Y-60291481D01*
X164084115Y-60286871D01*
X164103307Y-60067500D01*
X164084115Y-59848129D01*
X164027120Y-59635424D01*
X163982766Y-59540306D01*
X163936382Y-59440834D01*
X163936379Y-59440829D01*
X163934056Y-59435847D01*
X163930899Y-59431338D01*
X163810908Y-59259973D01*
X163810906Y-59259970D01*
X163807749Y-59255462D01*
X163652038Y-59099751D01*
X163471654Y-58973444D01*
X163466672Y-58971121D01*
X163466667Y-58971118D01*
X163339232Y-58911695D01*
X163285947Y-58864778D01*
X163266486Y-58796501D01*
X163287028Y-58728541D01*
X163339232Y-58683305D01*
X163466667Y-58623882D01*
X163466672Y-58623879D01*
X163471654Y-58621556D01*
X163581538Y-58544614D01*
X163647527Y-58498408D01*
X163647529Y-58498406D01*
X163652038Y-58495249D01*
X163807749Y-58339538D01*
X163818885Y-58323635D01*
X163930899Y-58163662D01*
X163930900Y-58163660D01*
X163934056Y-58159153D01*
X163936379Y-58154171D01*
X163936382Y-58154166D01*
X164001030Y-58015527D01*
X164027120Y-57959576D01*
X164084115Y-57746871D01*
X164103307Y-57527500D01*
X164084115Y-57308129D01*
X164027120Y-57095424D01*
X163972660Y-56978634D01*
X163936382Y-56900834D01*
X163936379Y-56900829D01*
X163934056Y-56895847D01*
X163930899Y-56891338D01*
X163810908Y-56719973D01*
X163810906Y-56719970D01*
X163807749Y-56715462D01*
X163652038Y-56559751D01*
X163471654Y-56433444D01*
X163272076Y-56340380D01*
X163059371Y-56283385D01*
X162840000Y-56264193D01*
X162620629Y-56283385D01*
X162407924Y-56340380D01*
X162314781Y-56383813D01*
X162213334Y-56431118D01*
X162213329Y-56431121D01*
X162208347Y-56433444D01*
X162203840Y-56436600D01*
X162203838Y-56436601D01*
X162032473Y-56556592D01*
X162032470Y-56556594D01*
X162027962Y-56559751D01*
X161872251Y-56715462D01*
X161869094Y-56719970D01*
X161869092Y-56719973D01*
X161837374Y-56765271D01*
X161781916Y-56809599D01*
X161734161Y-56819000D01*
X158776427Y-56819000D01*
X158767858Y-56818708D01*
X158717725Y-56815290D01*
X158717721Y-56815290D01*
X158710148Y-56814774D01*
X158647181Y-56825764D01*
X158640669Y-56826724D01*
X158577258Y-56834398D01*
X158570157Y-56837081D01*
X158567548Y-56837722D01*
X158551228Y-56842187D01*
X158548695Y-56842952D01*
X158541217Y-56844257D01*
X158482690Y-56869948D01*
X158476608Y-56872430D01*
X158456253Y-56880122D01*
X158423949Y-56892328D01*
X158423947Y-56892329D01*
X158416844Y-56895013D01*
X158410585Y-56899314D01*
X158408220Y-56900551D01*
X158393448Y-56908773D01*
X158391156Y-56910128D01*
X158384195Y-56913184D01*
X158378168Y-56917809D01*
X158378164Y-56917811D01*
X158333487Y-56952093D01*
X158328162Y-56955962D01*
X158275519Y-56992143D01*
X158270467Y-56997813D01*
X158270466Y-56997814D01*
X158234073Y-57038661D01*
X158229092Y-57043937D01*
X150444480Y-64828550D01*
X150438215Y-64834404D01*
X150394615Y-64872439D01*
X150390248Y-64878653D01*
X150357872Y-64924719D01*
X150353939Y-64930014D01*
X150314524Y-64980282D01*
X150311401Y-64987198D01*
X150310017Y-64989484D01*
X150301643Y-65004165D01*
X150300378Y-65006525D01*
X150296010Y-65012739D01*
X150275783Y-65064620D01*
X150272798Y-65072275D01*
X150270247Y-65078344D01*
X150243955Y-65136573D01*
X150242571Y-65144040D01*
X150241770Y-65146595D01*
X150237141Y-65162848D01*
X150236478Y-65165428D01*
X150233718Y-65172509D01*
X150227729Y-65218004D01*
X150225379Y-65235852D01*
X150224348Y-65242359D01*
X150212704Y-65305186D01*
X150213141Y-65312766D01*
X150213141Y-65312767D01*
X150216291Y-65367392D01*
X150216500Y-65374646D01*
X150216500Y-71976088D01*
X150216208Y-71984658D01*
X150214071Y-72016010D01*
X150212275Y-72042352D01*
X150213580Y-72049829D01*
X150213580Y-72049830D01*
X150223261Y-72105299D01*
X150224223Y-72111821D01*
X150231898Y-72175242D01*
X150234581Y-72182343D01*
X150235222Y-72184952D01*
X150239685Y-72201262D01*
X150240450Y-72203798D01*
X150241757Y-72211284D01*
X150264518Y-72263133D01*
X150267442Y-72269795D01*
X150269933Y-72275899D01*
X150292513Y-72335656D01*
X150296817Y-72341919D01*
X150298054Y-72344285D01*
X150306299Y-72359097D01*
X150307632Y-72361351D01*
X150310685Y-72368305D01*
X150347806Y-72416680D01*
X150349579Y-72418991D01*
X150353459Y-72424332D01*
X150385339Y-72470720D01*
X150385344Y-72470725D01*
X150389643Y-72476981D01*
X150395313Y-72482032D01*
X150395314Y-72482034D01*
X150436170Y-72518435D01*
X150441446Y-72523416D01*
X151998550Y-74080520D01*
X152004404Y-74086785D01*
X152042439Y-74130385D01*
X152071617Y-74150891D01*
X152094697Y-74167112D01*
X152099993Y-74171045D01*
X152150282Y-74210477D01*
X152157204Y-74213602D01*
X152159452Y-74214964D01*
X152174185Y-74223368D01*
X152176524Y-74224622D01*
X152182739Y-74228990D01*
X152189815Y-74231749D01*
X152189819Y-74231751D01*
X152242274Y-74252202D01*
X152248352Y-74254757D01*
X152306574Y-74281045D01*
X152314045Y-74282429D01*
X152316599Y-74283230D01*
X152332878Y-74287867D01*
X152335433Y-74288523D01*
X152342509Y-74291282D01*
X152370962Y-74295028D01*
X152405851Y-74299621D01*
X152412367Y-74300653D01*
X152454706Y-74308500D01*
X152475187Y-74312296D01*
X152482767Y-74311859D01*
X152482768Y-74311859D01*
X152537398Y-74308709D01*
X152544651Y-74308500D01*
X152578841Y-74308500D01*
X152646962Y-74328502D01*
X152693455Y-74382158D01*
X152704151Y-74421329D01*
X152720223Y-74574249D01*
X152774366Y-74740882D01*
X152777669Y-74746603D01*
X152858667Y-74886898D01*
X152858670Y-74886902D01*
X152861970Y-74892618D01*
X152979208Y-75022823D01*
X153082478Y-75097853D01*
X153082768Y-75098064D01*
X153126122Y-75154286D01*
X153132197Y-75225023D01*
X153099065Y-75287814D01*
X153082768Y-75301936D01*
X153051494Y-75324658D01*
X152979208Y-75377177D01*
X152974795Y-75382079D01*
X152974793Y-75382080D01*
X152899145Y-75466095D01*
X152861970Y-75507382D01*
X152858670Y-75513098D01*
X152858667Y-75513102D01*
X152808158Y-75600588D01*
X152774366Y-75659118D01*
X152720223Y-75825751D01*
X152719533Y-75832317D01*
X152719532Y-75832321D01*
X152703034Y-75989293D01*
X152701909Y-76000000D01*
X152702599Y-76006565D01*
X152719342Y-76165871D01*
X152706570Y-76235709D01*
X152673964Y-76275316D01*
X152673574Y-76275547D01*
X152658410Y-76290711D01*
X152643377Y-76303551D01*
X152626024Y-76316159D01*
X152603503Y-76343382D01*
X152596579Y-76351752D01*
X152588589Y-76360532D01*
X151942395Y-77006726D01*
X151933615Y-77014716D01*
X151933613Y-77014718D01*
X151926920Y-77018965D01*
X151921494Y-77024743D01*
X151921493Y-77024744D01*
X151878396Y-77070638D01*
X151875641Y-77073480D01*
X151855073Y-77094048D01*
X151852356Y-77097551D01*
X151844648Y-77106576D01*
X151813028Y-77140248D01*
X151809207Y-77147199D01*
X151809206Y-77147200D01*
X151802697Y-77159039D01*
X151791843Y-77175563D01*
X151784018Y-77185652D01*
X151778696Y-77192513D01*
X151775549Y-77199785D01*
X151775548Y-77199787D01*
X151760346Y-77234916D01*
X151755124Y-77245576D01*
X151741146Y-77271002D01*
X151732876Y-77286044D01*
X151727541Y-77306822D01*
X151721142Y-77325512D01*
X151712620Y-77345205D01*
X151711380Y-77353036D01*
X151705394Y-77390829D01*
X151702987Y-77402452D01*
X151691500Y-77447193D01*
X151691500Y-77468640D01*
X151689949Y-77488350D01*
X151686594Y-77509533D01*
X151687340Y-77517424D01*
X151690941Y-77555519D01*
X151691500Y-77567377D01*
X151691500Y-79292944D01*
X151690941Y-79304800D01*
X151689212Y-79312537D01*
X151689461Y-79320459D01*
X151691438Y-79383369D01*
X151691500Y-79387327D01*
X151691500Y-79416432D01*
X151692056Y-79420832D01*
X151692988Y-79432664D01*
X151694438Y-79478831D01*
X151696650Y-79486444D01*
X151696650Y-79486445D01*
X151700419Y-79499416D01*
X151704430Y-79518782D01*
X151707118Y-79540064D01*
X151710034Y-79547429D01*
X151710035Y-79547433D01*
X151724126Y-79583021D01*
X151727965Y-79594231D01*
X151740855Y-79638600D01*
X151751775Y-79657065D01*
X151760466Y-79674805D01*
X151768365Y-79694756D01*
X151795516Y-79732126D01*
X151802033Y-79742048D01*
X151821507Y-79774977D01*
X151821510Y-79774981D01*
X151825547Y-79781807D01*
X151840711Y-79796971D01*
X151853551Y-79812004D01*
X151866159Y-79829357D01*
X151901752Y-79858802D01*
X151910532Y-79866792D01*
X152050145Y-80006405D01*
X152084171Y-80068717D01*
X152079106Y-80139532D01*
X152036559Y-80196368D01*
X151970039Y-80221179D01*
X151961050Y-80221500D01*
X147884500Y-80221500D01*
X147816379Y-80201498D01*
X147769886Y-80147842D01*
X147758500Y-80095500D01*
X147758500Y-53094500D01*
X147778502Y-53026379D01*
X147832158Y-52979886D01*
X147884500Y-52968500D01*
X152757358Y-52968500D01*
X152825479Y-52988502D01*
G37*
%TD.AperFunction*%
%TA.AperFunction,Conductor*%
G36*
X183263621Y-52988502D02*
G01*
X183310114Y-53042158D01*
X183321500Y-53094500D01*
X183321500Y-80095500D01*
X183301498Y-80163621D01*
X183247842Y-80210114D01*
X183195500Y-80221500D01*
X170427522Y-80221500D01*
X170359401Y-80201498D01*
X170312908Y-80147842D01*
X170302804Y-80077568D01*
X170332298Y-80012988D01*
X170338427Y-80006405D01*
X173056927Y-77287905D01*
X173119239Y-77253879D01*
X173146022Y-77251000D01*
X173192655Y-77251000D01*
X173260776Y-77271002D01*
X173295551Y-77304279D01*
X173303479Y-77315497D01*
X173449410Y-77457657D01*
X173454206Y-77460862D01*
X173454209Y-77460864D01*
X173527684Y-77509958D01*
X173618803Y-77570842D01*
X173624106Y-77573120D01*
X173624109Y-77573122D01*
X173713115Y-77611362D01*
X173805987Y-77651263D01*
X173878817Y-77667743D01*
X173999055Y-77694950D01*
X173999060Y-77694951D01*
X174004692Y-77696225D01*
X174010463Y-77696452D01*
X174010465Y-77696452D01*
X174073470Y-77698927D01*
X174208263Y-77704223D01*
X174409883Y-77674990D01*
X174415347Y-77673135D01*
X174415352Y-77673134D01*
X174597327Y-77611362D01*
X174597332Y-77611360D01*
X174602799Y-77609504D01*
X174633982Y-77592041D01*
X174699196Y-77555519D01*
X174780551Y-77509958D01*
X174937186Y-77379686D01*
X175006429Y-77296430D01*
X175065365Y-77256847D01*
X175103302Y-77251000D01*
X175192655Y-77251000D01*
X175260776Y-77271002D01*
X175295551Y-77304279D01*
X175303479Y-77315497D01*
X175449410Y-77457657D01*
X175454210Y-77460864D01*
X175491572Y-77485829D01*
X175537100Y-77540306D01*
X175545947Y-77610749D01*
X175515306Y-77674793D01*
X175497770Y-77690601D01*
X175495649Y-77691863D01*
X175342478Y-77826190D01*
X175338911Y-77830715D01*
X175338906Y-77830720D01*
X175252331Y-77940540D01*
X175216351Y-77986181D01*
X175121492Y-78166478D01*
X175072019Y-78325808D01*
X175066236Y-78344433D01*
X175061078Y-78361043D01*
X175037132Y-78563359D01*
X175050457Y-78766651D01*
X175100605Y-78964110D01*
X175185898Y-79149124D01*
X175303479Y-79315497D01*
X175307613Y-79319524D01*
X175417660Y-79426727D01*
X175449410Y-79457657D01*
X175454206Y-79460862D01*
X175454209Y-79460864D01*
X175583769Y-79547433D01*
X175618803Y-79570842D01*
X175624106Y-79573120D01*
X175624109Y-79573122D01*
X175713115Y-79611362D01*
X175805987Y-79651263D01*
X175869317Y-79665593D01*
X175999055Y-79694950D01*
X175999060Y-79694951D01*
X176004692Y-79696225D01*
X176010463Y-79696452D01*
X176010465Y-79696452D01*
X176073470Y-79698927D01*
X176208263Y-79704223D01*
X176409883Y-79674990D01*
X176415347Y-79673135D01*
X176415352Y-79673134D01*
X176597327Y-79611362D01*
X176597332Y-79611360D01*
X176602799Y-79609504D01*
X176780551Y-79509958D01*
X176937186Y-79379686D01*
X177067458Y-79223051D01*
X177167004Y-79045299D01*
X177168860Y-79039832D01*
X177168862Y-79039827D01*
X177230634Y-78857852D01*
X177230635Y-78857847D01*
X177232490Y-78852383D01*
X177261723Y-78650763D01*
X177263249Y-78592500D01*
X177251395Y-78463492D01*
X177245137Y-78395380D01*
X177245136Y-78395377D01*
X177244608Y-78389626D01*
X177189307Y-78193547D01*
X177178680Y-78171996D01*
X177101756Y-78016010D01*
X177099201Y-78010829D01*
X177080796Y-77986181D01*
X176980758Y-77852215D01*
X176980758Y-77852214D01*
X176977305Y-77847591D01*
X176827703Y-77709300D01*
X176822822Y-77706220D01*
X176822819Y-77706218D01*
X176811272Y-77698933D01*
X176764334Y-77645667D01*
X176753644Y-77575480D01*
X176782598Y-77510655D01*
X176797938Y-77495497D01*
X176806532Y-77488350D01*
X176937186Y-77379686D01*
X177067458Y-77223051D01*
X177152014Y-77072066D01*
X177164180Y-77050342D01*
X177164181Y-77050340D01*
X177167004Y-77045299D01*
X177168860Y-77039832D01*
X177168862Y-77039827D01*
X177230634Y-76857852D01*
X177230635Y-76857847D01*
X177232490Y-76852383D01*
X177261723Y-76650763D01*
X177263249Y-76592500D01*
X177249943Y-76447687D01*
X177245137Y-76395380D01*
X177245136Y-76395377D01*
X177244608Y-76389626D01*
X177243040Y-76384066D01*
X177190875Y-76199106D01*
X177190874Y-76199104D01*
X177189307Y-76193547D01*
X177179791Y-76174249D01*
X177101756Y-76016010D01*
X177099201Y-76010829D01*
X177087872Y-75995657D01*
X176980758Y-75852215D01*
X176980758Y-75852214D01*
X176977305Y-75847591D01*
X176827703Y-75709300D01*
X176822822Y-75706220D01*
X176822819Y-75706218D01*
X176811272Y-75698933D01*
X176764334Y-75645667D01*
X176753644Y-75575480D01*
X176782598Y-75510655D01*
X176797938Y-75495497D01*
X176833291Y-75466095D01*
X176937186Y-75379686D01*
X177067458Y-75223051D01*
X177167004Y-75045299D01*
X177168860Y-75039832D01*
X177168862Y-75039827D01*
X177230634Y-74857852D01*
X177230635Y-74857847D01*
X177232490Y-74852383D01*
X177261723Y-74650763D01*
X177263249Y-74592500D01*
X177244608Y-74389626D01*
X177216872Y-74291282D01*
X177190875Y-74199106D01*
X177190874Y-74199104D01*
X177189307Y-74193547D01*
X177171669Y-74157779D01*
X177101756Y-74016010D01*
X177099201Y-74010829D01*
X177047210Y-73941204D01*
X176980758Y-73852215D01*
X176980758Y-73852214D01*
X176977305Y-73847591D01*
X176861563Y-73740600D01*
X176831943Y-73713219D01*
X176831940Y-73713217D01*
X176827703Y-73709300D01*
X176822822Y-73706220D01*
X176822819Y-73706218D01*
X176811272Y-73698933D01*
X176764334Y-73645667D01*
X176753644Y-73575480D01*
X176782598Y-73510655D01*
X176797938Y-73495497D01*
X176870919Y-73434800D01*
X176937186Y-73379686D01*
X177067458Y-73223051D01*
X177167004Y-73045299D01*
X177168860Y-73039832D01*
X177168862Y-73039827D01*
X177230634Y-72857852D01*
X177230635Y-72857847D01*
X177232490Y-72852383D01*
X177261723Y-72650763D01*
X177263249Y-72592500D01*
X177248611Y-72433190D01*
X177245137Y-72395380D01*
X177245136Y-72395377D01*
X177244608Y-72389626D01*
X177243040Y-72384066D01*
X177190875Y-72199106D01*
X177190874Y-72199104D01*
X177189307Y-72193547D01*
X177185069Y-72184952D01*
X177101756Y-72016010D01*
X177099201Y-72010829D01*
X177092277Y-72001556D01*
X176980758Y-71852215D01*
X176980758Y-71852214D01*
X176977305Y-71847591D01*
X176847104Y-71727234D01*
X176831943Y-71713219D01*
X176831940Y-71713217D01*
X176827703Y-71709300D01*
X176822822Y-71706220D01*
X176822819Y-71706218D01*
X176811272Y-71698933D01*
X176764334Y-71645667D01*
X176753644Y-71575480D01*
X176782598Y-71510655D01*
X176797938Y-71495497D01*
X176825270Y-71472766D01*
X176937186Y-71379686D01*
X177067458Y-71223051D01*
X177167004Y-71045299D01*
X177168860Y-71039832D01*
X177168862Y-71039827D01*
X177230634Y-70857852D01*
X177230635Y-70857847D01*
X177232490Y-70852383D01*
X177261723Y-70650763D01*
X177263249Y-70592500D01*
X177249799Y-70446125D01*
X177245137Y-70395380D01*
X177245136Y-70395377D01*
X177244608Y-70389626D01*
X177203662Y-70244445D01*
X177190875Y-70199106D01*
X177190874Y-70199104D01*
X177189307Y-70193547D01*
X177170949Y-70156319D01*
X177101756Y-70016010D01*
X177099201Y-70010829D01*
X177095379Y-70005710D01*
X176980758Y-69852215D01*
X176980758Y-69852214D01*
X176977305Y-69847591D01*
X176827703Y-69709300D01*
X176822822Y-69706220D01*
X176822819Y-69706218D01*
X176811272Y-69698933D01*
X176764334Y-69645667D01*
X176753644Y-69575480D01*
X176782598Y-69510655D01*
X176797938Y-69495497D01*
X176797963Y-69495477D01*
X176937186Y-69379686D01*
X177067458Y-69223051D01*
X177167004Y-69045299D01*
X177168860Y-69039832D01*
X177168862Y-69039827D01*
X177230634Y-68857852D01*
X177230635Y-68857847D01*
X177232490Y-68852383D01*
X177261723Y-68650763D01*
X177263249Y-68592500D01*
X177250307Y-68451644D01*
X177245137Y-68395380D01*
X177245136Y-68395377D01*
X177244608Y-68389626D01*
X177202290Y-68239581D01*
X177190875Y-68199106D01*
X177190874Y-68199104D01*
X177189307Y-68193547D01*
X177186519Y-68187892D01*
X177101756Y-68016010D01*
X177099201Y-68010829D01*
X177056872Y-67954143D01*
X176980758Y-67852215D01*
X176980758Y-67852214D01*
X176977305Y-67847591D01*
X176827703Y-67709300D01*
X176822822Y-67706220D01*
X176822819Y-67706218D01*
X176811272Y-67698933D01*
X176764334Y-67645667D01*
X176753644Y-67575480D01*
X176782598Y-67510655D01*
X176797938Y-67495497D01*
X176830470Y-67468441D01*
X176937186Y-67379686D01*
X177067458Y-67223051D01*
X177167004Y-67045299D01*
X177168860Y-67039832D01*
X177168862Y-67039827D01*
X177230634Y-66857852D01*
X177230635Y-66857847D01*
X177232490Y-66852383D01*
X177261723Y-66650763D01*
X177263249Y-66592500D01*
X177251860Y-66468549D01*
X177245137Y-66395380D01*
X177245136Y-66395377D01*
X177244608Y-66389626D01*
X177243040Y-66384066D01*
X177190875Y-66199106D01*
X177190874Y-66199104D01*
X177189307Y-66193547D01*
X177172883Y-66160241D01*
X177101756Y-66016010D01*
X177099201Y-66010829D01*
X177077349Y-65981565D01*
X176980758Y-65852215D01*
X176980758Y-65852214D01*
X176977305Y-65847591D01*
X176864813Y-65743604D01*
X176831943Y-65713219D01*
X176831940Y-65713217D01*
X176827703Y-65709300D01*
X176822822Y-65706220D01*
X176822819Y-65706218D01*
X176811272Y-65698933D01*
X176764334Y-65645667D01*
X176753644Y-65575480D01*
X176782598Y-65510655D01*
X176797938Y-65495497D01*
X176932748Y-65383377D01*
X176937186Y-65379686D01*
X177067458Y-65223051D01*
X177148490Y-65078358D01*
X177164180Y-65050342D01*
X177164181Y-65050340D01*
X177167004Y-65045299D01*
X177168860Y-65039832D01*
X177168862Y-65039827D01*
X177230634Y-64857852D01*
X177230635Y-64857847D01*
X177232490Y-64852383D01*
X177261723Y-64650763D01*
X177263249Y-64592500D01*
X177244608Y-64389626D01*
X177228233Y-64331565D01*
X177190875Y-64199106D01*
X177190874Y-64199104D01*
X177189307Y-64193547D01*
X177184426Y-64183648D01*
X177101756Y-64016010D01*
X177099201Y-64010829D01*
X177076998Y-63981095D01*
X176980758Y-63852215D01*
X176980758Y-63852214D01*
X176977305Y-63847591D01*
X176827703Y-63709300D01*
X176822822Y-63706220D01*
X176822819Y-63706218D01*
X176811272Y-63698933D01*
X176764334Y-63645667D01*
X176753644Y-63575480D01*
X176782598Y-63510655D01*
X176797938Y-63495497D01*
X176858145Y-63445424D01*
X176937186Y-63379686D01*
X177067458Y-63223051D01*
X177167004Y-63045299D01*
X177168860Y-63039832D01*
X177168862Y-63039827D01*
X177230634Y-62857852D01*
X177230635Y-62857847D01*
X177232490Y-62852383D01*
X177261723Y-62650763D01*
X177263249Y-62592500D01*
X177244608Y-62389626D01*
X177189307Y-62193547D01*
X177177912Y-62170439D01*
X177101756Y-62016010D01*
X177099201Y-62010829D01*
X177083603Y-61989940D01*
X176980758Y-61852215D01*
X176980758Y-61852214D01*
X176977305Y-61847591D01*
X176827703Y-61709300D01*
X176822822Y-61706220D01*
X176822819Y-61706218D01*
X176811272Y-61698933D01*
X176764334Y-61645667D01*
X176753644Y-61575480D01*
X176782598Y-61510655D01*
X176797938Y-61495497D01*
X176850605Y-61451695D01*
X176937186Y-61379686D01*
X177067458Y-61223051D01*
X177151114Y-61073672D01*
X177164180Y-61050342D01*
X177164181Y-61050340D01*
X177167004Y-61045299D01*
X177168860Y-61039832D01*
X177168862Y-61039827D01*
X177230634Y-60857852D01*
X177230635Y-60857847D01*
X177232490Y-60852383D01*
X177261723Y-60650763D01*
X177263249Y-60592500D01*
X177244608Y-60389626D01*
X177215628Y-60286871D01*
X177190875Y-60199106D01*
X177190874Y-60199104D01*
X177189307Y-60193547D01*
X177178680Y-60171996D01*
X177101756Y-60016010D01*
X177099201Y-60010829D01*
X177083603Y-59989940D01*
X176980758Y-59852215D01*
X176980758Y-59852214D01*
X176977305Y-59847591D01*
X176827703Y-59709300D01*
X176822822Y-59706220D01*
X176822819Y-59706218D01*
X176811272Y-59698933D01*
X176764334Y-59645667D01*
X176753644Y-59575480D01*
X176782598Y-59510655D01*
X176797938Y-59495497D01*
X176863664Y-59440834D01*
X176937186Y-59379686D01*
X177067458Y-59223051D01*
X177167004Y-59045299D01*
X177168860Y-59039832D01*
X177168862Y-59039827D01*
X177230634Y-58857852D01*
X177230635Y-58857847D01*
X177232490Y-58852383D01*
X177261723Y-58650763D01*
X177263249Y-58592500D01*
X177244608Y-58389626D01*
X177231581Y-58343435D01*
X177190875Y-58199106D01*
X177190874Y-58199104D01*
X177189307Y-58193547D01*
X177174570Y-58163662D01*
X177099201Y-58010829D01*
X177100226Y-58010323D01*
X177083234Y-57947501D01*
X177104692Y-57879825D01*
X177120110Y-57861107D01*
X177507605Y-57473612D01*
X177516385Y-57465622D01*
X177516387Y-57465620D01*
X177523080Y-57461373D01*
X177571605Y-57409699D01*
X177574359Y-57406858D01*
X177594927Y-57386290D01*
X177597647Y-57382783D01*
X177605353Y-57373761D01*
X177631544Y-57345870D01*
X177636972Y-57340090D01*
X177640794Y-57333138D01*
X177647303Y-57321299D01*
X177658157Y-57304775D01*
X177666445Y-57294089D01*
X177671304Y-57287825D01*
X177674452Y-57280551D01*
X177689654Y-57245422D01*
X177694876Y-57234762D01*
X177713305Y-57201241D01*
X177713306Y-57201239D01*
X177717124Y-57194294D01*
X177722459Y-57173516D01*
X177728858Y-57154826D01*
X177737380Y-57135133D01*
X177744606Y-57089509D01*
X177747013Y-57077886D01*
X177756528Y-57040825D01*
X177758500Y-57033145D01*
X177758500Y-57011698D01*
X177760051Y-56991988D01*
X177762166Y-56978634D01*
X177763406Y-56970805D01*
X177759059Y-56924816D01*
X177758500Y-56912961D01*
X177758500Y-54082056D01*
X177759059Y-54070200D01*
X177759059Y-54070197D01*
X177760788Y-54062463D01*
X177758562Y-53991631D01*
X177758500Y-53987673D01*
X177758500Y-53958568D01*
X177757944Y-53954168D01*
X177757012Y-53942330D01*
X177756915Y-53939224D01*
X177755562Y-53896169D01*
X177749580Y-53875579D01*
X177745570Y-53856216D01*
X177743875Y-53842796D01*
X177743875Y-53842795D01*
X177742882Y-53834936D01*
X177739966Y-53827571D01*
X177739965Y-53827567D01*
X177725876Y-53791982D01*
X177722031Y-53780753D01*
X177711356Y-53744010D01*
X177709145Y-53736399D01*
X177698230Y-53717943D01*
X177689531Y-53700187D01*
X177689182Y-53699307D01*
X177681635Y-53680244D01*
X177654480Y-53642868D01*
X177647965Y-53632949D01*
X177628492Y-53600023D01*
X177628489Y-53600019D01*
X177624452Y-53593193D01*
X177609291Y-53578032D01*
X177596449Y-53562997D01*
X177594500Y-53560314D01*
X177583841Y-53545643D01*
X177548248Y-53516198D01*
X177539467Y-53508208D01*
X177214855Y-53183595D01*
X177180830Y-53121283D01*
X177185895Y-53050467D01*
X177228442Y-52993632D01*
X177294962Y-52968821D01*
X177303951Y-52968500D01*
X183195500Y-52968500D01*
X183263621Y-52988502D01*
G37*
%TD.AperFunction*%
%TA.AperFunction,Conductor*%
G36*
X154030690Y-78374540D02*
G01*
X154068503Y-78434629D01*
X154070240Y-78496460D01*
X154056810Y-78556543D01*
X154056500Y-78562088D01*
X154056500Y-78995244D01*
X154071143Y-79130037D01*
X154128906Y-79301675D01*
X154132422Y-79307527D01*
X154134788Y-79312647D01*
X154145205Y-79382875D01*
X154116001Y-79447586D01*
X154056447Y-79486236D01*
X154020409Y-79491500D01*
X153449950Y-79491500D01*
X153381829Y-79471498D01*
X153360855Y-79454595D01*
X153045405Y-79139145D01*
X153011379Y-79076833D01*
X153008500Y-79050050D01*
X153008500Y-78469764D01*
X153028502Y-78401643D01*
X153082158Y-78355150D01*
X153152432Y-78345046D01*
X153185748Y-78354657D01*
X153274981Y-78394386D01*
X153274989Y-78394389D01*
X153281016Y-78397072D01*
X153366706Y-78415286D01*
X153445939Y-78432128D01*
X153445943Y-78432128D01*
X153452396Y-78433500D01*
X153627604Y-78433500D01*
X153634057Y-78432128D01*
X153634061Y-78432128D01*
X153713294Y-78415286D01*
X153798984Y-78397072D01*
X153805011Y-78394389D01*
X153805019Y-78394386D01*
X153896026Y-78353867D01*
X153966393Y-78344433D01*
X154030690Y-78374540D01*
G37*
%TD.AperFunction*%
%TA.AperFunction,Conductor*%
G36*
X163143171Y-78278502D02*
G01*
X163164140Y-78295400D01*
X163895147Y-79026407D01*
X163929171Y-79088717D01*
X163924107Y-79159532D01*
X163881560Y-79216368D01*
X163815040Y-79241179D01*
X163806051Y-79241500D01*
X155836196Y-79241500D01*
X155768075Y-79221498D01*
X155721582Y-79167842D01*
X155711478Y-79097568D01*
X155713231Y-79088013D01*
X155722063Y-79048503D01*
X155722064Y-79048492D01*
X155723190Y-79043457D01*
X155723500Y-79037912D01*
X155723500Y-78604756D01*
X155708857Y-78469963D01*
X155706681Y-78463498D01*
X155706680Y-78463492D01*
X155693621Y-78424688D01*
X155690851Y-78353745D01*
X155726875Y-78292567D01*
X155790256Y-78260577D01*
X155813040Y-78258500D01*
X163075050Y-78258500D01*
X163143171Y-78278502D01*
G37*
%TD.AperFunction*%
%TA.AperFunction,Conductor*%
G36*
X155563164Y-67897380D02*
G01*
X155618402Y-67941981D01*
X155634668Y-67974806D01*
X155690473Y-68146556D01*
X155785960Y-68311944D01*
X155790378Y-68316851D01*
X155790379Y-68316852D01*
X155861086Y-68395380D01*
X155913747Y-68453866D01*
X155987350Y-68507342D01*
X156057291Y-68558157D01*
X156068248Y-68566118D01*
X156074276Y-68568802D01*
X156074278Y-68568803D01*
X156231091Y-68638620D01*
X156242712Y-68643794D01*
X156314528Y-68659059D01*
X156423056Y-68682128D01*
X156423061Y-68682128D01*
X156429513Y-68683500D01*
X156450050Y-68683500D01*
X156518171Y-68703502D01*
X156539145Y-68720405D01*
X158190856Y-70372116D01*
X158198846Y-70380896D01*
X158203095Y-70387591D01*
X158208873Y-70393017D01*
X158208874Y-70393018D01*
X158254768Y-70436115D01*
X158257610Y-70438870D01*
X158278178Y-70459438D01*
X158281681Y-70462155D01*
X158290706Y-70469863D01*
X158324378Y-70501483D01*
X158331329Y-70505304D01*
X158331330Y-70505305D01*
X158343169Y-70511814D01*
X158359693Y-70522668D01*
X158370376Y-70530954D01*
X158376643Y-70535815D01*
X158400517Y-70546146D01*
X158419047Y-70554165D01*
X158429692Y-70559380D01*
X158470174Y-70581635D01*
X158477848Y-70583605D01*
X158477855Y-70583608D01*
X158490937Y-70586966D01*
X158509645Y-70593371D01*
X158529334Y-70601891D01*
X158537160Y-70603130D01*
X158537162Y-70603131D01*
X158561670Y-70607012D01*
X158574970Y-70609119D01*
X158586581Y-70611523D01*
X158617618Y-70619492D01*
X158623646Y-70621040D01*
X158623647Y-70621040D01*
X158631323Y-70623011D01*
X158652769Y-70623011D01*
X158672479Y-70624562D01*
X158685833Y-70626677D01*
X158685834Y-70626677D01*
X158693663Y-70627917D01*
X158739652Y-70623570D01*
X158751507Y-70623011D01*
X163517933Y-70623011D01*
X163529789Y-70623570D01*
X163529792Y-70623570D01*
X163537526Y-70625299D01*
X163608358Y-70623073D01*
X163612316Y-70623011D01*
X163641421Y-70623011D01*
X163645821Y-70622455D01*
X163657653Y-70621523D01*
X163703820Y-70620073D01*
X163724410Y-70614091D01*
X163743771Y-70610081D01*
X163751397Y-70609118D01*
X163757193Y-70608386D01*
X163757194Y-70608386D01*
X163765053Y-70607393D01*
X163772418Y-70604477D01*
X163772422Y-70604476D01*
X163808010Y-70590385D01*
X163819220Y-70586546D01*
X163863589Y-70573656D01*
X163882054Y-70562736D01*
X163899794Y-70554045D01*
X163919745Y-70546146D01*
X163957118Y-70518993D01*
X163967037Y-70512478D01*
X163999966Y-70493004D01*
X163999970Y-70493001D01*
X164006796Y-70488964D01*
X164021960Y-70473800D01*
X164036994Y-70460959D01*
X164054346Y-70448352D01*
X164083792Y-70412758D01*
X164091781Y-70403979D01*
X164541651Y-69954109D01*
X164603963Y-69920083D01*
X164674778Y-69925148D01*
X164731614Y-69967695D01*
X164752453Y-70010593D01*
X164800087Y-70188367D01*
X164807188Y-70214867D01*
X164809510Y-70219847D01*
X164809511Y-70219849D01*
X164894028Y-70401093D01*
X164898700Y-70411113D01*
X164901856Y-70415620D01*
X164901857Y-70415622D01*
X165012514Y-70573656D01*
X165022899Y-70588488D01*
X165176012Y-70741601D01*
X165180520Y-70744758D01*
X165180523Y-70744760D01*
X165240544Y-70786787D01*
X165284872Y-70842244D01*
X165292181Y-70912864D01*
X165260150Y-70976224D01*
X165240544Y-70993213D01*
X165180523Y-71035240D01*
X165180520Y-71035242D01*
X165176012Y-71038399D01*
X165022899Y-71191512D01*
X165019742Y-71196020D01*
X165019740Y-71196023D01*
X164948377Y-71297941D01*
X164898700Y-71368887D01*
X164896377Y-71373870D01*
X164896374Y-71373874D01*
X164822164Y-71533017D01*
X164807188Y-71565133D01*
X164805766Y-71570441D01*
X164805765Y-71570443D01*
X164761928Y-71734047D01*
X164751145Y-71774290D01*
X164732273Y-71990000D01*
X164751145Y-72205710D01*
X164752569Y-72211023D01*
X164752569Y-72211025D01*
X164801967Y-72395380D01*
X164807188Y-72414867D01*
X164809510Y-72419847D01*
X164809511Y-72419849D01*
X164891748Y-72596204D01*
X164898700Y-72611113D01*
X164901856Y-72615620D01*
X164901857Y-72615622D01*
X164929036Y-72654437D01*
X165022899Y-72788488D01*
X165176012Y-72941601D01*
X165180520Y-72944758D01*
X165180523Y-72944760D01*
X165213255Y-72967679D01*
X165353386Y-73065800D01*
X165358368Y-73068123D01*
X165358373Y-73068126D01*
X165544651Y-73154989D01*
X165549633Y-73157312D01*
X165554941Y-73158734D01*
X165554943Y-73158735D01*
X165753475Y-73211931D01*
X165753477Y-73211931D01*
X165758790Y-73213355D01*
X165974500Y-73232227D01*
X166190210Y-73213355D01*
X166195523Y-73211931D01*
X166195525Y-73211931D01*
X166394057Y-73158735D01*
X166394059Y-73158734D01*
X166399367Y-73157312D01*
X166404349Y-73154989D01*
X166590627Y-73068126D01*
X166590632Y-73068123D01*
X166595614Y-73065800D01*
X166735745Y-72967679D01*
X166768477Y-72944760D01*
X166768480Y-72944758D01*
X166772988Y-72941601D01*
X166926101Y-72788488D01*
X167019965Y-72654437D01*
X167047143Y-72615622D01*
X167047144Y-72615620D01*
X167050300Y-72611113D01*
X167057253Y-72596204D01*
X167139489Y-72419849D01*
X167139490Y-72419847D01*
X167141812Y-72414867D01*
X167147034Y-72395380D01*
X167196431Y-72211025D01*
X167196431Y-72211023D01*
X167197855Y-72205710D01*
X167216727Y-71990000D01*
X167197855Y-71774290D01*
X167187072Y-71734047D01*
X167174918Y-71688686D01*
X167176608Y-71617709D01*
X167216403Y-71558913D01*
X167281667Y-71530966D01*
X167351681Y-71542740D01*
X167385720Y-71566980D01*
X170818845Y-75000105D01*
X170826835Y-75008885D01*
X170831084Y-75015580D01*
X170836862Y-75021006D01*
X170836863Y-75021007D01*
X170882757Y-75064104D01*
X170885599Y-75066859D01*
X170906167Y-75087427D01*
X170909670Y-75090144D01*
X170918695Y-75097852D01*
X170952367Y-75129472D01*
X170959318Y-75133293D01*
X170959319Y-75133294D01*
X170971158Y-75139803D01*
X170987682Y-75150657D01*
X170997771Y-75158482D01*
X171004632Y-75163804D01*
X171011904Y-75166951D01*
X171011906Y-75166952D01*
X171047035Y-75182154D01*
X171057695Y-75187376D01*
X171075332Y-75197072D01*
X171098163Y-75209624D01*
X171118941Y-75214959D01*
X171137631Y-75221358D01*
X171157324Y-75229880D01*
X171201096Y-75236813D01*
X171202948Y-75237106D01*
X171214571Y-75239513D01*
X171242572Y-75246702D01*
X171259312Y-75251000D01*
X171280759Y-75251000D01*
X171300469Y-75252551D01*
X171321652Y-75255906D01*
X171367641Y-75251559D01*
X171379496Y-75251000D01*
X172256050Y-75251000D01*
X172324171Y-75271002D01*
X172370664Y-75324658D01*
X172380768Y-75394932D01*
X172351274Y-75459512D01*
X172345145Y-75466095D01*
X169406645Y-78404595D01*
X169344333Y-78438621D01*
X169317550Y-78441500D01*
X165224949Y-78441500D01*
X165156828Y-78421498D01*
X165135854Y-78404595D01*
X163923655Y-77192396D01*
X163915663Y-77183613D01*
X163915663Y-77183612D01*
X163911416Y-77176920D01*
X163859741Y-77128394D01*
X163856900Y-77125640D01*
X163836333Y-77105073D01*
X163832826Y-77102353D01*
X163823804Y-77094647D01*
X163801263Y-77073480D01*
X163790133Y-77063028D01*
X163783181Y-77059206D01*
X163771342Y-77052697D01*
X163754818Y-77041843D01*
X163744132Y-77033555D01*
X163737868Y-77028696D01*
X163730596Y-77025549D01*
X163730594Y-77025548D01*
X163695465Y-77010346D01*
X163684805Y-77005124D01*
X163651284Y-76986695D01*
X163651282Y-76986694D01*
X163644337Y-76982876D01*
X163623559Y-76977541D01*
X163604869Y-76971142D01*
X163585176Y-76962620D01*
X163539552Y-76955394D01*
X163527929Y-76952987D01*
X163499928Y-76945798D01*
X163483188Y-76941500D01*
X163461741Y-76941500D01*
X163442031Y-76939949D01*
X163428677Y-76937834D01*
X163420848Y-76936594D01*
X163374859Y-76940941D01*
X163363004Y-76941500D01*
X155656082Y-76941500D01*
X155587961Y-76921498D01*
X155541468Y-76867842D01*
X155531364Y-76797568D01*
X155560858Y-76732988D01*
X155566987Y-76726405D01*
X155635158Y-76658234D01*
X155636095Y-76657306D01*
X155695475Y-76599157D01*
X155695476Y-76599156D01*
X155700507Y-76594229D01*
X155723998Y-76557779D01*
X155731417Y-76547454D01*
X155758476Y-76513557D01*
X155761540Y-76507218D01*
X155761543Y-76507214D01*
X155773074Y-76483362D01*
X155780601Y-76469949D01*
X155794947Y-76447687D01*
X155794948Y-76447684D01*
X155798765Y-76441762D01*
X155801176Y-76435139D01*
X155813592Y-76401027D01*
X155818553Y-76389283D01*
X155834352Y-76356601D01*
X155834353Y-76356599D01*
X155837421Y-76350252D01*
X155844966Y-76317573D01*
X155849334Y-76302825D01*
X155860803Y-76271315D01*
X155861685Y-76264329D01*
X155861687Y-76264323D01*
X155866238Y-76228299D01*
X155868474Y-76215747D01*
X155876638Y-76180386D01*
X155876638Y-76180383D01*
X155878224Y-76173515D01*
X155878366Y-76132944D01*
X155878395Y-76132062D01*
X155878500Y-76131231D01*
X155878500Y-76094428D01*
X155878857Y-75992130D01*
X155878589Y-75990930D01*
X155878500Y-75989293D01*
X155878500Y-74249165D01*
X155878507Y-74247846D01*
X155879450Y-74157779D01*
X155877963Y-74150901D01*
X155877962Y-74150891D01*
X155870291Y-74115413D01*
X155868230Y-74102831D01*
X155865728Y-74080520D01*
X155863397Y-74059745D01*
X155852368Y-74028074D01*
X155848205Y-74013265D01*
X155842607Y-73987371D01*
X155842606Y-73987368D01*
X155841119Y-73980490D01*
X155822792Y-73941187D01*
X155818010Y-73929411D01*
X155803745Y-73888448D01*
X155800010Y-73882470D01*
X155785973Y-73860005D01*
X155778634Y-73846488D01*
X155767439Y-73822481D01*
X155767437Y-73822477D01*
X155764462Y-73816098D01*
X155737892Y-73781844D01*
X155730598Y-73771388D01*
X155707626Y-73734624D01*
X155686370Y-73713219D01*
X155679017Y-73705815D01*
X155678434Y-73705192D01*
X155677921Y-73704530D01*
X155652063Y-73678672D01*
X155579815Y-73605918D01*
X155578775Y-73605258D01*
X155577550Y-73604159D01*
X155408192Y-73434800D01*
X155407265Y-73433863D01*
X155349157Y-73374525D01*
X155349156Y-73374524D01*
X155344229Y-73369493D01*
X155307779Y-73346002D01*
X155297454Y-73338583D01*
X155263557Y-73311524D01*
X155233362Y-73296927D01*
X155219945Y-73289398D01*
X155191762Y-73271235D01*
X155185145Y-73268827D01*
X155185140Y-73268824D01*
X155151027Y-73256408D01*
X155139284Y-73251447D01*
X155106597Y-73235646D01*
X155106592Y-73235644D01*
X155100251Y-73232579D01*
X155093393Y-73230996D01*
X155093391Y-73230995D01*
X155067574Y-73225035D01*
X155052831Y-73220668D01*
X155021315Y-73209197D01*
X155014325Y-73208314D01*
X155014317Y-73208312D01*
X154978299Y-73203762D01*
X154965747Y-73201526D01*
X154930386Y-73193362D01*
X154930383Y-73193362D01*
X154923515Y-73191776D01*
X154916469Y-73191751D01*
X154916466Y-73191751D01*
X154882944Y-73191634D01*
X154882062Y-73191605D01*
X154881231Y-73191500D01*
X154844581Y-73191500D01*
X154844141Y-73191499D01*
X154745657Y-73191155D01*
X154745652Y-73191155D01*
X154742130Y-73191143D01*
X154740930Y-73191411D01*
X154739293Y-73191500D01*
X154462612Y-73191500D01*
X154394491Y-73171498D01*
X154347998Y-73117842D01*
X154337894Y-73047568D01*
X154342779Y-73026564D01*
X154357735Y-72980535D01*
X154357736Y-72980531D01*
X154359777Y-72974249D01*
X154362877Y-72944760D01*
X154377401Y-72806565D01*
X154378091Y-72800000D01*
X154362406Y-72650763D01*
X154360468Y-72632321D01*
X154360467Y-72632317D01*
X154359777Y-72625751D01*
X154314023Y-72484936D01*
X154311995Y-72413969D01*
X154348658Y-72353171D01*
X154412370Y-72321846D01*
X154487106Y-72331805D01*
X154613631Y-72390805D01*
X154613634Y-72390806D01*
X154619808Y-72393685D01*
X154626456Y-72395171D01*
X154626459Y-72395172D01*
X154753816Y-72423639D01*
X154796543Y-72433190D01*
X154802088Y-72433500D01*
X154935244Y-72433500D01*
X155070037Y-72418857D01*
X155202351Y-72374328D01*
X155235204Y-72363272D01*
X155235206Y-72363271D01*
X155241675Y-72361094D01*
X155396905Y-72267823D01*
X155401862Y-72263135D01*
X155401865Y-72263133D01*
X155523527Y-72148082D01*
X155523529Y-72148080D01*
X155528485Y-72143393D01*
X155532317Y-72137755D01*
X155532320Y-72137751D01*
X155626442Y-71999255D01*
X155630277Y-71993612D01*
X155697530Y-71825466D01*
X155698644Y-71818738D01*
X155698645Y-71818734D01*
X155725993Y-71653539D01*
X155725993Y-71653536D01*
X155727108Y-71646802D01*
X155725584Y-71617709D01*
X155717987Y-71472766D01*
X155717630Y-71465953D01*
X155694304Y-71381266D01*
X155671352Y-71297941D01*
X155669539Y-71291359D01*
X155585078Y-71131164D01*
X155580673Y-71125951D01*
X155580670Y-71125947D01*
X155472594Y-70998057D01*
X155472590Y-70998053D01*
X155468187Y-70992843D01*
X155462762Y-70988695D01*
X155329743Y-70886994D01*
X155329739Y-70886991D01*
X155324322Y-70882850D01*
X155209220Y-70829177D01*
X155166369Y-70809195D01*
X155166366Y-70809194D01*
X155160192Y-70806315D01*
X155153544Y-70804829D01*
X155153541Y-70804828D01*
X155026184Y-70776361D01*
X154983457Y-70766810D01*
X154977912Y-70766500D01*
X154844756Y-70766500D01*
X154709963Y-70781143D01*
X154626609Y-70809195D01*
X154544796Y-70836728D01*
X154544794Y-70836729D01*
X154538325Y-70838906D01*
X154383095Y-70932177D01*
X154378138Y-70936865D01*
X154378135Y-70936867D01*
X154258140Y-71050342D01*
X154251515Y-71056607D01*
X154247683Y-71062245D01*
X154247680Y-71062249D01*
X154196740Y-71137205D01*
X154149723Y-71206388D01*
X154082470Y-71374534D01*
X154081356Y-71381262D01*
X154081355Y-71381266D01*
X154056233Y-71533017D01*
X154052892Y-71553198D01*
X154053249Y-71560015D01*
X154053249Y-71560019D01*
X154059802Y-71685050D01*
X154062370Y-71734047D01*
X154064181Y-71740620D01*
X154064181Y-71740623D01*
X154086702Y-71822385D01*
X154109906Y-71906625D01*
X154110461Y-71908641D01*
X154110100Y-71908741D01*
X154116219Y-71975517D01*
X154083447Y-72038497D01*
X154021828Y-72073761D01*
X153950925Y-72070114D01*
X153941340Y-72066308D01*
X153805019Y-72005614D01*
X153805011Y-72005611D01*
X153798984Y-72002928D01*
X153692881Y-71980375D01*
X153634061Y-71967872D01*
X153634057Y-71967872D01*
X153627604Y-71966500D01*
X153452396Y-71966500D01*
X153445943Y-71967872D01*
X153445939Y-71967872D01*
X153387119Y-71980375D01*
X153281016Y-72002928D01*
X153274987Y-72005613D01*
X153274985Y-72005613D01*
X153126985Y-72071507D01*
X153126983Y-72071508D01*
X153120955Y-72074192D01*
X153115615Y-72078072D01*
X153061433Y-72117437D01*
X152987373Y-72141500D01*
X152914950Y-72141500D01*
X152846829Y-72121498D01*
X152825855Y-72104595D01*
X152495405Y-71774145D01*
X152461379Y-71711833D01*
X152458500Y-71685050D01*
X152458500Y-68187892D01*
X152478502Y-68119771D01*
X152532158Y-68073278D01*
X152602432Y-68063174D01*
X152658023Y-68085569D01*
X152836317Y-68213686D01*
X152840112Y-68215695D01*
X152840113Y-68215696D01*
X152861869Y-68227215D01*
X153090392Y-68348212D01*
X153114699Y-68357107D01*
X153276684Y-68416385D01*
X153360373Y-68447011D01*
X153641264Y-68508255D01*
X153669841Y-68510504D01*
X153864282Y-68525807D01*
X153864291Y-68525807D01*
X153866739Y-68526000D01*
X154022271Y-68526000D01*
X154024407Y-68525854D01*
X154024418Y-68525854D01*
X154232548Y-68511665D01*
X154232554Y-68511664D01*
X154236825Y-68511373D01*
X154241020Y-68510504D01*
X154241022Y-68510504D01*
X154495767Y-68457749D01*
X154518342Y-68453074D01*
X154789343Y-68357107D01*
X155000841Y-68247945D01*
X155041005Y-68227215D01*
X155041006Y-68227215D01*
X155044812Y-68225250D01*
X155048313Y-68222789D01*
X155048317Y-68222787D01*
X155242307Y-68086448D01*
X155280023Y-68059941D01*
X155429065Y-67921443D01*
X155492581Y-67889724D01*
X155563164Y-67897380D01*
G37*
%TD.AperFunction*%
%TA.AperFunction,Conductor*%
G36*
X158720746Y-67933524D02*
G01*
X158747883Y-67954143D01*
X159201345Y-68407605D01*
X159209335Y-68416385D01*
X159213584Y-68423080D01*
X159219362Y-68428506D01*
X159219363Y-68428507D01*
X159265257Y-68471604D01*
X159268099Y-68474359D01*
X159288667Y-68494927D01*
X159292170Y-68497644D01*
X159301195Y-68505352D01*
X159334867Y-68536972D01*
X159341818Y-68540793D01*
X159341819Y-68540794D01*
X159353658Y-68547303D01*
X159370182Y-68558157D01*
X159380271Y-68565982D01*
X159387132Y-68571304D01*
X159394404Y-68574451D01*
X159394406Y-68574452D01*
X159429535Y-68589654D01*
X159440195Y-68594876D01*
X159456384Y-68603776D01*
X159480663Y-68617124D01*
X159501441Y-68622459D01*
X159520131Y-68628858D01*
X159539824Y-68637380D01*
X159547647Y-68638619D01*
X159547650Y-68638620D01*
X159585457Y-68644608D01*
X159597079Y-68647015D01*
X159634133Y-68656529D01*
X159634137Y-68656530D01*
X159641812Y-68658500D01*
X159663253Y-68658500D01*
X159682962Y-68660051D01*
X159704152Y-68663407D01*
X159712044Y-68662661D01*
X159750148Y-68659059D01*
X159762006Y-68658500D01*
X163670550Y-68658500D01*
X163738671Y-68678502D01*
X163785164Y-68732158D01*
X163795268Y-68802432D01*
X163765774Y-68867012D01*
X163759645Y-68873595D01*
X163364134Y-69269106D01*
X163301822Y-69303132D01*
X163275039Y-69306011D01*
X159039461Y-69306011D01*
X158971340Y-69286009D01*
X158950366Y-69269106D01*
X158029855Y-68348595D01*
X157995829Y-68286283D01*
X158000894Y-68215468D01*
X158043441Y-68158632D01*
X158107380Y-68134784D01*
X158107318Y-68134190D01*
X158109620Y-68133948D01*
X158109961Y-68133821D01*
X158111276Y-68133774D01*
X158113884Y-68133500D01*
X158120487Y-68133500D01*
X158126939Y-68132128D01*
X158126944Y-68132128D01*
X158236493Y-68108842D01*
X158307288Y-68093794D01*
X158313319Y-68091109D01*
X158475722Y-68018803D01*
X158475724Y-68018802D01*
X158481752Y-68016118D01*
X158538612Y-67974807D01*
X158584727Y-67941302D01*
X158651595Y-67917444D01*
X158720746Y-67933524D01*
G37*
%TD.AperFunction*%
%TA.AperFunction,Conductor*%
G36*
X173392883Y-59417543D02*
G01*
X173436770Y-59445344D01*
X173449410Y-59457657D01*
X173454210Y-59460864D01*
X173454214Y-59460867D01*
X173491572Y-59485829D01*
X173537100Y-59540306D01*
X173545947Y-59610749D01*
X173515306Y-59674793D01*
X173497770Y-59690601D01*
X173495649Y-59691863D01*
X173342478Y-59826190D01*
X173338911Y-59830715D01*
X173338906Y-59830720D01*
X173318475Y-59856637D01*
X173216351Y-59986181D01*
X173121492Y-60166478D01*
X173061078Y-60361043D01*
X173037132Y-60563359D01*
X173037510Y-60569125D01*
X173046362Y-60704177D01*
X173030858Y-60773460D01*
X173009727Y-60801513D01*
X172817884Y-60993356D01*
X172809104Y-61001346D01*
X172809102Y-61001348D01*
X172802409Y-61005595D01*
X172796983Y-61011373D01*
X172796982Y-61011374D01*
X172753885Y-61057268D01*
X172751130Y-61060110D01*
X172730562Y-61080678D01*
X172727845Y-61084181D01*
X172720137Y-61093206D01*
X172688517Y-61126878D01*
X172684696Y-61133829D01*
X172684695Y-61133830D01*
X172678186Y-61145669D01*
X172667332Y-61162193D01*
X172659507Y-61172282D01*
X172654185Y-61179143D01*
X172651038Y-61186415D01*
X172651037Y-61186417D01*
X172635835Y-61221546D01*
X172630613Y-61232206D01*
X172618291Y-61254620D01*
X172608365Y-61272674D01*
X172603030Y-61293452D01*
X172596631Y-61312142D01*
X172588109Y-61331835D01*
X172586869Y-61339666D01*
X172580883Y-61377459D01*
X172578476Y-61389082D01*
X172574015Y-61406459D01*
X172566989Y-61433823D01*
X172566989Y-61455270D01*
X172565438Y-61474980D01*
X172562083Y-61496163D01*
X172562829Y-61504054D01*
X172566430Y-61542149D01*
X172566989Y-61554007D01*
X172566989Y-67867039D01*
X172546987Y-67935160D01*
X172493331Y-67981653D01*
X172423057Y-67991757D01*
X172358477Y-67962263D01*
X172351894Y-67956134D01*
X172312372Y-67916612D01*
X172278346Y-67854300D01*
X172277416Y-67807349D01*
X172277855Y-67805710D01*
X172296727Y-67590000D01*
X172277855Y-67374290D01*
X172263710Y-67321498D01*
X172223235Y-67170443D01*
X172223234Y-67170441D01*
X172221812Y-67165133D01*
X172219489Y-67160151D01*
X172132626Y-66973874D01*
X172132623Y-66973870D01*
X172130300Y-66968887D01*
X172127143Y-66964378D01*
X172009260Y-66796023D01*
X172009258Y-66796020D01*
X172006101Y-66791512D01*
X171852988Y-66638399D01*
X171848480Y-66635242D01*
X171848477Y-66635240D01*
X171750306Y-66566500D01*
X171675614Y-66514200D01*
X171670632Y-66511877D01*
X171670627Y-66511874D01*
X171484349Y-66425011D01*
X171484347Y-66425010D01*
X171479367Y-66422688D01*
X171474059Y-66421266D01*
X171474057Y-66421265D01*
X171275525Y-66368069D01*
X171275523Y-66368069D01*
X171270210Y-66366645D01*
X171054500Y-66347773D01*
X170838790Y-66366645D01*
X170833479Y-66368068D01*
X170833468Y-66368070D01*
X170818101Y-66372188D01*
X170747124Y-66370499D01*
X170688328Y-66330706D01*
X170660380Y-66265441D01*
X170659489Y-66250482D01*
X170659489Y-62098961D01*
X170679491Y-62030840D01*
X170696394Y-62009866D01*
X173259756Y-59446504D01*
X173322068Y-59412478D01*
X173392883Y-59417543D01*
G37*
%TD.AperFunction*%
%TA.AperFunction,Conductor*%
G36*
X161802282Y-60796002D02*
G01*
X161837374Y-60829729D01*
X161872251Y-60879538D01*
X162027962Y-61035249D01*
X162032471Y-61038406D01*
X162032473Y-61038408D01*
X162063467Y-61060110D01*
X162208346Y-61161556D01*
X162213328Y-61163879D01*
X162213333Y-61163882D01*
X162340768Y-61223305D01*
X162394053Y-61270222D01*
X162413514Y-61338499D01*
X162392972Y-61406459D01*
X162340768Y-61451695D01*
X162213334Y-61511118D01*
X162213329Y-61511121D01*
X162208347Y-61513444D01*
X162203840Y-61516600D01*
X162203838Y-61516601D01*
X162032473Y-61636592D01*
X162032470Y-61636594D01*
X162027962Y-61639751D01*
X161872251Y-61795462D01*
X161869094Y-61799970D01*
X161869092Y-61799973D01*
X161767170Y-61945533D01*
X161745944Y-61975847D01*
X161743621Y-61980829D01*
X161743618Y-61980834D01*
X161725047Y-62020660D01*
X161652880Y-62175424D01*
X161595885Y-62388129D01*
X161576693Y-62607500D01*
X161595885Y-62826871D01*
X161652880Y-63039576D01*
X161696415Y-63132938D01*
X161743618Y-63234166D01*
X161743621Y-63234171D01*
X161745944Y-63239153D01*
X161749100Y-63243660D01*
X161749101Y-63243662D01*
X161868580Y-63414295D01*
X161872251Y-63419538D01*
X162027962Y-63575249D01*
X162032471Y-63578406D01*
X162032473Y-63578408D01*
X162076833Y-63609469D01*
X162208346Y-63701556D01*
X162213328Y-63703879D01*
X162213333Y-63703882D01*
X162340768Y-63763305D01*
X162394053Y-63810222D01*
X162413514Y-63878499D01*
X162392972Y-63946459D01*
X162340768Y-63991695D01*
X162213334Y-64051118D01*
X162213329Y-64051121D01*
X162208347Y-64053444D01*
X162203840Y-64056600D01*
X162203838Y-64056601D01*
X162032473Y-64176592D01*
X162032470Y-64176594D01*
X162027962Y-64179751D01*
X161872251Y-64335462D01*
X161869094Y-64339970D01*
X161869092Y-64339973D01*
X161838218Y-64384066D01*
X161745944Y-64515847D01*
X161743621Y-64520829D01*
X161743618Y-64520834D01*
X161711923Y-64588805D01*
X161652880Y-64715424D01*
X161595885Y-64928129D01*
X161576693Y-65147500D01*
X161595885Y-65366871D01*
X161652880Y-65579576D01*
X161672979Y-65622678D01*
X161743618Y-65774166D01*
X161743621Y-65774171D01*
X161745944Y-65779153D01*
X161749100Y-65783660D01*
X161749101Y-65783662D01*
X161797103Y-65852215D01*
X161872251Y-65959538D01*
X162027962Y-66115249D01*
X162032471Y-66118406D01*
X162032473Y-66118408D01*
X162107241Y-66170761D01*
X162208346Y-66241556D01*
X162407924Y-66334620D01*
X162413231Y-66336042D01*
X162413242Y-66336046D01*
X162431871Y-66341037D01*
X162492495Y-66377987D01*
X162523517Y-66441848D01*
X162515090Y-66512342D01*
X162492900Y-66547052D01*
X162410960Y-66638056D01*
X162378975Y-66693456D01*
X162319758Y-66796023D01*
X162315473Y-66803444D01*
X162256458Y-66985072D01*
X162255768Y-66991633D01*
X162255768Y-66991635D01*
X162238057Y-67160151D01*
X162236496Y-67175000D01*
X162237186Y-67181565D01*
X162237186Y-67181568D01*
X162239368Y-67202331D01*
X162226595Y-67272169D01*
X162178092Y-67324015D01*
X162114058Y-67341500D01*
X160049950Y-67341500D01*
X159981829Y-67321498D01*
X159960855Y-67304595D01*
X159473655Y-66817395D01*
X159465665Y-66808615D01*
X159465663Y-66808613D01*
X159461416Y-66801920D01*
X159409742Y-66753395D01*
X159406901Y-66750641D01*
X159386333Y-66730073D01*
X159382826Y-66727353D01*
X159373804Y-66719647D01*
X159345913Y-66693456D01*
X159340133Y-66688028D01*
X159333181Y-66684206D01*
X159321342Y-66677697D01*
X159304818Y-66666843D01*
X159294132Y-66658555D01*
X159287868Y-66653696D01*
X159280596Y-66650549D01*
X159280594Y-66650548D01*
X159245465Y-66635346D01*
X159234805Y-66630124D01*
X159201284Y-66611695D01*
X159201282Y-66611694D01*
X159194337Y-66607876D01*
X159173559Y-66602541D01*
X159154869Y-66596142D01*
X159135176Y-66587620D01*
X159089552Y-66580394D01*
X159077929Y-66577987D01*
X159049928Y-66570798D01*
X159033188Y-66566500D01*
X159011741Y-66566500D01*
X158992031Y-66564949D01*
X158978677Y-66562834D01*
X158970848Y-66561594D01*
X158924859Y-66565941D01*
X158913004Y-66566500D01*
X158705224Y-66566500D01*
X158637103Y-66546498D01*
X158631163Y-66542436D01*
X158630909Y-66542251D01*
X158481752Y-66433882D01*
X158475724Y-66431198D01*
X158475722Y-66431197D01*
X158313319Y-66358891D01*
X158313318Y-66358891D01*
X158307288Y-66356206D01*
X158212443Y-66336046D01*
X158126944Y-66317872D01*
X158126939Y-66317872D01*
X158120487Y-66316500D01*
X157929513Y-66316500D01*
X157923061Y-66317872D01*
X157923056Y-66317872D01*
X157837557Y-66336046D01*
X157742712Y-66356206D01*
X157736682Y-66358891D01*
X157736681Y-66358891D01*
X157574278Y-66431197D01*
X157574276Y-66431198D01*
X157568248Y-66433882D01*
X157413747Y-66546134D01*
X157409326Y-66551044D01*
X157409325Y-66551045D01*
X157299589Y-66672920D01*
X157285960Y-66688056D01*
X157249010Y-66752055D01*
X157194385Y-66846669D01*
X157190473Y-66853444D01*
X157172457Y-66908891D01*
X157169680Y-66917438D01*
X157129606Y-66976043D01*
X157064209Y-67003680D01*
X156994252Y-66991573D01*
X156987035Y-66987720D01*
X156981752Y-66983882D01*
X156970325Y-66978794D01*
X156813319Y-66908891D01*
X156813318Y-66908891D01*
X156807288Y-66906206D01*
X156713888Y-66886353D01*
X156626944Y-66867872D01*
X156626939Y-66867872D01*
X156620487Y-66866500D01*
X156429513Y-66866500D01*
X156423061Y-66867872D01*
X156423056Y-66867872D01*
X156336112Y-66886353D01*
X156242712Y-66906206D01*
X156236685Y-66908889D01*
X156236677Y-66908892D01*
X156202585Y-66924071D01*
X156132218Y-66933505D01*
X156067921Y-66903398D01*
X156030108Y-66843309D01*
X156026594Y-66791211D01*
X156057146Y-66576536D01*
X156057146Y-66576534D01*
X156057751Y-66572284D01*
X156057782Y-66566500D01*
X156059235Y-66289083D01*
X156059235Y-66289076D01*
X156059257Y-66284797D01*
X156054740Y-66250482D01*
X156036936Y-66115249D01*
X156021732Y-65999766D01*
X156014971Y-65975050D01*
X155979030Y-65843675D01*
X155945871Y-65722464D01*
X155913114Y-65645667D01*
X155834763Y-65461976D01*
X155834761Y-65461972D01*
X155833077Y-65458024D01*
X155737137Y-65297720D01*
X155687643Y-65215021D01*
X155687640Y-65215017D01*
X155685439Y-65211339D01*
X155505687Y-64986972D01*
X155356342Y-64845249D01*
X155300258Y-64792027D01*
X155300255Y-64792025D01*
X155297149Y-64789077D01*
X155063683Y-64621314D01*
X154809608Y-64486788D01*
X154559824Y-64395380D01*
X154543658Y-64389464D01*
X154543656Y-64389463D01*
X154539627Y-64387989D01*
X154533498Y-64386653D01*
X154343659Y-64345261D01*
X154281363Y-64311206D01*
X154247368Y-64248878D01*
X154252466Y-64178064D01*
X154281406Y-64133058D01*
X154536964Y-63877500D01*
X159036693Y-63877500D01*
X159055885Y-64096871D01*
X159112880Y-64309576D01*
X159150132Y-64389464D01*
X159203618Y-64504166D01*
X159203621Y-64504171D01*
X159205944Y-64509153D01*
X159209100Y-64513660D01*
X159209101Y-64513662D01*
X159283073Y-64619304D01*
X159332251Y-64689538D01*
X159487962Y-64845249D01*
X159492471Y-64848406D01*
X159492473Y-64848408D01*
X159567241Y-64900761D01*
X159668346Y-64971556D01*
X159867924Y-65064620D01*
X160080629Y-65121615D01*
X160300000Y-65140807D01*
X160519371Y-65121615D01*
X160732076Y-65064620D01*
X160931654Y-64971556D01*
X161032759Y-64900761D01*
X161107527Y-64848408D01*
X161107529Y-64848406D01*
X161112038Y-64845249D01*
X161267749Y-64689538D01*
X161316928Y-64619304D01*
X161390899Y-64513662D01*
X161390900Y-64513660D01*
X161394056Y-64509153D01*
X161396379Y-64504171D01*
X161396382Y-64504166D01*
X161449868Y-64389464D01*
X161487120Y-64309576D01*
X161544115Y-64096871D01*
X161563307Y-63877500D01*
X161544115Y-63658129D01*
X161487120Y-63445424D01*
X161418254Y-63297739D01*
X161396382Y-63250834D01*
X161396379Y-63250829D01*
X161394056Y-63245847D01*
X161333424Y-63159255D01*
X161270908Y-63069973D01*
X161270906Y-63069970D01*
X161267749Y-63065462D01*
X161112038Y-62909751D01*
X160931654Y-62783444D01*
X160732076Y-62690380D01*
X160519371Y-62633385D01*
X160300000Y-62614193D01*
X160080629Y-62633385D01*
X159867924Y-62690380D01*
X159774562Y-62733915D01*
X159673334Y-62781118D01*
X159673329Y-62781121D01*
X159668347Y-62783444D01*
X159663840Y-62786600D01*
X159663838Y-62786601D01*
X159492473Y-62906592D01*
X159492470Y-62906594D01*
X159487962Y-62909751D01*
X159332251Y-63065462D01*
X159329094Y-63069970D01*
X159329092Y-63069973D01*
X159266576Y-63159255D01*
X159205944Y-63245847D01*
X159203621Y-63250829D01*
X159203618Y-63250834D01*
X159181746Y-63297739D01*
X159112880Y-63445424D01*
X159055885Y-63658129D01*
X159036693Y-63877500D01*
X154536964Y-63877500D01*
X157601559Y-60812905D01*
X157663871Y-60778879D01*
X157690654Y-60776000D01*
X161734161Y-60776000D01*
X161802282Y-60796002D01*
G37*
%TD.AperFunction*%
%TA.AperFunction,Conductor*%
G36*
X176368170Y-54203502D02*
G01*
X176389142Y-54220402D01*
X176404593Y-54235852D01*
X176438620Y-54298163D01*
X176441500Y-54324950D01*
X176441500Y-55366654D01*
X176421498Y-55434775D01*
X176367842Y-55481268D01*
X176290918Y-55490233D01*
X176266366Y-55485349D01*
X176260592Y-55485273D01*
X176260588Y-55485273D01*
X176157452Y-55483924D01*
X176062655Y-55482683D01*
X176056958Y-55483662D01*
X176056957Y-55483662D01*
X175867567Y-55516205D01*
X175861870Y-55517184D01*
X175670734Y-55587698D01*
X175495649Y-55691863D01*
X175342478Y-55826190D01*
X175338907Y-55830720D01*
X175295323Y-55886006D01*
X175237442Y-55927119D01*
X175196373Y-55934000D01*
X175104995Y-55934000D01*
X175036874Y-55913998D01*
X175004038Y-55883390D01*
X174980759Y-55852217D01*
X174977305Y-55847591D01*
X174827703Y-55709300D01*
X174822822Y-55706220D01*
X174822819Y-55706218D01*
X174811272Y-55698933D01*
X174764334Y-55645667D01*
X174753644Y-55575480D01*
X174782598Y-55510655D01*
X174797938Y-55495497D01*
X174804268Y-55490233D01*
X174937186Y-55379686D01*
X175067458Y-55223051D01*
X175167004Y-55045299D01*
X175168860Y-55039832D01*
X175168862Y-55039827D01*
X175230634Y-54857852D01*
X175230635Y-54857847D01*
X175232490Y-54852383D01*
X175261723Y-54650763D01*
X175263249Y-54592500D01*
X175246378Y-54408891D01*
X175245137Y-54395380D01*
X175245136Y-54395377D01*
X175244608Y-54389626D01*
X175236547Y-54361043D01*
X175231656Y-54343702D01*
X175232416Y-54272709D01*
X175271437Y-54213397D01*
X175336330Y-54184598D01*
X175352925Y-54183500D01*
X176300049Y-54183500D01*
X176368170Y-54203502D01*
G37*
%TD.AperFunction*%
%TD*%
M02*
